ISO-10303-21;
HEADER;
/* Generated by software containing ST-Developer
 * from STEP Tools, Inc. (www.steptools.com) 
 */
/* OPTION: using custom renumber hook */

FILE_DESCRIPTION(
/* description */ ('STEP AP242 Edition 2',
'CAx-IF Rec.Pracs.---Representation and Presentation of Product Manufa
cturing Information (PMI)---4.0---2014-10-13',
'CAx-IF Rec.Pracs.---3D Tessellated Geometry---0.4---2014-09-14','2;1',
'CAx-IF Rec.Pracs.---User Defined Attributes---1.5---2016-08-15'),
/* implementation_level */ '2;1');

FILE_NAME(
/* name */ 'Arcade Button Stand',
/* time_stamp */ '2026-06-13T20:40:21Z',
/* author */ (''),
/* organization */ (''),
/* preprocessor_version */ 'ST-DEVELOPER v20',
/* originating_system */ 'ONSHAPE BY PTC INC, 1.216',
/* authorisation */ '  ');

FILE_SCHEMA (('AP242_MANAGED_MODEL_BASED_3D_ENGINEERING_MIM_LF { 1 0 10303 442 3 1 4 }'));
ENDSEC;

DATA;
#10=SHAPE_REPRESENTATION_RELATIONSHIP('','',#534,#11);
#11=ADVANCED_BREP_SHAPE_REPRESENTATION('',(#532),#1197);
#12=B_SPLINE_SURFACE_WITH_KNOTS('',3,1,((#944,#945),(#946,#947),(#948,#949),
(#950,#951)),.SURF_OF_LINEAR_EXTRUSION.,.F.,.F.,.F.,(4,4),(2,2),(6.97065559732532E-18,
1.),(0.,1.),.PIECEWISE_BEZIER_KNOTS.);
#13=B_SPLINE_SURFACE_WITH_KNOTS('',3,1,((#970,#971),(#972,#973),(#974,#975),
(#976,#977)),.SURF_OF_LINEAR_EXTRUSION.,.F.,.F.,.F.,(4,4),(2,2),(-8.15121000870665E-17,
1.),(0.,1.),.PIECEWISE_BEZIER_KNOTS.);
#14=B_SPLINE_SURFACE_WITH_KNOTS('',3,1,((#978,#979),(#980,#981),(#982,#983),
(#984,#985)),.SURF_OF_LINEAR_EXTRUSION.,.F.,.F.,.F.,(4,4),(2,2),(-4.72394530269543E-17,
1.),(0.,1.),.PIECEWISE_BEZIER_KNOTS.);
#15=B_SPLINE_SURFACE_WITH_KNOTS('',3,1,((#1004,#1005),(#1006,#1007),(#1008,
#1009),(#1010,#1011)),.SURF_OF_LINEAR_EXTRUSION.,.F.,.F.,.F.,(4,4),(2,2),
(-1.54540206991055E-14,1.),(0.,1.),.PIECEWISE_BEZIER_KNOTS.);
#16=B_SPLINE_SURFACE_WITH_KNOTS('',3,1,((#1012,#1013),(#1014,#1015),(#1016,
#1017),(#1018,#1019)),.SURF_OF_LINEAR_EXTRUSION.,.F.,.F.,.F.,(4,4),(2,2),
(3.82024544284877E-17,1.),(0.,1.),.PIECEWISE_BEZIER_KNOTS.);
#17=B_SPLINE_SURFACE_WITH_KNOTS('',3,1,((#1038,#1039),(#1040,#1041),(#1042,
#1043),(#1044,#1045)),.SURF_OF_LINEAR_EXTRUSION.,.F.,.F.,.F.,(4,4),(2,2),
(-3.5213065637948E-16,1.),(0.,1.),.PIECEWISE_BEZIER_KNOTS.);
#18=B_SPLINE_SURFACE_WITH_KNOTS('',3,1,((#1046,#1047),(#1048,#1049),(#1050,
#1051),(#1052,#1053)),.SURF_OF_LINEAR_EXTRUSION.,.F.,.F.,.F.,(4,4),(2,2),
(-7.20844096380978E-17,1.),(0.,1.),.PIECEWISE_BEZIER_KNOTS.);
#19=B_SPLINE_SURFACE_WITH_KNOTS('',3,1,((#1072,#1073),(#1074,#1075),(#1076,
#1077),(#1078,#1079)),.SURF_OF_LINEAR_EXTRUSION.,.F.,.F.,.F.,(4,4),(2,2),
(-1.53537583941239E-14,1.),(0.,1.),.PIECEWISE_BEZIER_KNOTS.);
#20=B_SPLINE_SURFACE_WITH_KNOTS('',1,3,((#1089,#1090,#1091,#1092,#1093,
#1094,#1095,#1096,#1097,#1098),(#1099,#1100,#1101,#1102,#1103,#1104,#1105,
#1106,#1107,#1108)),.RULED_SURF.,.F.,.F.,.F.,(2,2),(4,2,2,2,4),(0.,1.),
(0.,0.00234147652632765,0.00468295305265531,0.00702442957898296,0.00936590610531061),
 .UNSPECIFIED.);
#21=B_SPLINE_SURFACE_WITH_KNOTS('',1,3,((#1113,#1114,#1115,#1116,#1117,
#1118,#1119,#1120,#1121,#1122),(#1123,#1124,#1125,#1126,#1127,#1128,#1129,
#1130,#1131,#1132)),.RULED_SURF.,.F.,.F.,.F.,(2,2),(4,2,2,2,4),(0.,1.),
(0.,0.00234194798581491,0.00468389597162983,0.00702584395744474,0.00936779194325965),
 .UNSPECIFIED.);
#22=B_SPLINE_SURFACE_WITH_KNOTS('',1,3,((#1147,#1148,#1149,#1150,#1151,
#1152,#1153,#1154,#1155,#1156),(#1157,#1158,#1159,#1160,#1161,#1162,#1163,
#1164,#1165,#1166)),.RULED_SURF.,.F.,.F.,.F.,(2,2),(4,2,2,2,4),(0.,1.),
(0.,0.00234194798581491,0.00468389597162982,0.00702584395744474,0.00936779194325965),
 .UNSPECIFIED.);
#23=B_SPLINE_SURFACE_WITH_KNOTS('',1,3,((#1171,#1172,#1173,#1174,#1175,
#1176,#1177,#1178,#1179,#1180),(#1181,#1182,#1183,#1184,#1185,#1186,#1187,
#1188,#1189,#1190)),.RULED_SURF.,.F.,.F.,.F.,(2,2),(4,2,2,2,4),(0.,1.),
(0.,0.00234147652632765,0.0046829530526553,0.00702442957898294,0.00936590610531059),
 .UNSPECIFIED.);
#24=CONICAL_SURFACE('',#562,0.057,0.785398163397448);
#25=CONICAL_SURFACE('',#574,0.06,0.746634563384086);
#26=CONICAL_SURFACE('',#575,0.0582989561864204,0.746634563384088);
#27=PLANE('',#556);
#28=PLANE('',#558);
#29=PLANE('',#559);
#30=PLANE('',#560);
#31=PLANE('',#561);
#32=PLANE('',#563);
#33=PLANE('',#564);
#34=PLANE('',#565);
#35=PLANE('',#566);
#36=PLANE('',#567);
#37=PLANE('',#568);
#38=PLANE('',#570);
#39=PLANE('',#571);
#40=PLANE('',#573);
#41=PLANE('',#576);
#42=CIRCLE('',#537,0.06);
#43=CIRCLE('',#538,0.06);
#44=CIRCLE('',#539,0.06);
#45=CIRCLE('',#540,0.06);
#46=CIRCLE('',#542,0.0496);
#47=CIRCLE('',#543,0.0496);
#48=CIRCLE('',#544,0.0496);
#49=CIRCLE('',#545,0.0496);
#50=CIRCLE('',#547,0.058);
#51=CIRCLE('',#548,0.058);
#52=CIRCLE('',#549,0.058);
#53=CIRCLE('',#550,0.058);
#54=CIRCLE('',#552,0.0516);
#55=CIRCLE('',#553,0.0516);
#56=CIRCLE('',#554,0.0516);
#57=CIRCLE('',#555,0.0516);
#58=CIRCLE('',#557,0.057);
#59=CIRCLE('',#569,0.0582989561864204);
#60=CIRCLE('',#572,0.0582989561864204);
#61=LINE('',#682,#71);
#62=LINE('',#702,#72);
#63=LINE('',#733,#73);
#64=LINE('',#753,#74);
#65=LINE('',#778,#75);
#66=LINE('',#798,#76);
#67=LINE('',#812,#77);
#68=LINE('',#833,#78);
#69=LINE('',#902,#79);
#70=LINE('',#926,#80);
#71=VECTOR('',#581,1.);
#72=VECTOR('',#584,1.);
#73=VECTOR('',#599,1.);
#74=VECTOR('',#602,1.);
#75=VECTOR('',#611,1.);
#76=VECTOR('',#614,1.);
#77=VECTOR('',#621,1.);
#78=VECTOR('',#624,1.);
#79=VECTOR('',#651,1.);
#80=VECTOR('',#658,1.);
#81=ORIENTED_EDGE('',*,*,#227,.T.);
#82=ORIENTED_EDGE('',*,*,#228,.T.);
#83=ORIENTED_EDGE('',*,*,#229,.T.);
#84=ORIENTED_EDGE('',*,*,#230,.T.);
#85=ORIENTED_EDGE('',*,*,#231,.T.);
#86=ORIENTED_EDGE('',*,*,#232,.T.);
#87=ORIENTED_EDGE('',*,*,#233,.T.);
#88=ORIENTED_EDGE('',*,*,#234,.T.);
#89=ORIENTED_EDGE('',*,*,#235,.T.);
#90=ORIENTED_EDGE('',*,*,#236,.T.);
#91=ORIENTED_EDGE('',*,*,#237,.T.);
#92=ORIENTED_EDGE('',*,*,#238,.F.);
#93=ORIENTED_EDGE('',*,*,#239,.F.);
#94=ORIENTED_EDGE('',*,*,#240,.T.);
#95=ORIENTED_EDGE('',*,*,#241,.T.);
#96=ORIENTED_EDGE('',*,*,#242,.T.);
#97=ORIENTED_EDGE('',*,*,#243,.T.);
#98=ORIENTED_EDGE('',*,*,#244,.T.);
#99=ORIENTED_EDGE('',*,*,#245,.F.);
#100=ORIENTED_EDGE('',*,*,#246,.T.);
#101=ORIENTED_EDGE('',*,*,#247,.T.);
#102=ORIENTED_EDGE('',*,*,#248,.F.);
#103=ORIENTED_EDGE('',*,*,#249,.F.);
#104=ORIENTED_EDGE('',*,*,#250,.T.);
#105=ORIENTED_EDGE('',*,*,#251,.T.);
#106=ORIENTED_EDGE('',*,*,#252,.T.);
#107=ORIENTED_EDGE('',*,*,#253,.T.);
#108=ORIENTED_EDGE('',*,*,#254,.T.);
#109=ORIENTED_EDGE('',*,*,#255,.F.);
#110=ORIENTED_EDGE('',*,*,#256,.T.);
#111=ORIENTED_EDGE('',*,*,#257,.T.);
#112=ORIENTED_EDGE('',*,*,#258,.F.);
#113=ORIENTED_EDGE('',*,*,#259,.F.);
#114=ORIENTED_EDGE('',*,*,#260,.T.);
#115=ORIENTED_EDGE('',*,*,#261,.T.);
#116=ORIENTED_EDGE('',*,*,#262,.T.);
#117=ORIENTED_EDGE('',*,*,#263,.T.);
#118=ORIENTED_EDGE('',*,*,#264,.T.);
#119=ORIENTED_EDGE('',*,*,#265,.F.);
#120=ORIENTED_EDGE('',*,*,#266,.T.);
#121=ORIENTED_EDGE('',*,*,#267,.T.);
#122=ORIENTED_EDGE('',*,*,#237,.F.);
#123=ORIENTED_EDGE('',*,*,#235,.F.);
#124=ORIENTED_EDGE('',*,*,#258,.T.);
#125=ORIENTED_EDGE('',*,*,#247,.F.);
#126=ORIENTED_EDGE('',*,*,#248,.T.);
#127=ORIENTED_EDGE('',*,*,#238,.T.);
#128=ORIENTED_EDGE('',*,*,#257,.F.);
#129=ORIENTED_EDGE('',*,*,#236,.F.);
#130=ORIENTED_EDGE('',*,*,#267,.F.);
#131=ORIENTED_EDGE('',*,*,#265,.T.);
#132=ORIENTED_EDGE('',*,*,#268,.T.);
#133=ORIENTED_EDGE('',*,*,#243,.F.);
#134=ORIENTED_EDGE('',*,*,#269,.T.);
#135=ORIENTED_EDGE('',*,*,#245,.T.);
#136=ORIENTED_EDGE('',*,*,#270,.T.);
#137=ORIENTED_EDGE('',*,*,#263,.F.);
#138=ORIENTED_EDGE('',*,*,#271,.T.);
#139=ORIENTED_EDGE('',*,*,#239,.T.);
#140=ORIENTED_EDGE('',*,*,#272,.T.);
#141=ORIENTED_EDGE('',*,*,#261,.F.);
#142=ORIENTED_EDGE('',*,*,#273,.T.);
#143=ORIENTED_EDGE('',*,*,#259,.T.);
#144=ORIENTED_EDGE('',*,*,#274,.T.);
#145=ORIENTED_EDGE('',*,*,#241,.F.);
#146=ORIENTED_EDGE('',*,*,#275,.T.);
#147=ORIENTED_EDGE('',*,*,#276,.T.);
#148=ORIENTED_EDGE('',*,*,#277,.T.);
#149=ORIENTED_EDGE('',*,*,#278,.T.);
#150=ORIENTED_EDGE('',*,*,#251,.F.);
#151=ORIENTED_EDGE('',*,*,#279,.T.);
#152=ORIENTED_EDGE('',*,*,#280,.T.);
#153=ORIENTED_EDGE('',*,*,#281,.T.);
#154=ORIENTED_EDGE('',*,*,#249,.T.);
#155=ORIENTED_EDGE('',*,*,#282,.T.);
#156=ORIENTED_EDGE('',*,*,#283,.T.);
#157=ORIENTED_EDGE('',*,*,#284,.T.);
#158=ORIENTED_EDGE('',*,*,#255,.T.);
#159=ORIENTED_EDGE('',*,*,#285,.T.);
#160=ORIENTED_EDGE('',*,*,#286,.T.);
#161=ORIENTED_EDGE('',*,*,#287,.T.);
#162=ORIENTED_EDGE('',*,*,#253,.F.);
#163=ORIENTED_EDGE('',*,*,#287,.F.);
#164=ORIENTED_EDGE('',*,*,#288,.T.);
#165=ORIENTED_EDGE('',*,*,#282,.F.);
#166=ORIENTED_EDGE('',*,*,#254,.F.);
#167=ORIENTED_EDGE('',*,*,#264,.F.);
#168=ORIENTED_EDGE('',*,*,#270,.F.);
#169=ORIENTED_EDGE('',*,*,#244,.F.);
#170=ORIENTED_EDGE('',*,*,#268,.F.);
#171=ORIENTED_EDGE('',*,*,#278,.F.);
#172=ORIENTED_EDGE('',*,*,#289,.T.);
#173=ORIENTED_EDGE('',*,*,#285,.F.);
#174=ORIENTED_EDGE('',*,*,#252,.F.);
#175=ORIENTED_EDGE('',*,*,#266,.F.);
#176=ORIENTED_EDGE('',*,*,#269,.F.);
#177=ORIENTED_EDGE('',*,*,#242,.F.);
#178=ORIENTED_EDGE('',*,*,#274,.F.);
#179=ORIENTED_EDGE('',*,*,#284,.F.);
#180=ORIENTED_EDGE('',*,*,#290,.T.);
#181=ORIENTED_EDGE('',*,*,#279,.F.);
#182=ORIENTED_EDGE('',*,*,#256,.F.);
#183=ORIENTED_EDGE('',*,*,#262,.F.);
#184=ORIENTED_EDGE('',*,*,#272,.F.);
#185=ORIENTED_EDGE('',*,*,#246,.F.);
#186=ORIENTED_EDGE('',*,*,#271,.F.);
#187=ORIENTED_EDGE('',*,*,#281,.F.);
#188=ORIENTED_EDGE('',*,*,#291,.T.);
#189=ORIENTED_EDGE('',*,*,#276,.F.);
#190=ORIENTED_EDGE('',*,*,#250,.F.);
#191=ORIENTED_EDGE('',*,*,#260,.F.);
#192=ORIENTED_EDGE('',*,*,#275,.F.);
#193=ORIENTED_EDGE('',*,*,#240,.F.);
#194=ORIENTED_EDGE('',*,*,#273,.F.);
#195=ORIENTED_EDGE('',*,*,#292,.F.);
#196=ORIENTED_EDGE('',*,*,#277,.F.);
#197=ORIENTED_EDGE('',*,*,#293,.F.);
#198=ORIENTED_EDGE('',*,*,#232,.F.);
#199=ORIENTED_EDGE('',*,*,#293,.T.);
#200=ORIENTED_EDGE('',*,*,#291,.F.);
#201=ORIENTED_EDGE('',*,*,#294,.F.);
#202=ORIENTED_EDGE('',*,*,#233,.F.);
#203=ORIENTED_EDGE('',*,*,#292,.T.);
#204=ORIENTED_EDGE('',*,*,#231,.F.);
#205=ORIENTED_EDGE('',*,*,#295,.F.);
#206=ORIENTED_EDGE('',*,*,#289,.F.);
#207=ORIENTED_EDGE('',*,*,#294,.T.);
#208=ORIENTED_EDGE('',*,*,#280,.F.);
#209=ORIENTED_EDGE('',*,*,#296,.F.);
#210=ORIENTED_EDGE('',*,*,#234,.F.);
#211=ORIENTED_EDGE('',*,*,#295,.T.);
#212=ORIENTED_EDGE('',*,*,#230,.F.);
#213=ORIENTED_EDGE('',*,*,#297,.F.);
#214=ORIENTED_EDGE('',*,*,#286,.F.);
#215=ORIENTED_EDGE('',*,*,#296,.T.);
#216=ORIENTED_EDGE('',*,*,#290,.F.);
#217=ORIENTED_EDGE('',*,*,#298,.F.);
#218=ORIENTED_EDGE('',*,*,#227,.F.);
#219=ORIENTED_EDGE('',*,*,#297,.T.);
#220=ORIENTED_EDGE('',*,*,#229,.F.);
#221=ORIENTED_EDGE('',*,*,#299,.F.);
#222=ORIENTED_EDGE('',*,*,#288,.F.);
#223=ORIENTED_EDGE('',*,*,#298,.T.);
#224=ORIENTED_EDGE('',*,*,#283,.F.);
#225=ORIENTED_EDGE('',*,*,#299,.T.);
#226=ORIENTED_EDGE('',*,*,#228,.F.);
#227=EDGE_CURVE('',#300,#301,#349,.T.);
#228=EDGE_CURVE('',#301,#302,#61,.F.);
#229=EDGE_CURVE('',#302,#303,#350,.T.);
#230=EDGE_CURVE('',#303,#304,#42,.F.);
#231=EDGE_CURVE('',#304,#305,#351,.T.);
#232=EDGE_CURVE('',#305,#306,#62,.T.);
#233=EDGE_CURVE('',#306,#307,#352,.T.);
#234=EDGE_CURVE('',#307,#300,#43,.T.);
#235=EDGE_CURVE('',#308,#308,#44,.T.);
#236=EDGE_CURVE('',#309,#309,#45,.F.);
#237=EDGE_CURVE('',#310,#310,#46,.T.);
#238=EDGE_CURVE('',#311,#311,#47,.T.);
#239=EDGE_CURVE('',#312,#313,#48,.T.);
#240=EDGE_CURVE('',#312,#314,#353,.T.);
#241=EDGE_CURVE('',#314,#315,#63,.F.);
#242=EDGE_CURVE('',#315,#316,#354,.T.);
#243=EDGE_CURVE('',#316,#317,#49,.T.);
#244=EDGE_CURVE('',#317,#318,#355,.T.);
#245=EDGE_CURVE('',#319,#318,#64,.F.);
#246=EDGE_CURVE('',#319,#313,#356,.T.);
#247=EDGE_CURVE('',#320,#320,#50,.T.);
#248=EDGE_CURVE('',#321,#321,#51,.T.);
#249=EDGE_CURVE('',#322,#323,#52,.T.);
#250=EDGE_CURVE('',#322,#324,#357,.T.);
#251=EDGE_CURVE('',#324,#325,#65,.F.);
#252=EDGE_CURVE('',#325,#326,#358,.T.);
#253=EDGE_CURVE('',#326,#327,#53,.T.);
#254=EDGE_CURVE('',#327,#328,#359,.T.);
#255=EDGE_CURVE('',#329,#328,#66,.F.);
#256=EDGE_CURVE('',#329,#323,#360,.T.);
#257=EDGE_CURVE('',#330,#330,#54,.T.);
#258=EDGE_CURVE('',#331,#331,#55,.T.);
#259=EDGE_CURVE('',#332,#333,#67,.F.);
#260=EDGE_CURVE('',#332,#334,#361,.T.);
#261=EDGE_CURVE('',#334,#335,#56,.T.);
#262=EDGE_CURVE('',#335,#336,#362,.T.);
#263=EDGE_CURVE('',#336,#337,#68,.F.);
#264=EDGE_CURVE('',#337,#338,#363,.T.);
#265=EDGE_CURVE('',#339,#338,#57,.T.);
#266=EDGE_CURVE('',#339,#333,#364,.T.);
#267=EDGE_CURVE('',#340,#340,#58,.T.);
#268=EDGE_CURVE('',#338,#317,#365,.T.);
#269=EDGE_CURVE('',#316,#339,#366,.T.);
#270=EDGE_CURVE('',#318,#337,#367,.T.);
#271=EDGE_CURVE('',#336,#319,#368,.T.);
#272=EDGE_CURVE('',#313,#335,#369,.T.);
#273=EDGE_CURVE('',#334,#312,#370,.T.);
#274=EDGE_CURVE('',#333,#315,#371,.T.);
#275=EDGE_CURVE('',#314,#332,#372,.T.);
#276=EDGE_CURVE('',#324,#341,#373,.T.);
#277=EDGE_CURVE('',#341,#342,#69,.T.);
#278=EDGE_CURVE('',#342,#325,#374,.T.);
#279=EDGE_CURVE('',#323,#343,#375,.T.);
#280=EDGE_CURVE('',#343,#344,#59,.F.);
#281=EDGE_CURVE('',#344,#322,#376,.T.);
#282=EDGE_CURVE('',#328,#345,#377,.T.);
#283=EDGE_CURVE('',#345,#346,#70,.T.);
#284=EDGE_CURVE('',#346,#329,#378,.T.);
#285=EDGE_CURVE('',#326,#347,#379,.T.);
#286=EDGE_CURVE('',#347,#348,#60,.T.);
#287=EDGE_CURVE('',#348,#327,#380,.T.);
#288=EDGE_CURVE('',#348,#345,#381,.T.);
#289=EDGE_CURVE('',#342,#347,#382,.T.);
#290=EDGE_CURVE('',#346,#343,#383,.T.);
#291=EDGE_CURVE('',#344,#341,#384,.T.);
#292=EDGE_CURVE('',#342,#305,#385,.F.);
#293=EDGE_CURVE('',#306,#341,#386,.F.);
#294=EDGE_CURVE('',#307,#344,#387,.T.);
#295=EDGE_CURVE('',#347,#304,#388,.T.);
#296=EDGE_CURVE('',#300,#343,#389,.F.);
#297=EDGE_CURVE('',#348,#303,#390,.F.);
#298=EDGE_CURVE('',#301,#346,#391,.T.);
#299=EDGE_CURVE('',#345,#302,#392,.T.);
#300=VERTEX_POINT('',#680);
#301=VERTEX_POINT('',#681);
#302=VERTEX_POINT('',#683);
#303=VERTEX_POINT('',#691);
#304=VERTEX_POINT('',#693);
#305=VERTEX_POINT('',#701);
#306=VERTEX_POINT('',#703);
#307=VERTEX_POINT('',#711);
#308=VERTEX_POINT('',#714);
#309=VERTEX_POINT('',#716);
#310=VERTEX_POINT('',#719);
#311=VERTEX_POINT('',#721);
#312=VERTEX_POINT('',#723);
#313=VERTEX_POINT('',#724);
#314=VERTEX_POINT('',#732);
#315=VERTEX_POINT('',#734);
#316=VERTEX_POINT('',#742);
#317=VERTEX_POINT('',#744);
#318=VERTEX_POINT('',#752);
#319=VERTEX_POINT('',#754);
#320=VERTEX_POINT('',#764);
#321=VERTEX_POINT('',#766);
#322=VERTEX_POINT('',#768);
#323=VERTEX_POINT('',#769);
#324=VERTEX_POINT('',#777);
#325=VERTEX_POINT('',#779);
#326=VERTEX_POINT('',#787);
#327=VERTEX_POINT('',#789);
#328=VERTEX_POINT('',#797);
#329=VERTEX_POINT('',#799);
#330=VERTEX_POINT('',#809);
#331=VERTEX_POINT('',#811);
#332=VERTEX_POINT('',#813);
#333=VERTEX_POINT('',#814);
#334=VERTEX_POINT('',#822);
#335=VERTEX_POINT('',#824);
#336=VERTEX_POINT('',#832);
#337=VERTEX_POINT('',#834);
#338=VERTEX_POINT('',#842);
#339=VERTEX_POINT('',#844);
#340=VERTEX_POINT('',#854);
#341=VERTEX_POINT('',#901);
#342=VERTEX_POINT('',#903);
#343=VERTEX_POINT('',#913);
#344=VERTEX_POINT('',#915);
#345=VERTEX_POINT('',#925);
#346=VERTEX_POINT('',#927);
#347=VERTEX_POINT('',#937);
#348=VERTEX_POINT('',#939);
#349=B_SPLINE_CURVE_WITH_KNOTS('',3,(#673,#674,#675,#676,#677,#678,#679),
 .UNSPECIFIED.,.F.,.F.,(4,1,1,1,4),(0.,0.25,0.5,0.75,1.),.UNSPECIFIED.);
#350=B_SPLINE_CURVE_WITH_KNOTS('',3,(#684,#685,#686,#687,#688,#689,#690),
 .UNSPECIFIED.,.F.,.F.,(4,1,1,1,4),(0.,0.25,0.5,0.75,1.),.UNSPECIFIED.);
#351=B_SPLINE_CURVE_WITH_KNOTS('',3,(#694,#695,#696,#697,#698,#699,#700),
 .UNSPECIFIED.,.F.,.F.,(4,1,1,1,4),(0.,0.25,0.5,0.75,1.),.UNSPECIFIED.);
#352=B_SPLINE_CURVE_WITH_KNOTS('',3,(#704,#705,#706,#707,#708,#709,#710),
 .UNSPECIFIED.,.F.,.F.,(4,1,1,1,4),(0.,0.25,0.5,0.75,1.),.UNSPECIFIED.);
#353=B_SPLINE_CURVE_WITH_KNOTS('',3,(#725,#726,#727,#728,#729,#730,#731),
 .UNSPECIFIED.,.F.,.F.,(4,1,1,1,4),(0.,0.00160614553983468,0.00321229107966936,
0.00481843661950404,0.00642458215933872),.UNSPECIFIED.);
#354=B_SPLINE_CURVE_WITH_KNOTS('',3,(#735,#736,#737,#738,#739,#740,#741),
 .UNSPECIFIED.,.F.,.F.,(4,1,1,1,4),(0.,0.00160634064868377,0.00321268129736754,
0.00481902194605131,0.00642536259473509),.UNSPECIFIED.);
#355=B_SPLINE_CURVE_WITH_KNOTS('',3,(#745,#746,#747,#748,#749,#750,#751),
 .UNSPECIFIED.,.F.,.F.,(4,1,1,1,4),(0.,0.00160614553983468,0.00321229107966935,
0.00481843661950403,0.00642458215933871),.UNSPECIFIED.);
#356=B_SPLINE_CURVE_WITH_KNOTS('',3,(#755,#756,#757,#758,#759,#760,#761),
 .UNSPECIFIED.,.F.,.F.,(4,1,1,1,4),(0.,0.00160634064868378,0.00321268129736756,
0.00481902194605134,0.00642536259473513),.UNSPECIFIED.);
#357=B_SPLINE_CURVE_WITH_KNOTS('',3,(#770,#771,#772,#773,#774,#775,#776),
 .UNSPECIFIED.,.F.,.F.,(4,1,1,1,4),(0.,0.00160406548210582,0.00320813096421163,
0.00481219644631745,0.00641626192842326),.UNSPECIFIED.);
#358=B_SPLINE_CURVE_WITH_KNOTS('',3,(#780,#781,#782,#783,#784,#785,#786),
 .UNSPECIFIED.,.F.,.F.,(4,1,1,1,4),(0.,0.0016041944747231,0.00320838894944621,
0.00481258342416931,0.00641677789889241),.UNSPECIFIED.);
#359=B_SPLINE_CURVE_WITH_KNOTS('',3,(#790,#791,#792,#793,#794,#795,#796),
 .UNSPECIFIED.,.F.,.F.,(4,1,1,1,4),(0.,0.00160406548210582,0.00320813096421164,
0.00481219644631745,0.00641626192842327),.UNSPECIFIED.);
#360=B_SPLINE_CURVE_WITH_KNOTS('',3,(#800,#801,#802,#803,#804,#805,#806),
 .UNSPECIFIED.,.F.,.F.,(4,1,1,1,4),(0.,0.00160419447472311,0.00320838894944621,
0.00481258342416932,0.00641677789889243),.UNSPECIFIED.);
#361=B_SPLINE_CURVE_WITH_KNOTS('',3,(#815,#816,#817,#818,#819,#820,#821),
 .UNSPECIFIED.,.F.,.F.,(4,1,1,1,4),(0.,0.00160594593472797,0.00321189186945595,
0.00481783780418392,0.00642378373891189),.UNSPECIFIED.);
#362=B_SPLINE_CURVE_WITH_KNOTS('',3,(#825,#826,#827,#828,#829,#830,#831),
 .UNSPECIFIED.,.F.,.F.,(4,1,1,1,4),(0.,0.00160576557917324,0.00321153115834648,
0.00481729673751972,0.00642306231669296),.UNSPECIFIED.);
#363=B_SPLINE_CURVE_WITH_KNOTS('',3,(#835,#836,#837,#838,#839,#840,#841),
 .UNSPECIFIED.,.F.,.F.,(4,1,1,1,4),(0.,0.00160594593472797,0.00321189186945593,
0.0048178378041839,0.00642378373891187),.UNSPECIFIED.);
#364=B_SPLINE_CURVE_WITH_KNOTS('',3,(#845,#846,#847,#848,#849,#850,#851),
 .UNSPECIFIED.,.F.,.F.,(4,1,1,1,4),(0.,0.00160576557917325,0.00321153115834649,
0.00481729673751974,0.00642306231669298),.UNSPECIFIED.);
#365=B_SPLINE_CURVE_WITH_KNOTS('',3,(#861,#862,#863,#864),.UNSPECIFIED.,
 .F.,.F.,(4,4),(0.,1.),.UNSPECIFIED.);
#366=B_SPLINE_CURVE_WITH_KNOTS('',3,(#865,#866,#867,#868),.UNSPECIFIED.,
 .F.,.F.,(4,4),(0.,1.),.UNSPECIFIED.);
#367=B_SPLINE_CURVE_WITH_KNOTS('',3,(#870,#871,#872,#873),.UNSPECIFIED.,
 .F.,.F.,(4,4),(0.,1.),.UNSPECIFIED.);
#368=B_SPLINE_CURVE_WITH_KNOTS('',3,(#874,#875,#876,#877),.UNSPECIFIED.,
 .F.,.F.,(4,4),(0.,1.),.UNSPECIFIED.);
#369=B_SPLINE_CURVE_WITH_KNOTS('',3,(#879,#880,#881,#882),.UNSPECIFIED.,
 .F.,.F.,(4,4),(0.,1.),.UNSPECIFIED.);
#370=B_SPLINE_CURVE_WITH_KNOTS('',3,(#883,#884,#885,#886),.UNSPECIFIED.,
 .F.,.F.,(4,4),(0.,1.),.UNSPECIFIED.);
#371=B_SPLINE_CURVE_WITH_KNOTS('',3,(#888,#889,#890,#891),.UNSPECIFIED.,
 .F.,.F.,(4,4),(0.,1.),.UNSPECIFIED.);
#372=B_SPLINE_CURVE_WITH_KNOTS('',3,(#892,#893,#894,#895),.UNSPECIFIED.,
 .F.,.F.,(4,4),(0.,1.),.UNSPECIFIED.);
#373=B_SPLINE_CURVE_WITH_KNOTS('',3,(#897,#898,#899,#900),.UNSPECIFIED.,
 .F.,.F.,(4,4),(0.,0.0164406347774081),.UNSPECIFIED.);
#374=B_SPLINE_CURVE_WITH_KNOTS('',3,(#904,#905,#906,#907),.UNSPECIFIED.,
 .F.,.F.,(4,4),(0.983559365222545,1.),.UNSPECIFIED.);
#375=B_SPLINE_CURVE_WITH_KNOTS('',3,(#909,#910,#911,#912),.UNSPECIFIED.,
 .F.,.F.,(4,4),(0.,0.149485797088545),.UNSPECIFIED.);
#376=B_SPLINE_CURVE_WITH_KNOTS('',3,(#916,#917,#918,#919),.UNSPECIFIED.,
 .F.,.F.,(4,4),(0.85051420291152,1.),.UNSPECIFIED.);
#377=B_SPLINE_CURVE_WITH_KNOTS('',3,(#921,#922,#923,#924),.UNSPECIFIED.,
 .F.,.F.,(4,4),(0.,0.0164406347774081),.UNSPECIFIED.);
#378=B_SPLINE_CURVE_WITH_KNOTS('',3,(#928,#929,#930,#931),.UNSPECIFIED.,
 .F.,.F.,(4,4),(0.983559365222545,1.),.UNSPECIFIED.);
#379=B_SPLINE_CURVE_WITH_KNOTS('',3,(#933,#934,#935,#936),.UNSPECIFIED.,
 .F.,.F.,(4,4),(0.,0.149485797088545),.UNSPECIFIED.);
#380=B_SPLINE_CURVE_WITH_KNOTS('',3,(#940,#941,#942,#943),.UNSPECIFIED.,
 .F.,.F.,(4,4),(0.85051420291152,1.),.UNSPECIFIED.);
#381=B_SPLINE_CURVE_WITH_KNOTS('',3,(#952,#953,#954,#955,#956,#957,#958,
#959,#960,#961,#962,#963,#964,#965,#966,#967,#968,#969),.UNSPECIFIED.,.F.,
 .F.,(4,1,1,1,1,1,1,1,1,1,1,1,1,1,1,4),(0.,0.125,0.1875,0.21875,0.25,0.28125,
0.3125,0.375,0.4375,0.46875,0.5,0.53125,0.5625,0.625,0.75,1.),
 .UNSPECIFIED.);
#382=B_SPLINE_CURVE_WITH_KNOTS('',3,(#986,#987,#988,#989,#990,#991,#992,
#993,#994,#995,#996,#997,#998,#999,#1000,#1001,#1002,#1003),
 .UNSPECIFIED.,.F.,.F.,(4,1,1,1,1,1,1,1,1,1,1,1,1,1,1,4),(0.,0.25,0.375,
0.4375,0.46875,0.5,0.53125,0.5625,0.625,0.6875,0.71875,0.75,0.78125,0.8125,
0.875,1.),.UNSPECIFIED.);
#383=B_SPLINE_CURVE_WITH_KNOTS('',3,(#1020,#1021,#1022,#1023,#1024,#1025,
#1026,#1027,#1028,#1029,#1030,#1031,#1032,#1033,#1034,#1035,#1036,#1037),
 .UNSPECIFIED.,.F.,.F.,(4,1,1,1,1,1,1,1,1,1,1,1,1,1,1,4),(0.,0.25,0.375,
0.4375,0.46875,0.5,0.53125,0.5625,0.625,0.6875,0.71875,0.75,0.78125,0.8125,
0.875,1.),.UNSPECIFIED.);
#384=B_SPLINE_CURVE_WITH_KNOTS('',3,(#1054,#1055,#1056,#1057,#1058,#1059,
#1060,#1061,#1062,#1063,#1064,#1065,#1066,#1067,#1068,#1069,#1070,#1071),
 .UNSPECIFIED.,.F.,.F.,(4,1,1,1,1,1,1,1,1,1,1,1,1,1,1,4),(0.,0.125,0.1875,
0.21875,0.25,0.28125,0.3125,0.375,0.4375,0.46875,0.5,0.53125,0.5625,0.625,
0.75,1.),.UNSPECIFIED.);
#385=B_SPLINE_CURVE_WITH_KNOTS('',3,(#1081,#1082,#1083,#1084),
 .UNSPECIFIED.,.F.,.F.,(4,4),(0.,1.),.UNSPECIFIED.);
#386=B_SPLINE_CURVE_WITH_KNOTS('',3,(#1085,#1086,#1087,#1088),
 .UNSPECIFIED.,.F.,.F.,(4,4),(0.,1.),.UNSPECIFIED.);
#387=B_SPLINE_CURVE_WITH_KNOTS('',3,(#1109,#1110,#1111,#1112),
 .UNSPECIFIED.,.F.,.F.,(4,4),(0.,1.),.UNSPECIFIED.);
#388=B_SPLINE_CURVE_WITH_KNOTS('',3,(#1133,#1134,#1135,#1136),
 .UNSPECIFIED.,.F.,.F.,(4,4),(0.,1.),.UNSPECIFIED.);
#389=B_SPLINE_CURVE_WITH_KNOTS('',3,(#1138,#1139,#1140,#1141),
 .UNSPECIFIED.,.F.,.F.,(4,4),(0.,1.),.UNSPECIFIED.);
#390=B_SPLINE_CURVE_WITH_KNOTS('',3,(#1143,#1144,#1145,#1146),
 .UNSPECIFIED.,.F.,.F.,(4,4),(0.,1.),.UNSPECIFIED.);
#391=B_SPLINE_CURVE_WITH_KNOTS('',3,(#1167,#1168,#1169,#1170),
 .UNSPECIFIED.,.F.,.F.,(4,4),(0.,1.),.UNSPECIFIED.);
#392=B_SPLINE_CURVE_WITH_KNOTS('',3,(#1191,#1192,#1193,#1194),
 .UNSPECIFIED.,.F.,.F.,(4,4),(0.,1.),.UNSPECIFIED.);
#393=EDGE_LOOP('',(#81,#82,#83,#84,#85,#86,#87,#88));
#394=EDGE_LOOP('',(#89));
#395=EDGE_LOOP('',(#90));
#396=EDGE_LOOP('',(#91));
#397=EDGE_LOOP('',(#92));
#398=EDGE_LOOP('',(#93,#94,#95,#96,#97,#98,#99,#100));
#399=EDGE_LOOP('',(#101));
#400=EDGE_LOOP('',(#102));
#401=EDGE_LOOP('',(#103,#104,#105,#106,#107,#108,#109,#110));
#402=EDGE_LOOP('',(#111));
#403=EDGE_LOOP('',(#112));
#404=EDGE_LOOP('',(#113,#114,#115,#116,#117,#118,#119,#120));
#405=EDGE_LOOP('',(#121));
#406=EDGE_LOOP('',(#122));
#407=EDGE_LOOP('',(#123));
#408=EDGE_LOOP('',(#124));
#409=EDGE_LOOP('',(#125));
#410=EDGE_LOOP('',(#126));
#411=EDGE_LOOP('',(#127));
#412=EDGE_LOOP('',(#128));
#413=EDGE_LOOP('',(#129));
#414=EDGE_LOOP('',(#130));
#415=EDGE_LOOP('',(#131,#132,#133,#134));
#416=EDGE_LOOP('',(#135,#136,#137,#138));
#417=EDGE_LOOP('',(#139,#140,#141,#142));
#418=EDGE_LOOP('',(#143,#144,#145,#146));
#419=EDGE_LOOP('',(#147,#148,#149,#150));
#420=EDGE_LOOP('',(#151,#152,#153,#154));
#421=EDGE_LOOP('',(#155,#156,#157,#158));
#422=EDGE_LOOP('',(#159,#160,#161,#162));
#423=EDGE_LOOP('',(#163,#164,#165,#166));
#424=EDGE_LOOP('',(#167,#168,#169,#170));
#425=EDGE_LOOP('',(#171,#172,#173,#174));
#426=EDGE_LOOP('',(#175,#176,#177,#178));
#427=EDGE_LOOP('',(#179,#180,#181,#182));
#428=EDGE_LOOP('',(#183,#184,#185,#186));
#429=EDGE_LOOP('',(#187,#188,#189,#190));
#430=EDGE_LOOP('',(#191,#192,#193,#194));
#431=EDGE_LOOP('',(#195,#196,#197,#198));
#432=EDGE_LOOP('',(#199,#200,#201,#202));
#433=EDGE_LOOP('',(#203,#204,#205,#206));
#434=EDGE_LOOP('',(#207,#208,#209,#210));
#435=EDGE_LOOP('',(#211,#212,#213,#214));
#436=EDGE_LOOP('',(#215,#216,#217,#218));
#437=EDGE_LOOP('',(#219,#220,#221,#222));
#438=EDGE_LOOP('',(#223,#224,#225,#226));
#439=FACE_BOUND('',#393,.T.);
#440=FACE_BOUND('',#394,.T.);
#441=FACE_BOUND('',#395,.T.);
#442=FACE_BOUND('',#396,.T.);
#443=FACE_BOUND('',#397,.T.);
#444=FACE_BOUND('',#398,.T.);
#445=FACE_BOUND('',#399,.T.);
#446=FACE_BOUND('',#400,.T.);
#447=FACE_BOUND('',#401,.T.);
#448=FACE_BOUND('',#402,.T.);
#449=FACE_BOUND('',#403,.T.);
#450=FACE_BOUND('',#404,.T.);
#451=FACE_BOUND('',#405,.T.);
#452=FACE_BOUND('',#406,.T.);
#453=FACE_BOUND('',#407,.T.);
#454=FACE_BOUND('',#408,.T.);
#455=FACE_BOUND('',#409,.T.);
#456=FACE_BOUND('',#410,.T.);
#457=FACE_BOUND('',#411,.T.);
#458=FACE_BOUND('',#412,.T.);
#459=FACE_BOUND('',#413,.T.);
#460=FACE_BOUND('',#414,.T.);
#461=FACE_BOUND('',#415,.T.);
#462=FACE_BOUND('',#416,.T.);
#463=FACE_BOUND('',#417,.T.);
#464=FACE_BOUND('',#418,.T.);
#465=FACE_BOUND('',#419,.T.);
#466=FACE_BOUND('',#420,.T.);
#467=FACE_BOUND('',#421,.T.);
#468=FACE_BOUND('',#422,.T.);
#469=FACE_BOUND('',#423,.T.);
#470=FACE_BOUND('',#424,.T.);
#471=FACE_BOUND('',#425,.T.);
#472=FACE_BOUND('',#426,.T.);
#473=FACE_BOUND('',#427,.T.);
#474=FACE_BOUND('',#428,.T.);
#475=FACE_BOUND('',#429,.T.);
#476=FACE_BOUND('',#430,.T.);
#477=FACE_BOUND('',#431,.T.);
#478=FACE_BOUND('',#432,.T.);
#479=FACE_BOUND('',#433,.T.);
#480=FACE_BOUND('',#434,.T.);
#481=FACE_BOUND('',#435,.T.);
#482=FACE_BOUND('',#436,.T.);
#483=FACE_BOUND('',#437,.T.);
#484=FACE_BOUND('',#438,.T.);
#485=CYLINDRICAL_SURFACE('',#536,0.06);
#486=CYLINDRICAL_SURFACE('',#541,0.0496);
#487=CYLINDRICAL_SURFACE('',#546,0.058);
#488=CYLINDRICAL_SURFACE('',#551,0.0516);
#489=ADVANCED_FACE('',(#439,#440,#441),#485,.T.);
#490=ADVANCED_FACE('',(#442,#443,#444),#486,.F.);
#491=ADVANCED_FACE('',(#445,#446,#447),#487,.F.);
#492=ADVANCED_FACE('',(#448,#449,#450),#488,.T.);
#493=ADVANCED_FACE('',(#451,#452),#27,.T.);
#494=ADVANCED_FACE('',(#453),#28,.F.);
#495=ADVANCED_FACE('',(#454,#455),#29,.F.);
#496=ADVANCED_FACE('',(#456),#30,.T.);
#497=ADVANCED_FACE('',(#457,#458),#31,.F.);
#498=ADVANCED_FACE('',(#459,#460),#24,.T.);
#499=ADVANCED_FACE('',(#461),#32,.T.);
#500=ADVANCED_FACE('',(#462),#33,.F.);
#501=ADVANCED_FACE('',(#463),#34,.F.);
#502=ADVANCED_FACE('',(#464),#35,.T.);
#503=ADVANCED_FACE('',(#465),#36,.T.);
#504=ADVANCED_FACE('',(#466),#37,.F.);
#505=ADVANCED_FACE('',(#467),#38,.F.);
#506=ADVANCED_FACE('',(#468),#39,.T.);
#507=ADVANCED_FACE('',(#469),#12,.F.);
#508=ADVANCED_FACE('',(#470),#13,.F.);
#509=ADVANCED_FACE('',(#471),#14,.F.);
#510=ADVANCED_FACE('',(#472),#15,.F.);
#511=ADVANCED_FACE('',(#473),#16,.F.);
#512=ADVANCED_FACE('',(#474),#17,.F.);
#513=ADVANCED_FACE('',(#475),#18,.F.);
#514=ADVANCED_FACE('',(#476),#19,.F.);
#515=ADVANCED_FACE('',(#477),#40,.T.);
#516=ADVANCED_FACE('',(#478),#20,.T.);
#517=ADVANCED_FACE('',(#479),#21,.T.);
#518=ADVANCED_FACE('',(#480),#25,.T.);
#519=ADVANCED_FACE('',(#481),#26,.T.);
#520=ADVANCED_FACE('',(#482),#22,.T.);
#521=ADVANCED_FACE('',(#483),#23,.T.);
#522=ADVANCED_FACE('',(#484),#41,.T.);
#523=CLOSED_SHELL('',(#489,#490,#491,#492,#493,#494,#495,#496,#497,#498,
#499,#500,#501,#502,#503,#504,#505,#506,#507,#508,#509,#510,#511,#512,#513,
#514,#515,#516,#517,#518,#519,#520,#521,#522));
#524=STYLED_ITEM('',(#525),#532);
#525=PRESENTATION_STYLE_ASSIGNMENT((#526));
#526=SURFACE_STYLE_USAGE(.BOTH.,#527);
#527=SURFACE_SIDE_STYLE('',(#528));
#528=SURFACE_STYLE_FILL_AREA(#529);
#529=FILL_AREA_STYLE('',(#530));
#530=FILL_AREA_STYLE_COLOUR('',#531);
#531=COLOUR_RGB('',0.43921568627451,0.474509803921569,0.501960784313726);
#532=MANIFOLD_SOLID_BREP('Part 1',#523);
#533=SHAPE_DEFINITION_REPRESENTATION(#1202,#534);
#534=SHAPE_REPRESENTATION('Part 1',(#535),#1197);
#535=AXIS2_PLACEMENT_3D('',#671,#577,#578);
#536=AXIS2_PLACEMENT_3D('',#672,#579,#580);
#537=AXIS2_PLACEMENT_3D('',#692,#582,#583);
#538=AXIS2_PLACEMENT_3D('',#712,#585,#586);
#539=AXIS2_PLACEMENT_3D('',#713,#587,#588);
#540=AXIS2_PLACEMENT_3D('',#715,#589,#590);
#541=AXIS2_PLACEMENT_3D('',#717,#591,#592);
#542=AXIS2_PLACEMENT_3D('',#718,#593,#594);
#543=AXIS2_PLACEMENT_3D('',#720,#595,#596);
#544=AXIS2_PLACEMENT_3D('',#722,#597,#598);
#545=AXIS2_PLACEMENT_3D('',#743,#600,#601);
#546=AXIS2_PLACEMENT_3D('',#762,#603,#604);
#547=AXIS2_PLACEMENT_3D('',#763,#605,#606);
#548=AXIS2_PLACEMENT_3D('',#765,#607,#608);
#549=AXIS2_PLACEMENT_3D('',#767,#609,#610);
#550=AXIS2_PLACEMENT_3D('',#788,#612,#613);
#551=AXIS2_PLACEMENT_3D('',#807,#615,#616);
#552=AXIS2_PLACEMENT_3D('',#808,#617,#618);
#553=AXIS2_PLACEMENT_3D('',#810,#619,#620);
#554=AXIS2_PLACEMENT_3D('',#823,#622,#623);
#555=AXIS2_PLACEMENT_3D('',#843,#625,#626);
#556=AXIS2_PLACEMENT_3D('',#852,#627,#628);
#557=AXIS2_PLACEMENT_3D('',#853,#629,#630);
#558=AXIS2_PLACEMENT_3D('',#855,#631,#632);
#559=AXIS2_PLACEMENT_3D('',#856,#633,#634);
#560=AXIS2_PLACEMENT_3D('',#857,#635,#636);
#561=AXIS2_PLACEMENT_3D('',#858,#637,#638);
#562=AXIS2_PLACEMENT_3D('',#859,#639,#640);
#563=AXIS2_PLACEMENT_3D('',#860,#641,#642);
#564=AXIS2_PLACEMENT_3D('',#869,#643,#644);
#565=AXIS2_PLACEMENT_3D('',#878,#645,#646);
#566=AXIS2_PLACEMENT_3D('',#887,#647,#648);
#567=AXIS2_PLACEMENT_3D('',#896,#649,#650);
#568=AXIS2_PLACEMENT_3D('',#908,#652,#653);
#569=AXIS2_PLACEMENT_3D('',#914,#654,#655);
#570=AXIS2_PLACEMENT_3D('',#920,#656,#657);
#571=AXIS2_PLACEMENT_3D('',#932,#659,#660);
#572=AXIS2_PLACEMENT_3D('',#938,#661,#662);
#573=AXIS2_PLACEMENT_3D('',#1080,#663,#664);
#574=AXIS2_PLACEMENT_3D('',#1137,#665,#666);
#575=AXIS2_PLACEMENT_3D('',#1142,#667,#668);
#576=AXIS2_PLACEMENT_3D('',#1195,#669,#670);
#577=DIRECTION('',(0.,0.,1.));
#578=DIRECTION('',(1.,0.,0.));
#579=DIRECTION('',(0.,0.,-1.));
#580=DIRECTION('',(-1.,0.,0.));
#581=DIRECTION('',(0.,0.,-1.));
#582=DIRECTION('',(0.,0.,-1.));
#583=DIRECTION('',(-1.,0.,0.));
#584=DIRECTION('',(0.,0.,-1.));
#585=DIRECTION('',(0.,0.,-1.));
#586=DIRECTION('',(-1.,0.,0.));
#587=DIRECTION('',(0.,0.,1.));
#588=DIRECTION('',(1.,0.,0.));
#589=DIRECTION('',(0.,0.,1.));
#590=DIRECTION('',(1.,0.,0.));
#591=DIRECTION('',(0.,0.,-1.));
#592=DIRECTION('',(-1.,0.,0.));
#593=DIRECTION('',(0.,0.,1.));
#594=DIRECTION('',(1.,0.,0.));
#595=DIRECTION('',(0.,0.,1.));
#596=DIRECTION('',(1.,0.,0.));
#597=DIRECTION('',(0.,0.,-1.));
#598=DIRECTION('',(-1.,0.,0.));
#599=DIRECTION('',(0.,0.,-1.));
#600=DIRECTION('',(0.,0.,-1.));
#601=DIRECTION('',(-1.,0.,0.));
#602=DIRECTION('',(0.,0.,-1.));
#603=DIRECTION('',(0.,0.,-1.));
#604=DIRECTION('',(-1.,0.,0.));
#605=DIRECTION('',(0.,0.,1.));
#606=DIRECTION('',(1.,0.,0.));
#607=DIRECTION('',(0.,0.,1.));
#608=DIRECTION('',(1.,0.,0.));
#609=DIRECTION('',(0.,0.,-1.));
#610=DIRECTION('',(-1.,0.,0.));
#611=DIRECTION('',(0.,0.,-1.));
#612=DIRECTION('',(0.,0.,-1.));
#613=DIRECTION('',(-1.,0.,0.));
#614=DIRECTION('',(0.,0.,-1.));
#615=DIRECTION('',(0.,0.,-1.));
#616=DIRECTION('',(-1.,0.,0.));
#617=DIRECTION('',(0.,0.,1.));
#618=DIRECTION('',(1.,0.,0.));
#619=DIRECTION('',(0.,0.,1.));
#620=DIRECTION('',(1.,0.,0.));
#621=DIRECTION('',(0.,0.,-1.));
#622=DIRECTION('',(0.,0.,-1.));
#623=DIRECTION('',(-1.,0.,0.));
#624=DIRECTION('',(0.,0.,-1.));
#625=DIRECTION('',(0.,0.,-1.));
#626=DIRECTION('',(-1.,0.,0.));
#627=DIRECTION('',(0.,0.,1.));
#628=DIRECTION('',(1.,0.,0.));
#629=DIRECTION('',(0.,0.,1.));
#630=DIRECTION('',(1.,0.,0.));
#631=DIRECTION('',(0.,0.,1.));
#632=DIRECTION('',(1.,0.,0.));
#633=DIRECTION('',(0.,0.,1.));
#634=DIRECTION('',(1.,0.,0.));
#635=DIRECTION('',(0.,0.,1.));
#636=DIRECTION('',(1.,0.,0.));
#637=DIRECTION('',(0.,0.,1.));
#638=DIRECTION('',(1.,0.,0.));
#639=DIRECTION('',(0.,0.,-1.));
#640=DIRECTION('',(-1.,0.,0.));
#641=DIRECTION('',(0.,0.,-1.));
#642=DIRECTION('',(-1.,0.,0.));
#643=DIRECTION('',(0.,1.,0.));
#644=DIRECTION('',(0.,0.,1.));
#645=DIRECTION('',(0.,0.,-1.));
#646=DIRECTION('',(-1.,0.,0.));
#647=DIRECTION('',(0.,1.,0.));
#648=DIRECTION('',(0.,0.,1.));
#649=DIRECTION('',(0.,1.,0.));
#650=DIRECTION('',(0.,0.,1.));
#651=DIRECTION('',(-1.17161030605201E-16,0.,1.));
#652=DIRECTION('',(0.,0.,-1.));
#653=DIRECTION('',(-1.,0.,0.));
#654=DIRECTION('',(0.,0.,-1.));
#655=DIRECTION('',(-1.,0.,0.));
#656=DIRECTION('',(0.,1.,0.));
#657=DIRECTION('',(0.,0.,1.));
#658=DIRECTION('',(1.17161030605201E-16,0.,-1.));
#659=DIRECTION('',(0.,0.,-1.));
#660=DIRECTION('',(-1.,0.,0.));
#661=DIRECTION('',(0.,0.,-1.));
#662=DIRECTION('',(-1.,0.,0.));
#663=DIRECTION('',(-0.782592485159647,0.622534338146618,0.));
#664=DIRECTION('',(0.,0.,-1.));
#665=DIRECTION('',(0.,0.,-1.));
#666=DIRECTION('',(-1.,0.,0.));
#667=DIRECTION('',(0.,0.,1.));
#668=DIRECTION('',(1.,0.,0.));
#669=DIRECTION('',(-0.782592485159648,-0.622534338146616,0.));
#670=DIRECTION('',(0.,0.,-1.));
#671=CARTESIAN_POINT('',(0.,0.,0.));
#672=CARTESIAN_POINT('',(0.,3.67394039744206E-18,0.045));
#673=CARTESIAN_POINT('',(-0.059891774988279,0.00360212281208759,0.01553763671371));
#674=CARTESIAN_POINT('',(-0.0598348190030878,0.00454911857743485,0.0155385147093888));
#675=CARTESIAN_POINT('',(-0.059689540564759,0.00622873115808016,0.0157919920495644));
#676=CARTESIAN_POINT('',(-0.0594522966513206,0.00813929703205219,0.0169545547244152));
#677=CARTESIAN_POINT('',(-0.0592686445889715,0.0093497478241419,0.0188179162094533));
#678=CARTESIAN_POINT('',(-0.0592254115351946,0.00960992347762539,0.0204535990683652));
#679=CARTESIAN_POINT('',(-0.0592252719873156,0.00961078342428376,0.0213759474098682));
#680=CARTESIAN_POINT('',(-0.059891774988279,0.00360212281208759,0.01553763671371));
#681=CARTESIAN_POINT('',(-0.0592252719873156,0.00961078342428375,0.0213759474098682));
#682=CARTESIAN_POINT('',(-0.0592252719873156,0.00961078342428376,0.045));
#683=CARTESIAN_POINT('',(-0.0592252719873156,0.00961078342428374,0.0233759474098682));
#684=CARTESIAN_POINT('',(-0.0592252719873156,0.00961078342428376,0.0233759474098682));
#685=CARTESIAN_POINT('',(-0.059225417233651,0.00960988836158826,0.0242970717474311));
#686=CARTESIAN_POINT('',(-0.0592686190067086,0.00934989858246557,0.0259311345615049));
#687=CARTESIAN_POINT('',(-0.0594520816122862,0.00814072704603308,0.027795954784475));
#688=CARTESIAN_POINT('',(-0.0596892238504428,0.00623177172892218,0.028959650254258));
#689=CARTESIAN_POINT('',(-0.0598347398023328,0.00455043543253379,0.0292133654884109));
#690=CARTESIAN_POINT('',(-0.059891774988279,0.00360212281208759,0.0292142581060265));
#691=CARTESIAN_POINT('',(-0.059891774988279,0.00360212281208759,0.0292142581060265));
#692=CARTESIAN_POINT('',(0.,3.67394039744206E-18,0.0292142581060265));
#693=CARTESIAN_POINT('',(-0.059891774988279,-0.0036021228120876,0.0292142581060265));
#694=CARTESIAN_POINT('',(-0.059891774988279,-0.00360212281208733,0.0292142581060265));
#695=CARTESIAN_POINT('',(-0.0598348190030862,-0.00454911857746013,0.0292133801103477));
#696=CARTESIAN_POINT('',(-0.0596895405647525,-0.00622873115813891,0.0289599027701677));
#697=CARTESIAN_POINT('',(-0.0594522966513224,-0.00813929703203619,0.0277973400953366));
#698=CARTESIAN_POINT('',(-0.059268644588971,-0.00934974782414634,0.0259339786102263));
#699=CARTESIAN_POINT('',(-0.0592254115351946,-0.00960992347762538,0.0242982957513468));
#700=CARTESIAN_POINT('',(-0.0592252719873156,-0.00961078342428377,0.0233759474098682));
#701=CARTESIAN_POINT('',(-0.0592252719873156,-0.00961078342428376,0.0233759474098682));
#702=CARTESIAN_POINT('',(-0.0592252719873156,-0.00961078342428376,0.045));
#703=CARTESIAN_POINT('',(-0.0592252719873156,-0.00961078342428376,0.0213759474098682));
#704=CARTESIAN_POINT('',(-0.0592252719873156,-0.00961078342428377,0.0213759474098682));
#705=CARTESIAN_POINT('',(-0.059225417233651,-0.00960988836158818,0.0204548230722635));
#706=CARTESIAN_POINT('',(-0.0592686190067094,-0.00934989858245768,0.0188207602581344));
#707=CARTESIAN_POINT('',(-0.0594520816122831,-0.00814072704606035,0.0169559400352877));
#708=CARTESIAN_POINT('',(-0.059689223850454,-0.0062317717288219,0.0157922445654709));
#709=CARTESIAN_POINT('',(-0.0598347398023355,-0.00455043543249027,0.0155385293313256));
#710=CARTESIAN_POINT('',(-0.059891774988279,-0.00360212281208733,0.01553763671371));
#711=CARTESIAN_POINT('',(-0.059891774988279,-0.0036021228120876,0.01553763671371));
#712=CARTESIAN_POINT('',(0.,3.67394039744206E-18,0.01553763671371));
#713=CARTESIAN_POINT('',(0.,3.67394039744206E-18,0.));
#714=CARTESIAN_POINT('',(0.06,3.67394039744206E-18,0.));
#715=CARTESIAN_POINT('',(0.,3.67394039744206E-18,0.042));
#716=CARTESIAN_POINT('',(0.06,3.67394039744206E-18,0.042));
#717=CARTESIAN_POINT('',(0.,3.67394039744206E-18,0.045));
#718=CARTESIAN_POINT('',(0.,3.67394039744206E-18,0.045));
#719=CARTESIAN_POINT('',(0.0496,3.67394039744206E-18,0.045));
#720=CARTESIAN_POINT('',(0.,3.67394039744206E-18,0.0104));
#721=CARTESIAN_POINT('',(0.0496,3.67394039744206E-18,0.0104));
#722=CARTESIAN_POINT('',(0.,3.67394039744206E-18,0.0173759474098682));
#723=CARTESIAN_POINT('',(-0.0494763579904584,-0.0035,0.0173759474098682));
#724=CARTESIAN_POINT('',(-0.0494763579904584,0.0035,0.0173759474098682));
#725=CARTESIAN_POINT('',(-0.0494763579904584,-0.0035,0.0173759474098682));
#726=CARTESIAN_POINT('',(-0.049438022305163,-0.00404191716842371,0.0173759474098682));
#727=CARTESIAN_POINT('',(-0.0493456112484698,-0.00510381915456126,0.0174699013021702));
#728=CARTESIAN_POINT('',(-0.0491626121776367,-0.00660934987157244,0.0182478192553397));
#729=CARTESIAN_POINT('',(-0.0490454294620827,-0.00739821535836589,0.0197342442884154));
#730=CARTESIAN_POINT('',(-0.0490296848857914,-0.0075,0.0208293755183786));
#731=CARTESIAN_POINT('',(-0.0490296848857914,-0.0075,0.0213759474098683));
#732=CARTESIAN_POINT('',(-0.0490296848857914,-0.0075,0.0213759474098682));
#733=CARTESIAN_POINT('',(-0.0490296848857914,-0.0075,0.045));
#734=CARTESIAN_POINT('',(-0.0490296848857914,-0.0075,0.0233759474098682));
#735=CARTESIAN_POINT('',(-0.0490296848857914,-0.0075,0.0233759474098682));
#736=CARTESIAN_POINT('',(-0.0490296848857914,-0.0075,0.0239192236210415));
#737=CARTESIAN_POINT('',(-0.0490443002252607,-0.00740593576820877,0.0249860410563079));
#738=CARTESIAN_POINT('',(-0.0491611269066488,-0.00661889640082516,0.0264945943037128));
#739=CARTESIAN_POINT('',(-0.0493424446312912,-0.00513539878149072,0.0272743221437199));
#740=CARTESIAN_POINT('',(-0.0494377953373781,-0.00404512560824707,0.0273759474098682));
#741=CARTESIAN_POINT('',(-0.0494763579904584,-0.0035,0.0273759474098682));
#742=CARTESIAN_POINT('',(-0.0494763579904584,-0.0035,0.0273759474098682));
#743=CARTESIAN_POINT('',(0.,3.67394039744206E-18,0.0273759474098682));
#744=CARTESIAN_POINT('',(-0.0494763579904584,0.0035,0.0273759474098682));
#745=CARTESIAN_POINT('',(-0.0494763579904584,0.0035,0.0273759474098682));
#746=CARTESIAN_POINT('',(-0.049438022305163,0.00404191716842371,0.0273759474098682));
#747=CARTESIAN_POINT('',(-0.0493456112484698,0.00510381915456125,0.0272819935175663));
#748=CARTESIAN_POINT('',(-0.0491626121776367,0.00660934987157245,0.0265040755643968));
#749=CARTESIAN_POINT('',(-0.0490454294620827,0.00739821535836589,0.0250176505313211));
#750=CARTESIAN_POINT('',(-0.0490296848857914,0.0075,0.0239225193013579));
#751=CARTESIAN_POINT('',(-0.0490296848857914,0.0075,0.0233759474098683));
#752=CARTESIAN_POINT('',(-0.0490296848857914,0.0075,0.0233759474098682));
#753=CARTESIAN_POINT('',(-0.0490296848857914,0.0075,0.045));
#754=CARTESIAN_POINT('',(-0.0490296848857914,0.0075,0.0213759474098682));
#755=CARTESIAN_POINT('',(-0.0490296848857914,0.0075,0.0213759474098682));
#756=CARTESIAN_POINT('',(-0.0490296848857914,0.0075,0.020832671198695));
#757=CARTESIAN_POINT('',(-0.0490443002252607,0.00740593576820877,0.0197658537634285));
#758=CARTESIAN_POINT('',(-0.0491611269066488,0.00661889640082516,0.0182573005160237));
#759=CARTESIAN_POINT('',(-0.0493424446312911,0.00513539878149072,0.0174775726760166));
#760=CARTESIAN_POINT('',(-0.0494377953373781,0.00404512560824707,0.0173759474098683));
#761=CARTESIAN_POINT('',(-0.0494763579904584,0.0035,0.0173759474098683));
#762=CARTESIAN_POINT('',(0.,3.67394039744206E-18,0.045));
#763=CARTESIAN_POINT('',(0.,3.67394039744206E-18,0.043));
#764=CARTESIAN_POINT('',(0.058,3.67394039744206E-18,0.043));
#765=CARTESIAN_POINT('',(0.,3.67394039744206E-18,0.002));
#766=CARTESIAN_POINT('',(0.058,3.67394039744206E-18,0.002));
#767=CARTESIAN_POINT('',(0.,3.67394039744206E-18,0.0173759474098682));
#768=CARTESIAN_POINT('',(-0.0578943002375882,-0.0035,0.0173759474098682));
#769=CARTESIAN_POINT('',(-0.0578943002375882,0.0035,0.0173759474098682));
#770=CARTESIAN_POINT('',(-0.0578943002375881,-0.0035,0.0173759474098682));
#771=CARTESIAN_POINT('',(-0.0578615483259743,-0.00404175685837804,0.0173759474098682));
#772=CARTESIAN_POINT('',(-0.0577826476290426,-0.00510312861427309,0.0174696299204076));
#773=CARTESIAN_POINT('',(-0.0576263011728187,-0.00661011805184636,0.0182482248673689));
#774=CARTESIAN_POINT('',(-0.0575264302513156,-0.00739843263149662,0.0197354671880386));
#775=CARTESIAN_POINT('',(-0.0575130419991848,-0.0075,0.0208297049444327));
#776=CARTESIAN_POINT('',(-0.0575130419991848,-0.0075,0.0213759474098682));
#777=CARTESIAN_POINT('',(-0.0575130419991848,-0.0075,0.0213759474098682));
#778=CARTESIAN_POINT('',(-0.0575130419991848,-0.0075,0.045));
#779=CARTESIAN_POINT('',(-0.0575130419991848,-0.0075,0.0233759474098682));
#780=CARTESIAN_POINT('',(-0.0575130419991848,-0.0075,0.0233759474098682));
#781=CARTESIAN_POINT('',(-0.0575130419991848,-0.0075,0.023918694494043));
#782=CARTESIAN_POINT('',(-0.057525451749172,-0.0074062554477143,0.0249836204970274));
#783=CARTESIAN_POINT('',(-0.0576248808076981,-0.00662095084388489,0.0264928931559958));
#784=CARTESIAN_POINT('',(-0.0577798472009021,-0.00513589352206969,0.0272744827441417));
#785=CARTESIAN_POINT('',(-0.0578613410050957,-0.00404518620043395,0.0273759474098683));
#786=CARTESIAN_POINT('',(-0.0578943002375882,-0.0035,0.0273759474098683));
#787=CARTESIAN_POINT('',(-0.0578943002375882,-0.0035,0.0273759474098682));
#788=CARTESIAN_POINT('',(0.,3.67394039744206E-18,0.0273759474098682));
#789=CARTESIAN_POINT('',(-0.0578943002375882,0.0035,0.0273759474098682));
#790=CARTESIAN_POINT('',(-0.0578943002375881,0.0035,0.0273759474098682));
#791=CARTESIAN_POINT('',(-0.0578615483259743,0.00404175685837804,0.0273759474098682));
#792=CARTESIAN_POINT('',(-0.0577826476290425,0.00510312861427309,0.0272822648993289));
#793=CARTESIAN_POINT('',(-0.0576263011728188,0.00661011805184636,0.0265036699523676));
#794=CARTESIAN_POINT('',(-0.0575264302513156,0.00739843263149662,0.0250164276316979));
#795=CARTESIAN_POINT('',(-0.0575130419991848,0.0075,0.0239221898753038));
#796=CARTESIAN_POINT('',(-0.0575130419991848,0.0075,0.0233759474098682));
#797=CARTESIAN_POINT('',(-0.0575130419991848,0.0075,0.0233759474098682));
#798=CARTESIAN_POINT('',(-0.0575130419991848,0.0075,0.045));
#799=CARTESIAN_POINT('',(-0.0575130419991848,0.0075,0.0213759474098682));
#800=CARTESIAN_POINT('',(-0.0575130419991848,0.0075,0.0213759474098682));
#801=CARTESIAN_POINT('',(-0.0575130419991848,0.0075,0.0208332003256935));
#802=CARTESIAN_POINT('',(-0.057525451749172,0.00740625544771431,0.0197682743227091));
#803=CARTESIAN_POINT('',(-0.057624880807698,0.00662095084388488,0.0182590016637407));
#804=CARTESIAN_POINT('',(-0.057779847200902,0.0051358935220697,0.0174774120755948));
#805=CARTESIAN_POINT('',(-0.0578613410050957,0.00404518620043395,0.0173759474098682));
#806=CARTESIAN_POINT('',(-0.0578943002375882,0.0035,0.0173759474098682));
#807=CARTESIAN_POINT('',(0.,3.67394039744206E-18,0.045));
#808=CARTESIAN_POINT('',(0.,3.67394039744206E-18,0.0104));
#809=CARTESIAN_POINT('',(0.0516,3.67394039744206E-18,0.0104));
#810=CARTESIAN_POINT('',(0.,3.67394039744206E-18,0.043));
#811=CARTESIAN_POINT('',(0.0516,3.67394039744206E-18,0.043));
#812=CARTESIAN_POINT('',(-0.0510520322808015,-0.0075,0.045));
#813=CARTESIAN_POINT('',(-0.0510520322808015,-0.0075,0.0213759474098682));
#814=CARTESIAN_POINT('',(-0.0510520322808015,-0.0075,0.0233759474098682));
#815=CARTESIAN_POINT('',(-0.0510520322808015,-0.0075,0.0213759474098682));
#816=CARTESIAN_POINT('',(-0.0510520322808015,-0.0075,0.0208328001000301));
#817=CARTESIAN_POINT('',(-0.0510660583688707,-0.00740599181151947,0.0197662982820534));
#818=CARTESIAN_POINT('',(-0.0511782209647103,-0.0066193070227412,0.0182576468846326));
#819=CARTESIAN_POINT('',(-0.051352464081629,-0.00513548405403419,0.0174775317938387));
#820=CARTESIAN_POINT('',(-0.0514441014458105,-0.00404511426977273,0.0173759474098682));
#821=CARTESIAN_POINT('',(-0.0514811616030563,-0.0035,0.0173759474098682));
#822=CARTESIAN_POINT('',(-0.0514811616030563,-0.0035,0.0173759474098682));
#823=CARTESIAN_POINT('',(0.,3.67394039744206E-18,0.0173759474098682));
#824=CARTESIAN_POINT('',(-0.0514811616030563,0.0035,0.0173759474098682));
#825=CARTESIAN_POINT('',(-0.0514811616030563,0.0035,0.0173759474098682));
#826=CARTESIAN_POINT('',(-0.0514443205137168,0.00404189202111974,0.0173759474098682));
#827=CARTESIAN_POINT('',(-0.0513555114962789,0.00510385472698805,0.017469855277893));
#828=CARTESIAN_POINT('',(-0.0511796546900796,0.00660970804259447,0.0182481085433857));
#829=CARTESIAN_POINT('',(-0.0510671432410251,0.00739826987386546,0.0197346408669279));
#830=CARTESIAN_POINT('',(-0.0510520322808015,0.0075,0.0208294971570634));
#831=CARTESIAN_POINT('',(-0.0510520322808015,0.0075,0.0213759474098682));
#832=CARTESIAN_POINT('',(-0.0510520322808015,0.0075,0.0213759474098682));
#833=CARTESIAN_POINT('',(-0.0510520322808015,0.0075,0.045));
#834=CARTESIAN_POINT('',(-0.0510520322808015,0.0075,0.0233759474098682));
#835=CARTESIAN_POINT('',(-0.0510520322808015,0.0075,0.0233759474098682));
#836=CARTESIAN_POINT('',(-0.0510520322808015,0.0075,0.0239190947197064));
#837=CARTESIAN_POINT('',(-0.0510660583688705,0.00740599181151946,0.024985596537683));
#838=CARTESIAN_POINT('',(-0.0511782209647104,0.00661930702274121,0.026494247935104));
#839=CARTESIAN_POINT('',(-0.051352464081629,0.00513548405403417,0.0272743630258978));
#840=CARTESIAN_POINT('',(-0.0514441014458105,0.00404511426977273,0.0273759474098682));
#841=CARTESIAN_POINT('',(-0.0514811616030563,0.0035,0.0273759474098682));
#842=CARTESIAN_POINT('',(-0.0514811616030563,0.0035,0.0273759474098682));
#843=CARTESIAN_POINT('',(0.,3.67394039744206E-18,0.0273759474098682));
#844=CARTESIAN_POINT('',(-0.0514811616030563,-0.0035,0.0273759474098682));
#845=CARTESIAN_POINT('',(-0.0514811616030563,-0.0035,0.0273759474098682));
#846=CARTESIAN_POINT('',(-0.0514443205137168,-0.00404189202111974,0.0273759474098682));
#847=CARTESIAN_POINT('',(-0.0513555114962789,-0.00510385472698806,0.0272820395418435));
#848=CARTESIAN_POINT('',(-0.0511796546900795,-0.00660970804259447,0.0265037862763508));
#849=CARTESIAN_POINT('',(-0.0510671432410252,-0.00739826987386547,0.0250172539528086));
#850=CARTESIAN_POINT('',(-0.0510520322808015,-0.0075,0.0239223976626731));
#851=CARTESIAN_POINT('',(-0.0510520322808015,-0.0075,0.0233759474098682));
#852=CARTESIAN_POINT('',(0.,0.,0.045));
#853=CARTESIAN_POINT('',(0.,3.67394039744206E-18,0.045));
#854=CARTESIAN_POINT('',(0.057,3.67394039744206E-18,0.045));
#855=CARTESIAN_POINT('',(0.,0.,0.));
#856=CARTESIAN_POINT('',(0.,0.,0.043));
#857=CARTESIAN_POINT('',(0.,0.,0.002));
#858=CARTESIAN_POINT('',(0.,0.,0.0104));
#859=CARTESIAN_POINT('',(0.,3.67394039744206E-18,0.045));
#860=CARTESIAN_POINT('',(-0.0742,0.,0.0273759474098682));
#861=CARTESIAN_POINT('',(-0.0514811616030563,0.0035,0.0273759474098682));
#862=CARTESIAN_POINT('',(-0.0508128937321904,0.0035,0.0273759474098682));
#863=CARTESIAN_POINT('',(-0.0501446258613245,0.0035,0.0273759474098682));
#864=CARTESIAN_POINT('',(-0.0494763579904585,0.0035,0.0273759474098682));
#865=CARTESIAN_POINT('',(-0.0494763579904583,-0.0035,0.0273759474098682));
#866=CARTESIAN_POINT('',(-0.0501446258613243,-0.0035,0.0273759474098682));
#867=CARTESIAN_POINT('',(-0.0508128937321903,-0.0035,0.0273759474098682));
#868=CARTESIAN_POINT('',(-0.0514811616030563,-0.0035,0.0273759474098682));
#869=CARTESIAN_POINT('',(-0.0742,0.0075,0.0223759474098682));
#870=CARTESIAN_POINT('',(-0.0490296848857914,0.0075,0.0233759474098682));
#871=CARTESIAN_POINT('',(-0.0497038006841281,0.0075,0.0233759474098682));
#872=CARTESIAN_POINT('',(-0.0503779164824647,0.0075,0.0233759474098682));
#873=CARTESIAN_POINT('',(-0.0510520322808014,0.0075,0.0233759474098682));
#874=CARTESIAN_POINT('',(-0.0510520322808016,0.0075,0.0213759474098682));
#875=CARTESIAN_POINT('',(-0.0503779164824648,0.0075,0.0213759474098682));
#876=CARTESIAN_POINT('',(-0.0497038006841281,0.0075,0.0213759474098682));
#877=CARTESIAN_POINT('',(-0.0490296848857913,0.0075,0.0213759474098682));
#878=CARTESIAN_POINT('',(-0.0742,0.,0.0173759474098682));
#879=CARTESIAN_POINT('',(-0.0494763579904583,0.0035,0.0173759474098682));
#880=CARTESIAN_POINT('',(-0.0501446258613243,0.0035,0.0173759474098682));
#881=CARTESIAN_POINT('',(-0.0508128937321903,0.0035,0.0173759474098682));
#882=CARTESIAN_POINT('',(-0.0514811616030563,0.0035,0.0173759474098682));
#883=CARTESIAN_POINT('',(-0.0514811616030563,-0.0035,0.0173759474098682));
#884=CARTESIAN_POINT('',(-0.0508128937321904,-0.0035,0.0173759474098682));
#885=CARTESIAN_POINT('',(-0.0501446258613245,-0.0035,0.0173759474098682));
#886=CARTESIAN_POINT('',(-0.0494763579904585,-0.0035,0.0173759474098682));
#887=CARTESIAN_POINT('',(-0.0742,-0.0075,0.0223759474098682));
#888=CARTESIAN_POINT('',(-0.0510520322808016,-0.0075,0.0233759474098682));
#889=CARTESIAN_POINT('',(-0.0503779164824648,-0.0075,0.0233759474098682));
#890=CARTESIAN_POINT('',(-0.0497038006841281,-0.0075,0.0233759474098682));
#891=CARTESIAN_POINT('',(-0.0490296848857913,-0.0075,0.0233759474098682));
#892=CARTESIAN_POINT('',(-0.0490296848857914,-0.0075,0.0213759474098682));
#893=CARTESIAN_POINT('',(-0.0497038006841281,-0.0075,0.0213759474098682));
#894=CARTESIAN_POINT('',(-0.0503779164824647,-0.0075,0.0213759474098682));
#895=CARTESIAN_POINT('',(-0.0510520322808014,-0.0075,0.0213759474098682));
#896=CARTESIAN_POINT('',(-0.0742,-0.0075,0.0223759474098682));
#897=CARTESIAN_POINT('',(-0.0575130419991848,-0.0075,0.0213759474098682));
#898=CARTESIAN_POINT('',(-0.0575240920923307,-0.0075,0.0213759474098682));
#899=CARTESIAN_POINT('',(-0.0575351421854765,-0.0075,0.0213759474098682));
#900=CARTESIAN_POINT('',(-0.0575461922786224,-0.0075,0.0213759474098682));
#901=CARTESIAN_POINT('',(-0.0575461922786224,-0.0075,0.0213759474098682));
#902=CARTESIAN_POINT('',(-0.0575461922786224,-0.0075,0.0233759474098682));
#903=CARTESIAN_POINT('',(-0.0575461922786225,-0.0075,0.0233759474098682));
#904=CARTESIAN_POINT('',(-0.0575461922786225,-0.0075,0.0233759474098682));
#905=CARTESIAN_POINT('',(-0.0575351421854766,-0.0075,0.0233759474098682));
#906=CARTESIAN_POINT('',(-0.0575240920923307,-0.0075,0.0233759474098682));
#907=CARTESIAN_POINT('',(-0.0575130419991848,-0.0075,0.0233759474098682));
#908=CARTESIAN_POINT('',(-0.0742,0.,0.0173759474098682));
#909=CARTESIAN_POINT('',(-0.0578943002375882,0.0035,0.0173759474098682));
#910=CARTESIAN_POINT('',(-0.0579941333026622,0.0035,0.0173759474098682));
#911=CARTESIAN_POINT('',(-0.0580939663677363,0.0035,0.0173759474098682));
#912=CARTESIAN_POINT('',(-0.0581937994328104,0.0035,0.0173759474098682));
#913=CARTESIAN_POINT('',(-0.0581937994328104,0.0035,0.0173759474098682));
#914=CARTESIAN_POINT('',(0.,3.67394039744206E-18,0.0173759474098682));
#915=CARTESIAN_POINT('',(-0.0581937994328104,-0.0035,0.0173759474098682));
#916=CARTESIAN_POINT('',(-0.0581937994328104,-0.0035,0.0173759474098682));
#917=CARTESIAN_POINT('',(-0.0580939663677364,-0.0035,0.0173759474098682));
#918=CARTESIAN_POINT('',(-0.0579941333026623,-0.0035,0.0173759474098682));
#919=CARTESIAN_POINT('',(-0.0578943002375883,-0.0035,0.0173759474098682));
#920=CARTESIAN_POINT('',(-0.0742,0.0075,0.0223759474098682));
#921=CARTESIAN_POINT('',(-0.0575130419991848,0.0075,0.0233759474098682));
#922=CARTESIAN_POINT('',(-0.0575240920923307,0.0075,0.0233759474098682));
#923=CARTESIAN_POINT('',(-0.0575351421854765,0.0075,0.0233759474098682));
#924=CARTESIAN_POINT('',(-0.0575461922786224,0.0075,0.0233759474098682));
#925=CARTESIAN_POINT('',(-0.0575461922786224,0.0075,0.0233759474098682));
#926=CARTESIAN_POINT('',(-0.0575461922786224,0.0075,0.0223759474098682));
#927=CARTESIAN_POINT('',(-0.0575461922786225,0.0075,0.0213759474098682));
#928=CARTESIAN_POINT('',(-0.0575461922786225,0.0075,0.0213759474098682));
#929=CARTESIAN_POINT('',(-0.0575351421854766,0.0075,0.0213759474098682));
#930=CARTESIAN_POINT('',(-0.0575240920923307,0.0075,0.0213759474098682));
#931=CARTESIAN_POINT('',(-0.0575130419991848,0.0075,0.0213759474098682));
#932=CARTESIAN_POINT('',(-0.0742,0.,0.0273759474098682));
#933=CARTESIAN_POINT('',(-0.0578943002375882,-0.0035,0.0273759474098682));
#934=CARTESIAN_POINT('',(-0.0579941333026622,-0.0035,0.0273759474098682));
#935=CARTESIAN_POINT('',(-0.0580939663677363,-0.0035,0.0273759474098682));
#936=CARTESIAN_POINT('',(-0.0581937994328104,-0.0035,0.0273759474098682));
#937=CARTESIAN_POINT('',(-0.0581937994328104,-0.0035,0.0273759474098682));
#938=CARTESIAN_POINT('',(0.,3.67394039744206E-18,0.0273759474098682));
#939=CARTESIAN_POINT('',(-0.0581937994328104,0.0035,0.0273759474098682));
#940=CARTESIAN_POINT('',(-0.0581937994328104,0.0035,0.0273759474098682));
#941=CARTESIAN_POINT('',(-0.0580939663677364,0.0035,0.0273759474098682));
#942=CARTESIAN_POINT('',(-0.0579941333026623,0.0035,0.0273759474098682));
#943=CARTESIAN_POINT('',(-0.0578943002375883,0.0035,0.0273759474098682));
#944=CARTESIAN_POINT('',(-0.0575089574545831,0.0035,0.0273759474098683));
#945=CARTESIAN_POINT('',(-0.0581978839774122,0.0035,0.0273759474098683));
#946=CARTESIAN_POINT('',(-0.0575089574545831,0.00616666666666667,0.0273759474098683));
#947=CARTESIAN_POINT('',(-0.0581978839774121,0.00616666666666667,0.0273759474098683));
#948=CARTESIAN_POINT('',(-0.0575089574545831,0.0075,0.0260426140765349));
#949=CARTESIAN_POINT('',(-0.0581978839774121,0.0075,0.0260426140765349));
#950=CARTESIAN_POINT('',(-0.0575089574545831,0.0075,0.0233759474098682));
#951=CARTESIAN_POINT('',(-0.0581978839774122,0.0075,0.0233759474098682));
#952=CARTESIAN_POINT('',(-0.0581937994328104,0.0035,0.0273759474098683));
#953=CARTESIAN_POINT('',(-0.0581714606969842,0.0038025829164834,0.0273759474098683));
#954=CARTESIAN_POINT('',(-0.0581318565123204,0.00424953292093617,0.0273509385916915));
#955=CARTESIAN_POINT('',(-0.058073484109553,0.00475585991881418,0.0272615214508407));
#956=CARTESIAN_POINT('',(-0.0580383655924021,0.00502757934352346,0.027195325768177));
#957=CARTESIAN_POINT('',(-0.0580064329411952,0.00525317657021638,0.0271263831464492));
#958=CARTESIAN_POINT('',(-0.0579881842571776,0.00537277242415663,0.0270836207147271));
#959=CARTESIAN_POINT('',(-0.0579514905291321,0.00560376228106874,0.0269927957574947));
#960=CARTESIAN_POINT('',(-0.0578930535865086,0.00593637733729258,0.0268282553839817));
#961=CARTESIAN_POINT('',(-0.0578292724760873,0.00625183228969893,0.026603312675165));
#962=CARTESIAN_POINT('',(-0.057793400395415,0.00641668134448105,0.0264566358147207));
#963=CARTESIAN_POINT('',(-0.057778503209625,0.00648379820282435,0.0263942594945686));
#964=CARTESIAN_POINT('',(-0.0577441746524987,0.00663621801212054,0.0262339066936545));
#965=CARTESIAN_POINT('',(-0.0577089925916556,0.00678945085544191,0.0260443271061451));
#966=CARTESIAN_POINT('',(-0.0576515451383044,0.00703476397745788,0.0256759228807576));
#967=CARTESIAN_POINT('',(-0.0575735008567422,0.00736373963453917,0.0249254051991252));
#968=CARTESIAN_POINT('',(-0.0575462132349774,0.0075,0.0240606216107086));
#969=CARTESIAN_POINT('',(-0.0575461922786224,0.0075,0.0233759474098682));
#970=CARTESIAN_POINT('',(-0.0490149760254878,0.0035,0.0273759474098682));
#971=CARTESIAN_POINT('',(-0.0514958704633599,0.0035,0.0273759474098682));
#972=CARTESIAN_POINT('',(-0.0490149760254878,0.00616666666666667,0.0273759474098683));
#973=CARTESIAN_POINT('',(-0.0514958704633599,0.00616666666666667,0.0273759474098683));
#974=CARTESIAN_POINT('',(-0.0490149760254879,0.00750000000000001,0.026042614076535));
#975=CARTESIAN_POINT('',(-0.05149587046336,0.00750000000000001,0.026042614076535));
#976=CARTESIAN_POINT('',(-0.0490149760254878,0.0075,0.0233759474098682));
#977=CARTESIAN_POINT('',(-0.0514958704633599,0.0075,0.0233759474098682));
#978=CARTESIAN_POINT('',(-0.0581978839774122,-0.0035,0.0273759474098683));
#979=CARTESIAN_POINT('',(-0.0575089574545831,-0.0035,0.0273759474098683));
#980=CARTESIAN_POINT('',(-0.0581978839774122,-0.00616666666666667,0.0273759474098683));
#981=CARTESIAN_POINT('',(-0.0575089574545831,-0.00616666666666667,0.0273759474098683));
#982=CARTESIAN_POINT('',(-0.0581978839774122,-0.0075,0.0260426140765349));
#983=CARTESIAN_POINT('',(-0.0575089574545831,-0.0075,0.0260426140765349));
#984=CARTESIAN_POINT('',(-0.0581978839774122,-0.0075,0.0233759474098683));
#985=CARTESIAN_POINT('',(-0.0575089574545831,-0.0075,0.0233759474098683));
#986=CARTESIAN_POINT('',(-0.0575461922786224,-0.0075,0.0233759474098683));
#987=CARTESIAN_POINT('',(-0.057546207852507,-0.0075,0.0240605989758586));
#988=CARTESIAN_POINT('',(-0.057573550722847,-0.00736357908858417,0.0249262918075994));
#989=CARTESIAN_POINT('',(-0.0576516397163002,-0.00703428029766713,0.0256768598650274));
#990=CARTESIAN_POINT('',(-0.0577091364508861,-0.00678875994658816,0.0260452720760423));
#991=CARTESIAN_POINT('',(-0.0577443405079569,-0.00663544584571745,0.0262347985817587));
#992=CARTESIAN_POINT('',(-0.0577787149489866,-0.0064828515633705,0.0263951888445445));
#993=CARTESIAN_POINT('',(-0.0577935559448141,-0.00641599215468509,0.026457261753755));
#994=CARTESIAN_POINT('',(-0.0578294037690403,-0.00625125965911594,0.0266037670156449));
#995=CARTESIAN_POINT('',(-0.05789322945388,-0.00593547441835012,0.0268287789324887));
#996=CARTESIAN_POINT('',(-0.0579515477482276,-0.00560341664963482,0.0269929378725867));
#997=CARTESIAN_POINT('',(-0.0579882250155438,-0.00537250667493528,0.0270837215366336));
#998=CARTESIAN_POINT('',(-0.0580064859764973,-0.00525281324337943,0.0271265035085397));
#999=CARTESIAN_POINT('',(-0.0580384012274567,-0.00502732835257816,0.0271953916678851));
#1000=CARTESIAN_POINT('',(-0.0580735092333025,-0.00475567839746702,0.0272615573097492));
#1001=CARTESIAN_POINT('',(-0.0581318630173722,-0.00424948646264597,0.027350936190967));
#1002=CARTESIAN_POINT('',(-0.0581714613110213,-0.00380258572622829,0.0273759474098683));
#1003=CARTESIAN_POINT('',(-0.0581937994328104,-0.0035,0.0273759474098683));
#1004=CARTESIAN_POINT('',(-0.0514958704633599,-0.00349999999999988,0.0273759474098683));
#1005=CARTESIAN_POINT('',(-0.0490149760254878,-0.00349999999999988,0.0273759474098683));
#1006=CARTESIAN_POINT('',(-0.0514958704633598,-0.00616666666666662,0.0273759474098683));
#1007=CARTESIAN_POINT('',(-0.0490149760254877,-0.00616666666666662,0.0273759474098683));
#1008=CARTESIAN_POINT('',(-0.0514958704633598,-0.0075,0.026042614076535));
#1009=CARTESIAN_POINT('',(-0.0490149760254877,-0.0075,0.026042614076535));
#1010=CARTESIAN_POINT('',(-0.0514958704633599,-0.0075,0.0233759474098682));
#1011=CARTESIAN_POINT('',(-0.0490149760254878,-0.0075,0.0233759474098682));
#1012=CARTESIAN_POINT('',(-0.0581978839774122,0.0035,0.0173759474098682));
#1013=CARTESIAN_POINT('',(-0.0575089574545831,0.0035,0.0173759474098682));
#1014=CARTESIAN_POINT('',(-0.0581978839774122,0.00616666666666667,0.0173759474098682));
#1015=CARTESIAN_POINT('',(-0.0575089574545831,0.00616666666666667,0.0173759474098682));
#1016=CARTESIAN_POINT('',(-0.0581978839774122,0.0075,0.0187092807432016));
#1017=CARTESIAN_POINT('',(-0.0575089574545831,0.0075,0.0187092807432016));
#1018=CARTESIAN_POINT('',(-0.0581978839774122,0.0075,0.0213759474098682));
#1019=CARTESIAN_POINT('',(-0.0575089574545831,0.0075,0.0213759474098682));
#1020=CARTESIAN_POINT('',(-0.0575461922786225,0.0075,0.0213759474098683));
#1021=CARTESIAN_POINT('',(-0.0575462078525071,0.0075,0.0206912958411132));
#1022=CARTESIAN_POINT('',(-0.0575735507226739,0.00736357908900624,0.0198256030136488));
#1023=CARTESIAN_POINT('',(-0.057651639716531,0.00703428029710435,0.0190750349534998));
#1024=CARTESIAN_POINT('',(-0.0577091364510675,0.00678875994598043,0.0187066227429228));
#1025=CARTESIAN_POINT('',(-0.0577443405080208,0.00663544584551718,0.0185170962377392));
#1026=CARTESIAN_POINT('',(-0.057778714949085,0.00648285156290652,0.01835670597476));
#1027=CARTESIAN_POINT('',(-0.0577935559443571,0.00641599215674129,0.0182946330679485));
#1028=CARTESIAN_POINT('',(-0.0578294037683981,0.00625125966231664,0.0181481278065115));
#1029=CARTESIAN_POINT('',(-0.0578932294541928,0.00593547441677125,0.0179231158861854));
#1030=CARTESIAN_POINT('',(-0.0579515477479316,0.00560341665117073,0.0177589569479171));
#1031=CARTESIAN_POINT('',(-0.0579882250153391,0.00537250667614808,0.017668173283515));
#1032=CARTESIAN_POINT('',(-0.0580064859765767,0.00525281324279602,0.0176253913110107));
#1033=CARTESIAN_POINT('',(-0.0580384012273435,0.00502732835369896,0.0175565031521838));
#1034=CARTESIAN_POINT('',(-0.0580735092331406,0.00475567839931582,0.0174903375103768));
#1035=CARTESIAN_POINT('',(-0.0581318630171304,0.00424948646554936,0.0174009586291078));
#1036=CARTESIAN_POINT('',(-0.0581714613108885,0.00380258572802773,0.0173759474098682));
#1037=CARTESIAN_POINT('',(-0.0581937994328104,0.0035,0.0173759474098682));
#1038=CARTESIAN_POINT('',(-0.0514958704633599,0.0035,0.0173759474098682));
#1039=CARTESIAN_POINT('',(-0.0490149760254878,0.0035,0.0173759474098682));
#1040=CARTESIAN_POINT('',(-0.0514958704633599,0.00616666666666667,0.0173759474098682));
#1041=CARTESIAN_POINT('',(-0.0490149760254877,0.00616666666666667,0.0173759474098682));
#1042=CARTESIAN_POINT('',(-0.0514958704633598,0.0075,0.0187092807432016));
#1043=CARTESIAN_POINT('',(-0.0490149760254877,0.0075,0.0187092807432016));
#1044=CARTESIAN_POINT('',(-0.0514958704633599,0.0075,0.0213759474098683));
#1045=CARTESIAN_POINT('',(-0.0490149760254878,0.0075,0.0213759474098683));
#1046=CARTESIAN_POINT('',(-0.0575089574545831,-0.0035,0.0173759474098682));
#1047=CARTESIAN_POINT('',(-0.0581978839774122,-0.0035,0.0173759474098682));
#1048=CARTESIAN_POINT('',(-0.0575089574545831,-0.00616666666666666,0.0173759474098682));
#1049=CARTESIAN_POINT('',(-0.0581978839774121,-0.00616666666666666,0.0173759474098682));
#1050=CARTESIAN_POINT('',(-0.0575089574545831,-0.0075,0.0187092807432016));
#1051=CARTESIAN_POINT('',(-0.0581978839774122,-0.0075,0.0187092807432016));
#1052=CARTESIAN_POINT('',(-0.0575089574545831,-0.0075,0.0213759474098682));
#1053=CARTESIAN_POINT('',(-0.0581978839774122,-0.0075,0.0213759474098682));
#1054=CARTESIAN_POINT('',(-0.0581937994328104,-0.0035,0.0173759474098682));
#1055=CARTESIAN_POINT('',(-0.0581714606970394,-0.00380258291573577,0.0173759474098682));
#1056=CARTESIAN_POINT('',(-0.0581318565124245,-0.00424953291970508,0.0174009562278958));
#1057=CARTESIAN_POINT('',(-0.0580734841096154,-0.00475585991807913,0.0174903733687455));
#1058=CARTESIAN_POINT('',(-0.0580383655924577,-0.00502757934299994,0.0175565690514012));
#1059=CARTESIAN_POINT('',(-0.0580064329411294,-0.0052531765706799,0.017625511673442));
#1060=CARTESIAN_POINT('',(-0.0579881842573853,-0.005372772422826,0.0176682741045492));
#1061=CARTESIAN_POINT('',(-0.0579514905294281,-0.00560376227937285,0.017759099061419));
#1062=CARTESIAN_POINT('',(-0.0578930535862691,-0.00593637733853143,0.017923639436532));
#1063=CARTESIAN_POINT('',(-0.0578292724765098,-0.00625183228767819,0.0181485821430627));
#1064=CARTESIAN_POINT('',(-0.0577934003957275,-0.00641668134313347,0.0182952590037154));
#1065=CARTESIAN_POINT('',(-0.0577785032095175,-0.00648379820332627,0.0183576353256703));
#1066=CARTESIAN_POINT('',(-0.0577441746526156,-0.00663621801146029,0.0185179881253729));
#1067=CARTESIAN_POINT('',(-0.0577089925918049,-0.00678945085463102,0.0187075677124971));
#1068=CARTESIAN_POINT('',(-0.0576515451385549,-0.00703476397639843,0.0190759719369251));
#1069=CARTESIAN_POINT('',(-0.0575735008565543,-0.00736373963533374,0.0198264896224624));
#1070=CARTESIAN_POINT('',(-0.0575462132349775,-0.0075,0.0206912732076073));
#1071=CARTESIAN_POINT('',(-0.0575461922786224,-0.0075,0.0213759474098682));
#1072=CARTESIAN_POINT('',(-0.0490149760254878,-0.00349999999999988,0.0173759474098682));
#1073=CARTESIAN_POINT('',(-0.0514958704633599,-0.00349999999999988,0.0173759474098682));
#1074=CARTESIAN_POINT('',(-0.0490149760254878,-0.00616666666666663,0.0173759474098682));
#1075=CARTESIAN_POINT('',(-0.0514958704633599,-0.00616666666666663,0.0173759474098682));
#1076=CARTESIAN_POINT('',(-0.0490149760254878,-0.0075,0.0187092807432015));
#1077=CARTESIAN_POINT('',(-0.0514958704633599,-0.0075,0.0187092807432015));
#1078=CARTESIAN_POINT('',(-0.0490149760254878,-0.0075,0.0213759474098683));
#1079=CARTESIAN_POINT('',(-0.0514958704633599,-0.0075,0.0213759474098683));
#1080=CARTESIAN_POINT('',(-0.0575461922786224,-0.0075,0.045));
#1081=CARTESIAN_POINT('',(-0.0592252719873156,-0.00961078342428376,0.0233759474098682));
#1082=CARTESIAN_POINT('',(-0.0586655787510845,-0.00890718894952251,0.0233759474098682));
#1083=CARTESIAN_POINT('',(-0.0581058855148535,-0.00820359447476126,0.0233759474098682));
#1084=CARTESIAN_POINT('',(-0.0575461922786224,-0.0075,0.0233759474098682));
#1085=CARTESIAN_POINT('',(-0.0575461922786224,-0.0075,0.0213759474098682));
#1086=CARTESIAN_POINT('',(-0.0581058855148535,-0.00820359447476125,0.0213759474098682));
#1087=CARTESIAN_POINT('',(-0.0586655787510845,-0.0089071889495225,0.0213759474098682));
#1088=CARTESIAN_POINT('',(-0.0592252719873156,-0.00961078342428376,0.0213759474098682));
#1089=CARTESIAN_POINT('',(-0.0592252719873156,-0.00961078342428376,0.0213759474098682));
#1090=CARTESIAN_POINT('',(-0.0592252921735608,-0.00961000162687741,0.0205887447720613));
#1091=CARTESIAN_POINT('',(-0.059241532499637,-0.00951333673696889,0.0198068484144625));
#1092=CARTESIAN_POINT('',(-0.0593201786969678,-0.00901017907760765,0.0183137796589998));
#1093=CARTESIAN_POINT('',(-0.0593843952145059,-0.00859080575460072,0.0176225877133796));
#1094=CARTESIAN_POINT('',(-0.0595376612209261,-0.00745738707723929,0.0165230006082057));
#1095=CARTESIAN_POINT('',(-0.0596246439568843,-0.00674605434272772,0.016117909270888));
#1096=CARTESIAN_POINT('',(-0.0597779335099941,-0.00521323051323669,0.0156319871924866));
#1097=CARTESIAN_POINT('',(-0.0598431577756908,-0.00441110438424753,0.0155383981811315));
#1098=CARTESIAN_POINT('',(-0.059891774988279,-0.0036021228120876,0.01553763671371));
#1099=CARTESIAN_POINT('',(-0.0575461922786224,-0.0075,0.0213759474098682));
#1100=CARTESIAN_POINT('',(-0.0575462118925729,-0.007500001331026,0.0207351314916929));
#1101=CARTESIAN_POINT('',(-0.0575619918119362,-0.00742175102495647,0.0201469635812778));
#1102=CARTESIAN_POINT('',(-0.0576384082953621,-0.00708536020565439,0.0191263667951746));
#1103=CARTESIAN_POINT('',(-0.0577008045013975,-0.0068307682319514,0.0187062210973911));
#1104=CARTESIAN_POINT('',(-0.0578497247940736,-0.00616526249068156,0.0180417083798653));
#1105=CARTESIAN_POINT('',(-0.0579342417970809,-0.00574481125801702,0.0177884045312668));
#1106=CARTESIAN_POINT('',(-0.058083185407706,-0.00472620809149818,0.0174538920853059));
#1107=CARTESIAN_POINT('',(-0.0581465605537007,-0.0041398606404426,0.0173759571824335));
#1108=CARTESIAN_POINT('',(-0.0581937994328104,-0.0035,0.0173759474098682));
#1109=CARTESIAN_POINT('',(-0.059891774988279,-0.00360212281208733,0.01553763671371));
#1110=CARTESIAN_POINT('',(-0.0593257831364561,-0.00356808187472481,0.0161504069457627));
#1111=CARTESIAN_POINT('',(-0.0587597912846333,-0.00353404093736228,0.0167631771778155));
#1112=CARTESIAN_POINT('',(-0.0581937994328104,-0.00349999999999975,0.0173759474098682));
#1113=CARTESIAN_POINT('',(-0.059891774988279,-0.0036021228120876,0.0292142581060265));
#1114=CARTESIAN_POINT('',(-0.0598431734774385,-0.00441086771210134,0.0292135082901631));
#1115=CARTESIAN_POINT('',(-0.0597779339910621,-0.00521322259705126,0.0291199586181453));
#1116=CARTESIAN_POINT('',(-0.0596247424603086,-0.00674507394757841,0.0286342505058835));
#1117=CARTESIAN_POINT('',(-0.0595378725069486,-0.007455551918595,0.0282294352812637));
#1118=CARTESIAN_POINT('',(-0.0593845847460557,-0.00858967045154865,0.0271316453059831));
#1119=CARTESIAN_POINT('',(-0.0593202622547401,-0.00900966416629248,0.0264395133289461));
#1120=CARTESIAN_POINT('',(-0.0592415740085476,-0.00951305112810561,0.0249460032310873));
#1121=CARTESIAN_POINT('',(-0.0592252869925099,-0.00961003244880504,0.0241632953995969));
#1122=CARTESIAN_POINT('',(-0.0592252719873156,-0.00961078342428376,0.0233759474098682));
#1123=CARTESIAN_POINT('',(-0.0581937994328104,-0.0035,0.0273759474098682));
#1124=CARTESIAN_POINT('',(-0.0581465758102923,-0.0041396775095812,0.0273759455902531));
#1125=CARTESIAN_POINT('',(-0.058083185881972,-0.00472619288722197,0.02729802710076));
#1126=CARTESIAN_POINT('',(-0.0579343375010245,-0.0057441697797884,0.026963681978799));
#1127=CARTESIAN_POINT('',(-0.0578499300789649,-0.00616418523792607,0.0267105134857708));
#1128=CARTESIAN_POINT('',(-0.0577009886706076,-0.00683009618003542,0.0260470917521263));
#1129=CARTESIAN_POINT('',(-0.0576384894788158,-0.00708501519640513,0.0256264415880381));
#1130=CARTESIAN_POINT('',(-0.0575620321494336,-0.00742156442196643,0.0246056272194174));
#1131=CARTESIAN_POINT('',(-0.0575462068584085,-0.00750002448474555,0.024016896898921));
#1132=CARTESIAN_POINT('',(-0.0575461922786224,-0.0075,0.0233759474098682));
#1133=CARTESIAN_POINT('',(-0.0581937994328104,-0.00350000000000009,0.0273759474098682));
#1134=CARTESIAN_POINT('',(-0.0587597912846332,-0.00353404093736262,0.027988717641921));
#1135=CARTESIAN_POINT('',(-0.0593257831364561,-0.00356808187472515,0.0286014878739737));
#1136=CARTESIAN_POINT('',(-0.0598917749882789,-0.00360212281208768,0.0292142581060265));
#1137=CARTESIAN_POINT('',(0.,3.67394039744206E-18,0.01553763671371));
#1138=CARTESIAN_POINT('',(-0.0581937994328104,0.0035,0.0173759474098682));
#1139=CARTESIAN_POINT('',(-0.0587597912846333,0.00353404093736253,0.0167631771778155));
#1140=CARTESIAN_POINT('',(-0.0593257831364561,0.00356808187472506,0.0161504069457627));
#1141=CARTESIAN_POINT('',(-0.059891774988279,0.00360212281208759,0.01553763671371));
#1142=CARTESIAN_POINT('',(0.,3.67394039744206E-18,0.0273759474098682));
#1143=CARTESIAN_POINT('',(-0.059891774988279,0.00360212281208749,0.0292142581060265));
#1144=CARTESIAN_POINT('',(-0.0593257831364561,0.00356808187472496,0.0286014878739737));
#1145=CARTESIAN_POINT('',(-0.0587597912846333,0.00353404093736243,0.027988717641921));
#1146=CARTESIAN_POINT('',(-0.0581937994328104,0.0034999999999999,0.0273759474098682));
#1147=CARTESIAN_POINT('',(-0.059891774988279,0.00360212281208759,0.01553763671371));
#1148=CARTESIAN_POINT('',(-0.0598431734774385,0.00441086771210129,0.0155383865295733));
#1149=CARTESIAN_POINT('',(-0.0597779339910621,0.00521322259705123,0.0156319362015912));
#1150=CARTESIAN_POINT('',(-0.0596247424603085,0.00674507394757839,0.016117644313853));
#1151=CARTESIAN_POINT('',(-0.0595378725069486,0.00745555191859499,0.0165224595384727));
#1152=CARTESIAN_POINT('',(-0.0593845847460557,0.00858967045154861,0.0176202495137535));
#1153=CARTESIAN_POINT('',(-0.0593202622547401,0.0090096641662925,0.0183123814907904));
#1154=CARTESIAN_POINT('',(-0.0592415740085477,0.00951305112810557,0.0198058915886492));
#1155=CARTESIAN_POINT('',(-0.0592252869925098,0.00961003244880508,0.0205885994201396));
#1156=CARTESIAN_POINT('',(-0.0592252719873156,0.00961078342428375,0.0213759474098682));
#1157=CARTESIAN_POINT('',(-0.0581937994328104,0.0035,0.0173759474098682));
#1158=CARTESIAN_POINT('',(-0.0581465758102923,0.0041396775095812,0.0173759492294834));
#1159=CARTESIAN_POINT('',(-0.058083185881972,0.00472619288722197,0.0174538677189764));
#1160=CARTESIAN_POINT('',(-0.0579343375010245,0.0057441697797884,0.0177882128409375));
#1161=CARTESIAN_POINT('',(-0.0578499300789649,0.00616418523792607,0.0180413813339657));
#1162=CARTESIAN_POINT('',(-0.0577009886706077,0.00683009618003543,0.0187048030676102));
#1163=CARTESIAN_POINT('',(-0.0576384894788158,0.00708501519640513,0.0191254532316983));
#1164=CARTESIAN_POINT('',(-0.0575620321494337,0.00742156442196643,0.0201462676003192));
#1165=CARTESIAN_POINT('',(-0.0575462068584085,0.00750002448474554,0.0207349979208156));
#1166=CARTESIAN_POINT('',(-0.0575461922786225,0.0075,0.0213759474098682));
#1167=CARTESIAN_POINT('',(-0.0592252719873156,0.00961078342428376,0.0213759474098682));
#1168=CARTESIAN_POINT('',(-0.0586655787510845,0.00890718894952251,0.0213759474098682));
#1169=CARTESIAN_POINT('',(-0.0581058855148535,0.00820359447476125,0.0213759474098682));
#1170=CARTESIAN_POINT('',(-0.0575461922786224,0.0075,0.0213759474098682));
#1171=CARTESIAN_POINT('',(-0.0592252719873156,0.00961078342428375,0.0233759474098682));
#1172=CARTESIAN_POINT('',(-0.0592252921735608,0.00961000162687739,0.0241631500476751));
#1173=CARTESIAN_POINT('',(-0.059241532499637,0.00951333673696887,0.024945046405274));
#1174=CARTESIAN_POINT('',(-0.0593201786969678,0.00901017907760763,0.0264381151607367));
#1175=CARTESIAN_POINT('',(-0.059384395214506,0.00859080575460073,0.0271293071063568));
#1176=CARTESIAN_POINT('',(-0.059537661220926,0.0074573870772393,0.0282288942115307));
#1177=CARTESIAN_POINT('',(-0.0596246439568842,0.00674605434272771,0.0286339855488485));
#1178=CARTESIAN_POINT('',(-0.0597779335099941,0.00521323051323669,0.0291199076272499));
#1179=CARTESIAN_POINT('',(-0.0598431577756908,0.00441110438424753,0.029213496638605));
#1180=CARTESIAN_POINT('',(-0.059891774988279,0.00360212281208759,0.0292142581060265));
#1181=CARTESIAN_POINT('',(-0.0575461922786224,0.0075,0.0233759474098682));
#1182=CARTESIAN_POINT('',(-0.0575462118925729,0.007500001331026,0.0240167633280436));
#1183=CARTESIAN_POINT('',(-0.0575619918119362,0.00742175102495647,0.0246049312384586));
#1184=CARTESIAN_POINT('',(-0.0576384082953621,0.00708536020565439,0.025625528024562));
#1185=CARTESIAN_POINT('',(-0.0577008045013976,0.0068307682319514,0.0260456737223453));
#1186=CARTESIAN_POINT('',(-0.0578497247940736,0.00616526249068156,0.0267101864398712));
#1187=CARTESIAN_POINT('',(-0.0579342417970808,0.00574481125801702,0.0269634902884697));
#1188=CARTESIAN_POINT('',(-0.058083185407706,0.00472620809149817,0.0272980027344305));
#1189=CARTESIAN_POINT('',(-0.0581465605537007,0.00413986064044261,0.0273759376373029));
#1190=CARTESIAN_POINT('',(-0.0581937994328104,0.0035,0.0273759474098682));
#1191=CARTESIAN_POINT('',(-0.0575461922786224,0.0075,0.0233759474098682));
#1192=CARTESIAN_POINT('',(-0.0581058855148535,0.00820359447476125,0.0233759474098682));
#1193=CARTESIAN_POINT('',(-0.0586655787510845,0.00890718894952251,0.0233759474098682));
#1194=CARTESIAN_POINT('',(-0.0592252719873156,0.00961078342428376,0.0233759474098682));
#1195=CARTESIAN_POINT('',(-0.0592252719873156,0.00961078342428375,0.045));
#1196=MECHANICAL_DESIGN_GEOMETRIC_PRESENTATION_REPRESENTATION('',(#524),
#1197);
#1197=(
GEOMETRIC_REPRESENTATION_CONTEXT(3)
GLOBAL_UNCERTAINTY_ASSIGNED_CONTEXT((#1198))
GLOBAL_UNIT_ASSIGNED_CONTEXT((#1201,#1200,#1199))
REPRESENTATION_CONTEXT('Part 1','TOP_LEVEL_ASSEMBLY_PART')
);
#1198=UNCERTAINTY_MEASURE_WITH_UNIT(LENGTH_MEASURE(2.00000000000155E-5),
#1201,'DISTANCE_ACCURACY_VALUE','Maximum Tolerance applied to model');
#1199=(
NAMED_UNIT(*)
SI_UNIT($,.STERADIAN.)
SOLID_ANGLE_UNIT()
);
#1200=(
NAMED_UNIT(*)
PLANE_ANGLE_UNIT()
SI_UNIT($,.RADIAN.)
);
#1201=(
LENGTH_UNIT()
NAMED_UNIT(*)
SI_UNIT($,.METRE.)
);
#1202=PRODUCT_DEFINITION_SHAPE('','',#1203);
#1203=PRODUCT_DEFINITION('','',#1205,#1204);
#1204=PRODUCT_DEFINITION_CONTEXT('',#1211,'design');
#1205=PRODUCT_DEFINITION_FORMATION_WITH_SPECIFIED_SOURCE('','',#1207,
 .NOT_KNOWN.);
#1206=PRODUCT_RELATED_PRODUCT_CATEGORY('','',(#1207));
#1207=PRODUCT('Part 1','Part 1','Part 1',(#1209));
#1208=PRODUCT_CATEGORY('','');
#1209=PRODUCT_CONTEXT('',#1211,'mechanical');
#1210=APPLICATION_PROTOCOL_DEFINITION('international standard',
'ap242_managed_model_based_3d_engineering',2020,#1211);
#1211=APPLICATION_CONTEXT('managed model based 3d engineering');
ENDSEC;
END-ISO-10303-21;
