ISO-10303-21;
HEADER;
/* Generated by software containing ST-Developer
 * from STEP Tools, Inc. (www.steptools.com) 
 */
/* OPTION: using custom renumber hook */

FILE_DESCRIPTION(
/* description */ ('STEP AP242 Edition 2',
'CAx-IF Rec.Pracs.---Representation and Presentation of Product Manufa
cturing Information (PMI)---4.0---2014-10-13',
'CAx-IF Rec.Pracs.---3D Tessellated Geometry---0.4---2014-09-14','2;1',
'CAx-IF Rec.Pracs.---User Defined Attributes---1.5---2016-08-15'),
/* implementation_level */ '2;1');

FILE_NAME(
/* name */ 'electronicsCasing',
/* time_stamp */ '2026-06-13T20:31:29Z',
/* author */ (''),
/* organization */ (''),
/* preprocessor_version */ 'ST-DEVELOPER v20',
/* originating_system */ 'ONSHAPE BY PTC INC, 1.216',
/* authorisation */ '  ');

FILE_SCHEMA (('AP242_MANAGED_MODEL_BASED_3D_ENGINEERING_MIM_LF { 1 0 10303 442 3 1 4 }'));
ENDSEC;

DATA;
#10=SHAPE_REPRESENTATION_RELATIONSHIP('','',#318,#11);
#11=ADVANCED_BREP_SHAPE_REPRESENTATION('',(#316),#518);
#12=CONICAL_SURFACE('',#334,0.007,0.785398163397451);
#13=B_SPLINE_SURFACE_WITH_KNOTS('',3,1,((#501,#502),(#503,#504),(#505,#506),
(#507,#508)),.SURF_OF_LINEAR_EXTRUSION.,.F.,.F.,.F.,(4,4),(2,2),(1.57806923219012E-16,
1.),(0.,1.),.PIECEWISE_BEZIER_KNOTS.);
#14=CYLINDRICAL_SURFACE('',#332,0.005);
#15=B_SPLINE_CURVE_WITH_KNOTS('',3,(#450,#451,#452,#453),.UNSPECIFIED.,
 .F.,.F.,(4,4),(0.,1.),.UNSPECIFIED.);
#16=B_SPLINE_CURVE_WITH_KNOTS('',3,(#461,#462,#463,#464),.UNSPECIFIED.,
 .F.,.F.,(4,4),(0.,1.),.UNSPECIFIED.);
#17=B_SPLINE_CURVE_WITH_KNOTS('',3,(#475,#476,#477,#478),.UNSPECIFIED.,
 .F.,.F.,(4,4),(0.,1.),.UNSPECIFIED.);
#18=B_SPLINE_CURVE_WITH_KNOTS('',3,(#480,#481,#482,#483),.UNSPECIFIED.,
 .F.,.F.,(4,4),(0.,1.),.UNSPECIFIED.);
#19=CIRCLE('',#324,0.007);
#20=CIRCLE('',#331,0.005);
#21=CIRCLE('',#333,0.005);
#22=ORIENTED_EDGE('',*,*,#106,.T.);
#23=ORIENTED_EDGE('',*,*,#107,.T.);
#24=ORIENTED_EDGE('',*,*,#108,.F.);
#25=ORIENTED_EDGE('',*,*,#109,.T.);
#26=ORIENTED_EDGE('',*,*,#110,.T.);
#27=ORIENTED_EDGE('',*,*,#111,.F.);
#28=ORIENTED_EDGE('',*,*,#112,.T.);
#29=ORIENTED_EDGE('',*,*,#113,.F.);
#30=ORIENTED_EDGE('',*,*,#114,.T.);
#31=ORIENTED_EDGE('',*,*,#115,.T.);
#32=ORIENTED_EDGE('',*,*,#116,.T.);
#33=ORIENTED_EDGE('',*,*,#117,.T.);
#34=ORIENTED_EDGE('',*,*,#118,.F.);
#35=ORIENTED_EDGE('',*,*,#119,.T.);
#36=ORIENTED_EDGE('',*,*,#111,.T.);
#37=ORIENTED_EDGE('',*,*,#120,.F.);
#38=ORIENTED_EDGE('',*,*,#108,.T.);
#39=ORIENTED_EDGE('',*,*,#121,.T.);
#40=ORIENTED_EDGE('',*,*,#113,.T.);
#41=ORIENTED_EDGE('',*,*,#122,.T.);
#42=ORIENTED_EDGE('',*,*,#123,.F.);
#43=ORIENTED_EDGE('',*,*,#124,.T.);
#44=ORIENTED_EDGE('',*,*,#125,.T.);
#45=ORIENTED_EDGE('',*,*,#126,.T.);
#46=ORIENTED_EDGE('',*,*,#127,.F.);
#47=ORIENTED_EDGE('',*,*,#128,.T.);
#48=ORIENTED_EDGE('',*,*,#123,.T.);
#49=ORIENTED_EDGE('',*,*,#127,.T.);
#50=ORIENTED_EDGE('',*,*,#129,.F.);
#51=ORIENTED_EDGE('',*,*,#130,.F.);
#52=ORIENTED_EDGE('',*,*,#131,.F.);
#53=ORIENTED_EDGE('',*,*,#132,.F.);
#54=ORIENTED_EDGE('',*,*,#120,.T.);
#55=ORIENTED_EDGE('',*,*,#110,.F.);
#56=ORIENTED_EDGE('',*,*,#133,.F.);
#57=ORIENTED_EDGE('',*,*,#134,.T.);
#58=ORIENTED_EDGE('',*,*,#125,.F.);
#59=ORIENTED_EDGE('',*,*,#135,.T.);
#60=ORIENTED_EDGE('',*,*,#133,.T.);
#61=ORIENTED_EDGE('',*,*,#109,.F.);
#62=ORIENTED_EDGE('',*,*,#136,.T.);
#63=ORIENTED_EDGE('',*,*,#137,.T.);
#64=ORIENTED_EDGE('',*,*,#138,.F.);
#65=ORIENTED_EDGE('',*,*,#129,.T.);
#66=ORIENTED_EDGE('',*,*,#126,.F.);
#67=ORIENTED_EDGE('',*,*,#122,.F.);
#68=ORIENTED_EDGE('',*,*,#117,.F.);
#69=ORIENTED_EDGE('',*,*,#139,.F.);
#70=ORIENTED_EDGE('',*,*,#140,.F.);
#71=ORIENTED_EDGE('',*,*,#141,.T.);
#72=ORIENTED_EDGE('',*,*,#136,.F.);
#73=ORIENTED_EDGE('',*,*,#142,.T.);
#74=ORIENTED_EDGE('',*,*,#118,.T.);
#75=ORIENTED_EDGE('',*,*,#132,.T.);
#76=ORIENTED_EDGE('',*,*,#116,.F.);
#77=ORIENTED_EDGE('',*,*,#143,.T.);
#78=ORIENTED_EDGE('',*,*,#112,.F.);
#79=ORIENTED_EDGE('',*,*,#119,.F.);
#80=ORIENTED_EDGE('',*,*,#142,.F.);
#81=ORIENTED_EDGE('',*,*,#139,.T.);
#82=ORIENTED_EDGE('',*,*,#115,.F.);
#83=ORIENTED_EDGE('',*,*,#144,.T.);
#84=ORIENTED_EDGE('',*,*,#106,.F.);
#85=ORIENTED_EDGE('',*,*,#143,.F.);
#86=ORIENTED_EDGE('',*,*,#124,.F.);
#87=ORIENTED_EDGE('',*,*,#128,.F.);
#88=ORIENTED_EDGE('',*,*,#134,.F.);
#89=ORIENTED_EDGE('',*,*,#135,.F.);
#90=ORIENTED_EDGE('',*,*,#107,.F.);
#91=ORIENTED_EDGE('',*,*,#144,.F.);
#92=ORIENTED_EDGE('',*,*,#114,.F.);
#93=ORIENTED_EDGE('',*,*,#121,.F.);
#94=ORIENTED_EDGE('',*,*,#141,.F.);
#95=ORIENTED_EDGE('',*,*,#145,.T.);
#96=ORIENTED_EDGE('',*,*,#146,.T.);
#97=ORIENTED_EDGE('',*,*,#137,.F.);
#98=ORIENTED_EDGE('',*,*,#145,.F.);
#99=ORIENTED_EDGE('',*,*,#140,.T.);
#100=ORIENTED_EDGE('',*,*,#131,.T.);
#101=ORIENTED_EDGE('',*,*,#147,.T.);
#102=ORIENTED_EDGE('',*,*,#138,.T.);
#103=ORIENTED_EDGE('',*,*,#146,.F.);
#104=ORIENTED_EDGE('',*,*,#147,.F.);
#105=ORIENTED_EDGE('',*,*,#130,.T.);
#106=EDGE_CURVE('',#148,#149,#176,.F.);
#107=EDGE_CURVE('',#149,#150,#177,.F.);
#108=EDGE_CURVE('',#151,#150,#178,.T.);
#109=EDGE_CURVE('',#151,#152,#179,.T.);
#110=EDGE_CURVE('',#152,#153,#180,.T.);
#111=EDGE_CURVE('',#154,#153,#181,.T.);
#112=EDGE_CURVE('',#154,#148,#182,.T.);
#113=EDGE_CURVE('',#155,#156,#183,.T.);
#114=EDGE_CURVE('',#155,#157,#184,.F.);
#115=EDGE_CURVE('',#157,#158,#185,.T.);
#116=EDGE_CURVE('',#158,#159,#186,.T.);
#117=EDGE_CURVE('',#159,#156,#187,.T.);
#118=EDGE_CURVE('',#160,#161,#188,.T.);
#119=EDGE_CURVE('',#160,#154,#189,.T.);
#120=EDGE_CURVE('',#161,#153,#190,.T.);
#121=EDGE_CURVE('',#150,#155,#19,.F.);
#122=EDGE_CURVE('',#156,#162,#191,.T.);
#123=EDGE_CURVE('',#163,#162,#192,.T.);
#124=EDGE_CURVE('',#163,#164,#15,.T.);
#125=EDGE_CURVE('',#164,#151,#193,.T.);
#126=EDGE_CURVE('',#162,#165,#194,.T.);
#127=EDGE_CURVE('',#166,#165,#195,.T.);
#128=EDGE_CURVE('',#166,#163,#16,.T.);
#129=EDGE_CURVE('',#167,#165,#196,.T.);
#130=EDGE_CURVE('',#168,#167,#197,.T.);
#131=EDGE_CURVE('',#169,#168,#198,.T.);
#132=EDGE_CURVE('',#161,#169,#199,.T.);
#133=EDGE_CURVE('',#170,#152,#200,.T.);
#134=EDGE_CURVE('',#170,#166,#17,.T.);
#135=EDGE_CURVE('',#164,#170,#18,.T.);
#136=EDGE_CURVE('',#171,#172,#201,.T.);
#137=EDGE_CURVE('',#172,#173,#202,.T.);
#138=EDGE_CURVE('',#167,#173,#203,.T.);
#139=EDGE_CURVE('',#171,#159,#204,.T.);
#140=EDGE_CURVE('',#174,#169,#205,.T.);
#141=EDGE_CURVE('',#174,#172,#206,.T.);
#142=EDGE_CURVE('',#171,#160,#207,.T.);
#143=EDGE_CURVE('',#158,#148,#20,.F.);
#144=EDGE_CURVE('',#157,#149,#21,.T.);
#145=EDGE_CURVE('',#174,#175,#208,.T.);
#146=EDGE_CURVE('',#175,#173,#209,.T.);
#147=EDGE_CURVE('',#168,#175,#210,.T.);
#148=VERTEX_POINT('',#414);
#149=VERTEX_POINT('',#415);
#150=VERTEX_POINT('',#417);
#151=VERTEX_POINT('',#419);
#152=VERTEX_POINT('',#421);
#153=VERTEX_POINT('',#423);
#154=VERTEX_POINT('',#425);
#155=VERTEX_POINT('',#429);
#156=VERTEX_POINT('',#430);
#157=VERTEX_POINT('',#432);
#158=VERTEX_POINT('',#434);
#159=VERTEX_POINT('',#436);
#160=VERTEX_POINT('',#440);
#161=VERTEX_POINT('',#441);
#162=VERTEX_POINT('',#447);
#163=VERTEX_POINT('',#449);
#164=VERTEX_POINT('',#454);
#165=VERTEX_POINT('',#458);
#166=VERTEX_POINT('',#460);
#167=VERTEX_POINT('',#467);
#168=VERTEX_POINT('',#469);
#169=VERTEX_POINT('',#471);
#170=VERTEX_POINT('',#474);
#171=VERTEX_POINT('',#486);
#172=VERTEX_POINT('',#487);
#173=VERTEX_POINT('',#489);
#174=VERTEX_POINT('',#494);
#175=VERTEX_POINT('',#512);
#176=LINE('',#413,#211);
#177=LINE('',#416,#212);
#178=LINE('',#418,#213);
#179=LINE('',#420,#214);
#180=LINE('',#422,#215);
#181=LINE('',#424,#216);
#182=LINE('',#426,#217);
#183=LINE('',#428,#218);
#184=LINE('',#431,#219);
#185=LINE('',#433,#220);
#186=LINE('',#435,#221);
#187=LINE('',#437,#222);
#188=LINE('',#439,#223);
#189=LINE('',#442,#224);
#190=LINE('',#443,#225);
#191=LINE('',#446,#226);
#192=LINE('',#448,#227);
#193=LINE('',#455,#228);
#194=LINE('',#457,#229);
#195=LINE('',#459,#230);
#196=LINE('',#466,#231);
#197=LINE('',#468,#232);
#198=LINE('',#470,#233);
#199=LINE('',#472,#234);
#200=LINE('',#473,#235);
#201=LINE('',#485,#236);
#202=LINE('',#488,#237);
#203=LINE('',#490,#238);
#204=LINE('',#491,#239);
#205=LINE('',#493,#240);
#206=LINE('',#495,#241);
#207=LINE('',#496,#242);
#208=LINE('',#511,#243);
#209=LINE('',#513,#244);
#210=LINE('',#515,#245);
#211=VECTOR('',#342,1.);
#212=VECTOR('',#343,1.);
#213=VECTOR('',#344,1.);
#214=VECTOR('',#345,1.);
#215=VECTOR('',#346,1.);
#216=VECTOR('',#347,1.);
#217=VECTOR('',#348,1.);
#218=VECTOR('',#351,1.);
#219=VECTOR('',#352,1.);
#220=VECTOR('',#353,1.);
#221=VECTOR('',#354,1.);
#222=VECTOR('',#355,1.);
#223=VECTOR('',#358,1.);
#224=VECTOR('',#359,1.);
#225=VECTOR('',#360,1.);
#226=VECTOR('',#365,1.);
#227=VECTOR('',#366,1.);
#228=VECTOR('',#367,1.);
#229=VECTOR('',#370,1.);
#230=VECTOR('',#371,1.);
#231=VECTOR('',#374,1.);
#232=VECTOR('',#375,1.);
#233=VECTOR('',#376,1.);
#234=VECTOR('',#377,1.);
#235=VECTOR('',#378,1.);
#236=VECTOR('',#383,1.);
#237=VECTOR('',#384,1.);
#238=VECTOR('',#385,1.);
#239=VECTOR('',#386,1.);
#240=VECTOR('',#389,1.);
#241=VECTOR('',#390,1.);
#242=VECTOR('',#391,1.);
#243=VECTOR('',#404,1.);
#244=VECTOR('',#405,1.);
#245=VECTOR('',#408,1.);
#246=EDGE_LOOP('',(#22,#23,#24,#25,#26,#27,#28));
#247=EDGE_LOOP('',(#29,#30,#31,#32,#33));
#248=EDGE_LOOP('',(#34,#35,#36,#37));
#249=EDGE_LOOP('',(#38,#39,#40,#41,#42,#43,#44));
#250=EDGE_LOOP('',(#45,#46,#47,#48));
#251=EDGE_LOOP('',(#49,#50,#51,#52,#53,#54,#55,#56,#57));
#252=EDGE_LOOP('',(#58,#59,#60,#61));
#253=EDGE_LOOP('',(#62,#63,#64,#65,#66,#67,#68,#69));
#254=EDGE_LOOP('',(#70,#71,#72,#73,#74,#75));
#255=EDGE_LOOP('',(#76,#77,#78,#79,#80,#81));
#256=EDGE_LOOP('',(#82,#83,#84,#85));
#257=EDGE_LOOP('',(#86,#87,#88,#89));
#258=EDGE_LOOP('',(#90,#91,#92,#93));
#259=EDGE_LOOP('',(#94,#95,#96,#97));
#260=EDGE_LOOP('',(#98,#99,#100,#101));
#261=EDGE_LOOP('',(#102,#103,#104,#105));
#262=FACE_BOUND('',#246,.T.);
#263=FACE_BOUND('',#247,.T.);
#264=FACE_BOUND('',#248,.T.);
#265=FACE_BOUND('',#249,.T.);
#266=FACE_BOUND('',#250,.T.);
#267=FACE_BOUND('',#251,.T.);
#268=FACE_BOUND('',#252,.T.);
#269=FACE_BOUND('',#253,.T.);
#270=FACE_BOUND('',#254,.T.);
#271=FACE_BOUND('',#255,.T.);
#272=FACE_BOUND('',#256,.T.);
#273=FACE_BOUND('',#257,.T.);
#274=FACE_BOUND('',#258,.T.);
#275=FACE_BOUND('',#259,.T.);
#276=FACE_BOUND('',#260,.T.);
#277=FACE_BOUND('',#261,.T.);
#278=PLANE('',#320);
#279=PLANE('',#321);
#280=PLANE('',#322);
#281=PLANE('',#323);
#282=PLANE('',#325);
#283=PLANE('',#326);
#284=PLANE('',#327);
#285=PLANE('',#328);
#286=PLANE('',#329);
#287=PLANE('',#330);
#288=PLANE('',#335);
#289=PLANE('',#336);
#290=PLANE('',#337);
#291=ADVANCED_FACE('',(#262),#278,.T.);
#292=ADVANCED_FACE('',(#263),#279,.T.);
#293=ADVANCED_FACE('',(#264),#280,.F.);
#294=ADVANCED_FACE('',(#265),#281,.T.);
#295=ADVANCED_FACE('',(#266),#282,.F.);
#296=ADVANCED_FACE('',(#267),#283,.F.);
#297=ADVANCED_FACE('',(#268),#284,.T.);
#298=ADVANCED_FACE('',(#269),#285,.T.);
#299=ADVANCED_FACE('',(#270),#286,.F.);
#300=ADVANCED_FACE('',(#271),#287,.T.);
#301=ADVANCED_FACE('',(#272),#14,.F.);
#302=ADVANCED_FACE('',(#273),#13,.T.);
#303=ADVANCED_FACE('',(#274),#12,.F.);
#304=ADVANCED_FACE('',(#275),#288,.T.);
#305=ADVANCED_FACE('',(#276),#289,.F.);
#306=ADVANCED_FACE('',(#277),#290,.F.);
#307=CLOSED_SHELL('',(#291,#292,#293,#294,#295,#296,#297,#298,#299,#300,
#301,#302,#303,#304,#305,#306));
#308=STYLED_ITEM('',(#309),#316);
#309=PRESENTATION_STYLE_ASSIGNMENT((#310));
#310=SURFACE_STYLE_USAGE(.BOTH.,#311);
#311=SURFACE_SIDE_STYLE('',(#312));
#312=SURFACE_STYLE_FILL_AREA(#313);
#313=FILL_AREA_STYLE('',(#314));
#314=FILL_AREA_STYLE_COLOUR('',#315);
#315=COLOUR_RGB('',0.647058823529412,0.647058823529412,0.647058823529412);
#316=MANIFOLD_SOLID_BREP('Part 1',#307);
#317=SHAPE_DEFINITION_REPRESENTATION(#523,#318);
#318=SHAPE_REPRESENTATION('Part 1',(#319),#518);
#319=AXIS2_PLACEMENT_3D('',#411,#338,#339);
#320=AXIS2_PLACEMENT_3D('',#412,#340,#341);
#321=AXIS2_PLACEMENT_3D('',#427,#349,#350);
#322=AXIS2_PLACEMENT_3D('',#438,#356,#357);
#323=AXIS2_PLACEMENT_3D('',#444,#361,#362);
#324=AXIS2_PLACEMENT_3D('',#445,#363,#364);
#325=AXIS2_PLACEMENT_3D('',#456,#368,#369);
#326=AXIS2_PLACEMENT_3D('',#465,#372,#373);
#327=AXIS2_PLACEMENT_3D('',#479,#379,#380);
#328=AXIS2_PLACEMENT_3D('',#484,#381,#382);
#329=AXIS2_PLACEMENT_3D('',#492,#387,#388);
#330=AXIS2_PLACEMENT_3D('',#497,#392,#393);
#331=AXIS2_PLACEMENT_3D('',#498,#394,#395);
#332=AXIS2_PLACEMENT_3D('',#499,#396,#397);
#333=AXIS2_PLACEMENT_3D('',#500,#398,#399);
#334=AXIS2_PLACEMENT_3D('',#509,#400,#401);
#335=AXIS2_PLACEMENT_3D('',#510,#402,#403);
#336=AXIS2_PLACEMENT_3D('',#514,#406,#407);
#337=AXIS2_PLACEMENT_3D('',#516,#409,#410);
#338=DIRECTION('',(0.,0.,1.));
#339=DIRECTION('',(1.,0.,0.));
#340=DIRECTION('',(0.,1.,0.));
#341=DIRECTION('',(0.,0.,1.));
#342=DIRECTION('',(-1.,0.,0.));
#343=DIRECTION('',(-0.707106781186546,0.,0.70710678118655));
#344=DIRECTION('',(-8.83935529160157E-17,0.,1.));
#345=DIRECTION('',(-1.,0.,-8.83935529160157E-17));
#346=DIRECTION('',(-8.83935529160157E-17,0.,1.));
#347=DIRECTION('',(-1.,0.,-8.83935529160157E-17));
#348=DIRECTION('',(0.,0.,1.));
#349=DIRECTION('',(0.,1.,0.));
#350=DIRECTION('',(0.,0.,1.));
#351=DIRECTION('',(-8.83935529160157E-17,0.,1.));
#352=DIRECTION('',(0.707106781186546,0.,0.70710678118655));
#353=DIRECTION('',(-1.,0.,0.));
#354=DIRECTION('',(0.,0.,1.));
#355=DIRECTION('',(1.,0.,0.));
#356=DIRECTION('',(8.83935529160157E-17,0.,-1.));
#357=DIRECTION('',(-1.,0.,-8.83935529160157E-17));
#358=DIRECTION('',(-1.,0.,-8.83935529160157E-17));
#359=DIRECTION('',(0.,1.,0.));
#360=DIRECTION('',(0.,1.,0.));
#361=DIRECTION('',(1.,0.,8.83935529160157E-17));
#362=DIRECTION('',(8.83935529160157E-17,0.,-1.));
#363=DIRECTION('',(1.,0.,8.83935529160157E-17));
#364=DIRECTION('',(8.83935529160157E-17,0.,-1.));
#365=DIRECTION('',(0.,-1.,0.));
#366=DIRECTION('',(-8.83935529160157E-17,0.,1.));
#367=DIRECTION('',(0.,1.,0.));
#368=DIRECTION('',(0.,1.,0.));
#369=DIRECTION('',(0.,0.,1.));
#370=DIRECTION('',(-1.,0.,-8.83935529160157E-17));
#371=DIRECTION('',(-8.83935529160157E-17,0.,1.));
#372=DIRECTION('',(1.,0.,8.83935529160157E-17));
#373=DIRECTION('',(8.83935529160157E-17,0.,-1.));
#374=DIRECTION('',(0.,-1.,0.));
#375=DIRECTION('',(-8.83935529160157E-17,0.,1.));
#376=DIRECTION('',(0.,1.,0.));
#377=DIRECTION('',(0.,0.,1.));
#378=DIRECTION('',(0.,1.,0.));
#379=DIRECTION('',(8.83935529160157E-17,0.,-1.));
#380=DIRECTION('',(-1.,0.,-8.83935529160157E-17));
#381=DIRECTION('',(-8.83935529160157E-17,0.,1.));
#382=DIRECTION('',(1.,0.,8.83935529160157E-17));
#383=DIRECTION('',(-1.,0.,-8.83935529160157E-17));
#384=DIRECTION('',(-2.08166817117217E-16,1.,-1.84006045642092E-32));
#385=DIRECTION('',(1.,0.,8.83935529160157E-17));
#386=DIRECTION('',(0.,1.,0.));
#387=DIRECTION('',(0.,-1.,0.));
#388=DIRECTION('',(1.,0.,0.));
#389=DIRECTION('',(-1.,0.,-8.83935529160157E-17));
#390=DIRECTION('',(-8.83935529160157E-17,0.,1.));
#391=DIRECTION('',(0.,0.,-1.));
#392=DIRECTION('',(-1.,0.,0.));
#393=DIRECTION('',(0.,0.,1.));
#394=DIRECTION('',(-1.,0.,0.));
#395=DIRECTION('',(0.,0.,1.));
#396=DIRECTION('',(-1.,0.,0.));
#397=DIRECTION('',(0.,0.,1.));
#398=DIRECTION('',(1.,0.,0.));
#399=DIRECTION('',(0.,0.,-1.));
#400=DIRECTION('',(1.,0.,0.));
#401=DIRECTION('',(0.,0.,-1.));
#402=DIRECTION('',(1.,2.08166817117217E-16,8.83935529160157E-17));
#403=DIRECTION('',(-2.08166817117217E-16,1.,0.));
#404=DIRECTION('',(-2.08166817117217E-16,1.,-1.84006045642092E-32));
#405=DIRECTION('',(-8.83935529160157E-17,0.,1.));
#406=DIRECTION('',(-8.83935529160157E-17,0.,1.));
#407=DIRECTION('',(1.,0.,8.83935529160157E-17));
#408=DIRECTION('',(1.,0.,8.83935529160157E-17));
#409=DIRECTION('',(0.,-1.,0.));
#410=DIRECTION('',(0.,0.,-1.));
#411=CARTESIAN_POINT('',(0.,0.,0.));
#412=CARTESIAN_POINT('',(2.20983882290039E-19,0.,-0.0379));
#413=CARTESIAN_POINT('',(0.1117,0.,-0.005));
#414=CARTESIAN_POINT('',(0.076,0.,-0.005));
#415=CARTESIAN_POINT('',(0.0765,0.,-0.005));
#416=CARTESIAN_POINT('',(0.0715,0.,3.06161699786838E-19));
#417=CARTESIAN_POINT('',(0.0785,0.,-0.007));
#418=CARTESIAN_POINT('',(0.0785,0.,-0.0379));
#419=CARTESIAN_POINT('',(0.0785,0.,-0.0379));
#420=CARTESIAN_POINT('',(2.20983882290039E-19,0.,-0.0379));
#421=CARTESIAN_POINT('',(-0.0785,0.,-0.0379));
#422=CARTESIAN_POINT('',(-0.0785,0.,-0.0379));
#423=CARTESIAN_POINT('',(-0.0785,0.,-0.0354));
#424=CARTESIAN_POINT('',(0.,0.,-0.0354));
#425=CARTESIAN_POINT('',(0.076,0.,-0.0354));
#426=CARTESIAN_POINT('',(0.076,0.,6.93889390390723E-18));
#427=CARTESIAN_POINT('',(2.20983882290039E-19,0.,-0.0379));
#428=CARTESIAN_POINT('',(0.0785,0.,-0.0379));
#429=CARTESIAN_POINT('',(0.0785,0.,0.007));
#430=CARTESIAN_POINT('',(0.0785,0.,0.0354));
#431=CARTESIAN_POINT('',(0.0715,0.,3.06161699786838E-19));
#432=CARTESIAN_POINT('',(0.0765,0.,0.005));
#433=CARTESIAN_POINT('',(0.1117,0.,0.005));
#434=CARTESIAN_POINT('',(0.076,0.,0.005));
#435=CARTESIAN_POINT('',(0.076,0.,6.93889390390723E-18));
#436=CARTESIAN_POINT('',(0.076,0.,0.0354));
#437=CARTESIAN_POINT('',(0.076,0.,0.0354));
#438=CARTESIAN_POINT('',(0.,-0.025,-0.0354));
#439=CARTESIAN_POINT('',(0.,-0.0225,-0.0354));
#440=CARTESIAN_POINT('',(0.076,-0.0225,-0.0354));
#441=CARTESIAN_POINT('',(-0.0785,-0.0225,-0.0354));
#442=CARTESIAN_POINT('',(0.076,-0.025,-0.0354));
#443=CARTESIAN_POINT('',(-0.0785,-0.025,-0.0354));
#444=CARTESIAN_POINT('',(0.0785,-0.025,-0.0379));
#445=CARTESIAN_POINT('',(0.0785,0.,3.06161699786838E-19));
#446=CARTESIAN_POINT('',(0.0785,-0.0225,0.0354));
#447=CARTESIAN_POINT('',(0.0785,-0.025,0.0354));
#448=CARTESIAN_POINT('',(0.0785,-0.025,-0.0379));
#449=CARTESIAN_POINT('',(0.0785,-0.025,-0.0299));
#450=CARTESIAN_POINT('',(0.0785,-0.025,-0.0299));
#451=CARTESIAN_POINT('',(0.0785,-0.025,-0.0352333333333333));
#452=CARTESIAN_POINT('',(0.0785,-0.0223333333333333,-0.0379));
#453=CARTESIAN_POINT('',(0.0785,-0.017,-0.0379));
#454=CARTESIAN_POINT('',(0.0785,-0.017,-0.0379));
#455=CARTESIAN_POINT('',(0.0785,-0.025,-0.0379));
#456=CARTESIAN_POINT('',(2.20983882290039E-19,-0.025,-0.0379));
#457=CARTESIAN_POINT('',(0.,-0.025,0.0354));
#458=CARTESIAN_POINT('',(-0.0785,-0.025,0.0354));
#459=CARTESIAN_POINT('',(-0.0785,-0.025,-0.0379));
#460=CARTESIAN_POINT('',(-0.0785,-0.025,-0.0299));
#461=CARTESIAN_POINT('',(-0.0785,-0.025,-0.0299));
#462=CARTESIAN_POINT('',(-0.0261666666666667,-0.025,-0.0299));
#463=CARTESIAN_POINT('',(0.0261666666666667,-0.025,-0.0299));
#464=CARTESIAN_POINT('',(0.0785,-0.025,-0.0299));
#465=CARTESIAN_POINT('',(-0.0785,-0.025,-0.0379));
#466=CARTESIAN_POINT('',(-0.0785,-0.0225,0.0354));
#467=CARTESIAN_POINT('',(-0.0785,0.,0.0354));
#468=CARTESIAN_POINT('',(-0.0785,0.,0.0329));
#469=CARTESIAN_POINT('',(-0.0785,0.,0.0329));
#470=CARTESIAN_POINT('',(-0.0785,-0.0125,0.0329));
#471=CARTESIAN_POINT('',(-0.0785,-0.0225,0.0329));
#472=CARTESIAN_POINT('',(-0.0785,-0.0225,-6.93889390390723E-18));
#473=CARTESIAN_POINT('',(-0.0785,-0.025,-0.0379));
#474=CARTESIAN_POINT('',(-0.0785,-0.017,-0.0379));
#475=CARTESIAN_POINT('',(-0.0785,-0.017,-0.0379));
#476=CARTESIAN_POINT('',(-0.0785,-0.0223333333333333,-0.0379));
#477=CARTESIAN_POINT('',(-0.0785,-0.025,-0.0352333333333333));
#478=CARTESIAN_POINT('',(-0.0785,-0.025,-0.0299));
#479=CARTESIAN_POINT('',(2.20983882290039E-19,-0.025,-0.0379));
#480=CARTESIAN_POINT('',(0.0785,-0.017,-0.0379));
#481=CARTESIAN_POINT('',(0.0261666666666667,-0.017,-0.0379));
#482=CARTESIAN_POINT('',(-0.0261666666666667,-0.017,-0.0379));
#483=CARTESIAN_POINT('',(-0.0785,-0.017,-0.0379));
#484=CARTESIAN_POINT('',(0.,-0.0225,0.0354));
#485=CARTESIAN_POINT('',(0.,-0.0225,0.0354));
#486=CARTESIAN_POINT('',(0.076,-0.0225,0.0354));
#487=CARTESIAN_POINT('',(-0.006961,-0.0225,0.0354));
#488=CARTESIAN_POINT('',(-0.006961,-0.0125,0.0354));
#489=CARTESIAN_POINT('',(-0.006961,0.,0.0354));
#490=CARTESIAN_POINT('',(-0.0427305,0.,0.0354));
#491=CARTESIAN_POINT('',(0.076,-0.025,0.0354));
#492=CARTESIAN_POINT('',(0.,-0.0225,0.));
#493=CARTESIAN_POINT('',(-2.90814789093691E-18,-0.0225,0.0329));
#494=CARTESIAN_POINT('',(-0.006961,-0.0225,0.0329));
#495=CARTESIAN_POINT('',(-0.006961,-0.0225,-6.15307521848384E-19));
#496=CARTESIAN_POINT('',(0.076,-0.0225,0.));
#497=CARTESIAN_POINT('',(0.076,-0.025,6.93889390390723E-18));
#498=CARTESIAN_POINT('',(0.076,0.,3.06161699786838E-19));
#499=CARTESIAN_POINT('',(0.1117,0.,3.06161699786838E-19));
#500=CARTESIAN_POINT('',(0.0765,0.,3.06161699786838E-19));
#501=CARTESIAN_POINT('',(-0.0785,-0.025,-0.0299));
#502=CARTESIAN_POINT('',(0.0785,-0.025,-0.0299));
#503=CARTESIAN_POINT('',(-0.0785,-0.025,-0.0352333333333334));
#504=CARTESIAN_POINT('',(0.0785,-0.025,-0.0352333333333334));
#505=CARTESIAN_POINT('',(-0.0785,-0.0223333333333333,-0.0379));
#506=CARTESIAN_POINT('',(0.0785,-0.0223333333333333,-0.0379));
#507=CARTESIAN_POINT('',(-0.0785,-0.017,-0.0379));
#508=CARTESIAN_POINT('',(0.0785,-0.017,-0.0379));
#509=CARTESIAN_POINT('',(0.0785,0.,3.06161699786838E-19));
#510=CARTESIAN_POINT('',(-0.006961,-0.0125,0.0329));
#511=CARTESIAN_POINT('',(-0.006961,-0.0125,0.0329));
#512=CARTESIAN_POINT('',(-0.006961,0.,0.0329));
#513=CARTESIAN_POINT('',(-0.006961,0.,0.0329));
#514=CARTESIAN_POINT('',(-2.90814789093691E-18,-0.0125,0.0329));
#515=CARTESIAN_POINT('',(-0.0427305,0.,0.0329));
#516=CARTESIAN_POINT('',(-0.0427305,0.,0.0329));
#517=MECHANICAL_DESIGN_GEOMETRIC_PRESENTATION_REPRESENTATION('',(#308),
#518);
#518=(
GEOMETRIC_REPRESENTATION_CONTEXT(3)
GLOBAL_UNCERTAINTY_ASSIGNED_CONTEXT((#519))
GLOBAL_UNIT_ASSIGNED_CONTEXT((#522,#521,#520))
REPRESENTATION_CONTEXT('Part 1','TOP_LEVEL_ASSEMBLY_PART')
);
#519=UNCERTAINTY_MEASURE_WITH_UNIT(LENGTH_MEASURE(2.E-5),#522,
'DISTANCE_ACCURACY_VALUE','Maximum Tolerance applied to model');
#520=(
NAMED_UNIT(*)
SI_UNIT($,.STERADIAN.)
SOLID_ANGLE_UNIT()
);
#521=(
NAMED_UNIT(*)
PLANE_ANGLE_UNIT()
SI_UNIT($,.RADIAN.)
);
#522=(
LENGTH_UNIT()
NAMED_UNIT(*)
SI_UNIT($,.METRE.)
);
#523=PRODUCT_DEFINITION_SHAPE('','',#524);
#524=PRODUCT_DEFINITION('','',#526,#525);
#525=PRODUCT_DEFINITION_CONTEXT('',#532,'design');
#526=PRODUCT_DEFINITION_FORMATION_WITH_SPECIFIED_SOURCE('','',#528,
 .NOT_KNOWN.);
#527=PRODUCT_RELATED_PRODUCT_CATEGORY('','',(#528));
#528=PRODUCT('Part 1','Part 1','Part 1',(#530));
#529=PRODUCT_CATEGORY('','');
#530=PRODUCT_CONTEXT('',#532,'mechanical');
#531=APPLICATION_PROTOCOL_DEFINITION('international standard',
'ap242_managed_model_based_3d_engineering',2020,#532);
#532=APPLICATION_CONTEXT('managed model based 3d engineering');
ENDSEC;
END-ISO-10303-21;
