ISO-10303-21;
HEADER;
/* Generated by software containing ST-Developer
 * from STEP Tools, Inc. (www.steptools.com) 
 */
/* OPTION: using custom renumber hook */

FILE_DESCRIPTION(
/* description */ ('STEP AP242 Edition 2',
'CAx-IF Rec.Pracs.---Representation and Presentation of Product Manufa
cturing Information (PMI)---4.0---2014-10-13',
'CAx-IF Rec.Pracs.---3D Tessellated Geometry---0.4---2014-09-14','2;1',
'CAx-IF Rec.Pracs.---User Defined Attributes---1.5---2016-08-15'),
/* implementation_level */ '2;1');

FILE_NAME(
/* name */ 'Paper tray',
/* time_stamp */ '2026-06-13T20:32:05Z',
/* author */ (''),
/* organization */ (''),
/* preprocessor_version */ 'ST-DEVELOPER v20',
/* originating_system */ 'ONSHAPE BY PTC INC, 1.216',
/* authorisation */ '  ');

FILE_SCHEMA (('AP242_MANAGED_MODEL_BASED_3D_ENGINEERING_MIM_LF { 1 0 10303 442 3 1 4 }'));
ENDSEC;

DATA;
#10=SHAPE_REPRESENTATION_RELATIONSHIP('','',#727,#11);
#11=ADVANCED_BREP_SHAPE_REPRESENTATION('',(#725),#1361);
#12=B_SPLINE_SURFACE_WITH_KNOTS('',3,1,((#1105,#1106),(#1107,#1108),(#1109,
#1110),(#1111,#1112)),.SURF_OF_LINEAR_EXTRUSION.,.F.,.F.,.F.,(4,4),(2,2),
(-2.55020043230221E-11,1.00000000000001),(0.,1.),
 .PIECEWISE_BEZIER_KNOTS.);
#13=B_SPLINE_SURFACE_WITH_KNOTS('',3,1,((#1113,#1114),(#1115,#1116),(#1117,
#1118),(#1119,#1120)),.SURF_OF_LINEAR_EXTRUSION.,.F.,.F.,.F.,(4,4),(2,2),
(-4.96150521176002E-15,1.00000000000001),(0.,1.),
 .PIECEWISE_BEZIER_KNOTS.);
#14=B_SPLINE_SURFACE_WITH_KNOTS('',3,1,((#1121,#1122),(#1123,#1124),(#1125,
#1126),(#1127,#1128)),.SURF_OF_LINEAR_EXTRUSION.,.F.,.F.,.F.,(4,4),(2,2),
(-5.10581847811968E-15,1.00000000000001),(0.,1.),
 .PIECEWISE_BEZIER_KNOTS.);
#15=B_SPLINE_SURFACE_WITH_KNOTS('',3,1,((#1129,#1130),(#1131,#1132),(#1133,
#1134),(#1135,#1136)),.SURF_OF_LINEAR_EXTRUSION.,.F.,.F.,.F.,(4,4),(2,2),
(-1.12142485302929E-14,1.),(0.,1.),.PIECEWISE_BEZIER_KNOTS.);
#16=B_SPLINE_SURFACE_WITH_KNOTS('',3,3,((#1195,#1196,#1197,#1198),(#1199,
#1200,#1201,#1202),(#1203,#1204,#1205,#1206),(#1207,#1208,#1209,#1210)),
 .UNSPECIFIED.,.F.,.F.,.F.,(4,4),(4,4),(0.811804782231123,1.),(-1.44411612972605E-18,
0.0175),.UNSPECIFIED.);
#17=B_SPLINE_SURFACE_WITH_KNOTS('',3,3,((#1216,#1217,#1218,#1219),(#1220,
#1221,#1222,#1223),(#1224,#1225,#1226,#1227),(#1228,#1229,#1230,#1231)),
 .UNSPECIFIED.,.F.,.F.,.F.,(4,4),(4,4),(0.811804782231217,1.),(-0.0175,
-3.12598005282432E-18),.UNSPECIFIED.);
#18=B_SPLINE_SURFACE_WITH_KNOTS('',3,3,((#1237,#1238,#1239,#1240),(#1241,
#1242,#1243,#1244),(#1245,#1246,#1247,#1248),(#1249,#1250,#1251,#1252)),
 .UNSPECIFIED.,.F.,.F.,.F.,(4,4),(4,4),(0.,0.18819521776718),(0.123528151351081,
0.148616040207378),.UNSPECIFIED.);
#19=B_SPLINE_SURFACE_WITH_KNOTS('',3,3,((#1261,#1262,#1263,#1264),(#1265,
#1266,#1267,#1268),(#1269,#1270,#1271,#1272),(#1273,#1274,#1275,#1276)),
 .UNSPECIFIED.,.F.,.F.,.F.,(4,4),(4,4),(-1.43429965703355E-14,0.188195217750645),
(0.123067318017782,0.148576873540766),.UNSPECIFIED.);
#20=B_SPLINE_SURFACE_WITH_KNOTS('',3,3,((#1296,#1297,#1298,#1299),(#1300,
#1301,#1302,#1303),(#1304,#1305,#1306,#1307),(#1308,#1309,#1310,#1311)),
 .UNSPECIFIED.,.F.,.F.,.F.,(4,4),(4,4),(0.811804782249338,1.00000000002095),
(0.123528151351081,0.148616040207382),.UNSPECIFIED.);
#21=B_SPLINE_SURFACE_WITH_KNOTS('',3,3,((#1312,#1313,#1314,#1315),(#1316,
#1317,#1318,#1319),(#1320,#1321,#1322,#1323),(#1324,#1325,#1326,#1327)),
 .UNSPECIFIED.,.F.,.F.,.F.,(4,4),(4,4),(0.811804782234238,1.00000000000049),
(0.123067318017749,0.148576873540753),.UNSPECIFIED.);
#22=B_SPLINE_SURFACE_WITH_KNOTS('',3,3,((#1328,#1329,#1330,#1331),(#1332,
#1333,#1334,#1335),(#1336,#1337,#1338,#1339),(#1340,#1341,#1342,#1343)),
 .UNSPECIFIED.,.F.,.F.,.F.,(4,4),(4,4),(0.,0.188195217768846),(-0.0175,
-2.18331994651604E-18),.UNSPECIFIED.);
#23=B_SPLINE_SURFACE_WITH_KNOTS('',3,3,((#1344,#1345,#1346,#1347),(#1348,
#1349,#1350,#1351),(#1352,#1353,#1354,#1355),(#1356,#1357,#1358,#1359)),
 .UNSPECIFIED.,.F.,.F.,.F.,(4,4),(4,4),(0.,0.188195217768753),(-3.99161651871475E-19,
0.0175),.UNSPECIFIED.);
#24=B_SPLINE_CURVE_WITH_KNOTS('',3,(#879,#880,#881,#882),.UNSPECIFIED.,
 .F.,.F.,(4,4),(0.,1.),.UNSPECIFIED.);
#25=B_SPLINE_CURVE_WITH_KNOTS('',3,(#886,#887,#888,#889),.UNSPECIFIED.,
 .F.,.F.,(4,4),(0.,1.),.UNSPECIFIED.);
#26=B_SPLINE_CURVE_WITH_KNOTS('',3,(#893,#894,#895,#896),.UNSPECIFIED.,
 .F.,.F.,(4,4),(0.,1.),.UNSPECIFIED.);
#27=B_SPLINE_CURVE_WITH_KNOTS('',3,(#900,#901,#902,#903),.UNSPECIFIED.,
 .F.,.F.,(4,4),(0.,1.),.UNSPECIFIED.);
#28=B_SPLINE_CURVE_WITH_KNOTS('',3,(#907,#908,#909,#910),.UNSPECIFIED.,
 .F.,.F.,(4,4),(0.,0.000464081542238158),.UNSPECIFIED.);
#29=B_SPLINE_CURVE_WITH_KNOTS('',3,(#912,#913,#914,#915),.UNSPECIFIED.,
 .F.,.F.,(4,4),(0.,0.000650128725036596),.UNSPECIFIED.);
#30=B_SPLINE_CURVE_WITH_KNOTS('',3,(#919,#920,#921,#922),.UNSPECIFIED.,
 .F.,.F.,(4,4),(0.,0.000461651749968839),.UNSPECIFIED.);
#31=B_SPLINE_CURVE_WITH_KNOTS('',3,(#924,#925,#926,#927),.UNSPECIFIED.,
 .F.,.F.,(4,4),(0.,0.000461623733636874),.UNSPECIFIED.);
#32=B_SPLINE_CURVE_WITH_KNOTS('',3,(#931,#932,#933,#934),.UNSPECIFIED.,
 .F.,.F.,(4,4),(0.,0.000461651749968857),.UNSPECIFIED.);
#33=B_SPLINE_CURVE_WITH_KNOTS('',3,(#936,#937,#938,#939),.UNSPECIFIED.,
 .F.,.F.,(4,4),(0.,0.000461623733636805),.UNSPECIFIED.);
#34=B_SPLINE_CURVE_WITH_KNOTS('',3,(#943,#944,#945,#946),.UNSPECIFIED.,
 .F.,.F.,(4,4),(0.,0.000650385538337272),.UNSPECIFIED.);
#35=B_SPLINE_CURVE_WITH_KNOTS('',3,(#948,#949,#950,#951),.UNSPECIFIED.,
 .F.,.F.,(4,4),(0.,0.000463852477358073),.UNSPECIFIED.);
#36=B_SPLINE_CURVE_WITH_KNOTS('',3,(#956,#957,#958,#959),.UNSPECIFIED.,
 .F.,.F.,(4,4),(0.,1.),.UNSPECIFIED.);
#37=B_SPLINE_CURVE_WITH_KNOTS('',3,(#968,#969,#970,#971),.UNSPECIFIED.,
 .F.,.F.,(4,4),(0.,1.),.UNSPECIFIED.);
#38=B_SPLINE_CURVE_WITH_KNOTS('',3,(#1002,#1003,#1004,#1005),
 .UNSPECIFIED.,.F.,.F.,(4,4),(0.,1.),.UNSPECIFIED.);
#39=B_SPLINE_CURVE_WITH_KNOTS('',3,(#1009,#1010,#1011,#1012),
 .UNSPECIFIED.,.F.,.F.,(4,4),(0.,1.),.UNSPECIFIED.);
#40=B_SPLINE_CURVE_WITH_KNOTS('',3,(#1018,#1019,#1020,#1021),
 .UNSPECIFIED.,.F.,.F.,(4,4),(0.,1.),.UNSPECIFIED.);
#41=B_SPLINE_CURVE_WITH_KNOTS('',3,(#1022,#1023,#1024,#1025),
 .UNSPECIFIED.,.F.,.F.,(4,4),(0.,1.),.UNSPECIFIED.);
#42=B_SPLINE_CURVE_WITH_KNOTS('',3,(#1035,#1036,#1037,#1038),
 .UNSPECIFIED.,.F.,.F.,(4,4),(0.,1.),.UNSPECIFIED.);
#43=B_SPLINE_CURVE_WITH_KNOTS('',3,(#1039,#1040,#1041,#1042),
 .UNSPECIFIED.,.F.,.F.,(4,4),(0.,1.),.UNSPECIFIED.);
#44=B_SPLINE_CURVE_WITH_KNOTS('',3,(#1044,#1045,#1046,#1047),
 .UNSPECIFIED.,.F.,.F.,(4,4),(0.,1.),.UNSPECIFIED.);
#45=B_SPLINE_CURVE_WITH_KNOTS('',3,(#1056,#1057,#1058,#1059),
 .UNSPECIFIED.,.F.,.F.,(4,4),(0.,1.),.UNSPECIFIED.);
#46=B_SPLINE_CURVE_WITH_KNOTS('',3,(#1097,#1098,#1099,#1100),
 .UNSPECIFIED.,.F.,.F.,(4,4),(0.,1.),.UNSPECIFIED.);
#47=B_SPLINE_CURVE_WITH_KNOTS('',3,(#1101,#1102,#1103,#1104),
 .UNSPECIFIED.,.F.,.F.,(4,4),(0.,1.),.UNSPECIFIED.);
#48=B_SPLINE_CURVE_WITH_KNOTS('',3,(#1141,#1142,#1143,#1144),
 .UNSPECIFIED.,.F.,.F.,(4,4),(0.,0.000461651749968781),.UNSPECIFIED.);
#49=B_SPLINE_CURVE_WITH_KNOTS('',3,(#1146,#1147,#1148,#1149),
 .UNSPECIFIED.,.F.,.F.,(4,4),(0.,0.000461623733636867),.UNSPECIFIED.);
#50=B_SPLINE_CURVE_WITH_KNOTS('',3,(#1153,#1154,#1155,#1156),
 .UNSPECIFIED.,.F.,.F.,(4,4),(0.,0.000461651749968747),.UNSPECIFIED.);
#51=B_SPLINE_CURVE_WITH_KNOTS('',3,(#1158,#1159,#1160,#1161),
 .UNSPECIFIED.,.F.,.F.,(4,4),(0.,0.000461623733636899),.UNSPECIFIED.);
#52=B_SPLINE_CURVE_WITH_KNOTS('',3,(#1165,#1166,#1167,#1168),
 .UNSPECIFIED.,.F.,.F.,(4,4),(0.000179352283024727,0.000828276343449199),
 .UNSPECIFIED.);
#53=B_SPLINE_CURVE_WITH_KNOTS('',3,(#1170,#1171,#1172,#1173),
 .UNSPECIFIED.,.F.,.F.,(4,4),(0.00787500000086372,0.00833909148650065),
 .UNSPECIFIED.);
#54=B_SPLINE_CURVE_WITH_KNOTS('',3,(#1177,#1178,#1179,#1180),
 .UNSPECIFIED.,.F.,.F.,(4,4),(0.,0.000463254489360179),.UNSPECIFIED.);
#55=B_SPLINE_CURVE_WITH_KNOTS('',3,(#1182,#1183,#1184,#1185),
 .UNSPECIFIED.,.F.,.F.,(4,4),(0.000179352285579114,0.00082827634610275),
 .UNSPECIFIED.);
#56=B_SPLINE_CURVE_WITH_KNOTS('',3,(#1187,#1188,#1189,#1190),
 .UNSPECIFIED.,.F.,.F.,(4,4),(0.,0.875),.UNSPECIFIED.);
#57=B_SPLINE_CURVE_WITH_KNOTS('',3,(#1191,#1192,#1193,#1194),
 .UNSPECIFIED.,.F.,.F.,(4,4),(0.278131445083069,1.),.UNSPECIFIED.);
#58=B_SPLINE_CURVE_WITH_KNOTS('',3,(#1212,#1213,#1214,#1215),
 .UNSPECIFIED.,.F.,.F.,(4,4),(0.125,1.),.UNSPECIFIED.);
#59=B_SPLINE_CURVE_WITH_KNOTS('',3,(#1233,#1234,#1235,#1236),
 .UNSPECIFIED.,.F.,.F.,(4,4),(0.,0.875),.UNSPECIFIED.);
#60=B_SPLINE_CURVE_WITH_KNOTS('',3,(#1253,#1254,#1255,#1256),
 .UNSPECIFIED.,.F.,.F.,(4,4),(-0.0883883476483185,0.786611652351681),
 .UNSPECIFIED.);
#61=B_SPLINE_CURVE_WITH_KNOTS('',3,(#1257,#1258,#1259,#1260),
 .UNSPECIFIED.,.F.,.F.,(4,4),(0.,0.0247487373415666),.UNSPECIFIED.);
#62=B_SPLINE_CURVE_WITH_KNOTS('',3,(#1277,#1278,#1279,#1280),
 .UNSPECIFIED.,.F.,.F.,(4,4),(0.,0.0247487373415675),.UNSPECIFIED.);
#63=B_SPLINE_CURVE_WITH_KNOTS('',3,(#1281,#1282,#1283,#1284),
 .UNSPECIFIED.,.F.,.F.,(4,4),(0.,0.721868554928579),.UNSPECIFIED.);
#64=B_SPLINE_CURVE_WITH_KNOTS('',3,(#1287,#1288,#1289,#1290),
 .UNSPECIFIED.,.F.,.F.,(4,4),(0.125,1.),.UNSPECIFIED.);
#65=B_SPLINE_CURVE_WITH_KNOTS('',3,(#1292,#1293,#1294,#1295),
 .UNSPECIFIED.,.F.,.F.,(4,4),(0.213388347648318,1.08838834764832),
 .UNSPECIFIED.);
#66=ORIENTED_EDGE('',*,*,#274,.T.);
#67=ORIENTED_EDGE('',*,*,#275,.T.);
#68=ORIENTED_EDGE('',*,*,#276,.T.);
#69=ORIENTED_EDGE('',*,*,#277,.T.);
#70=ORIENTED_EDGE('',*,*,#278,.F.);
#71=ORIENTED_EDGE('',*,*,#279,.T.);
#72=ORIENTED_EDGE('',*,*,#280,.F.);
#73=ORIENTED_EDGE('',*,*,#281,.T.);
#74=ORIENTED_EDGE('',*,*,#282,.F.);
#75=ORIENTED_EDGE('',*,*,#283,.F.);
#76=ORIENTED_EDGE('',*,*,#284,.F.);
#77=ORIENTED_EDGE('',*,*,#285,.T.);
#78=ORIENTED_EDGE('',*,*,#286,.F.);
#79=ORIENTED_EDGE('',*,*,#287,.F.);
#80=ORIENTED_EDGE('',*,*,#288,.T.);
#81=ORIENTED_EDGE('',*,*,#289,.F.);
#82=ORIENTED_EDGE('',*,*,#290,.F.);
#83=ORIENTED_EDGE('',*,*,#291,.F.);
#84=ORIENTED_EDGE('',*,*,#292,.F.);
#85=ORIENTED_EDGE('',*,*,#293,.F.);
#86=ORIENTED_EDGE('',*,*,#294,.F.);
#87=ORIENTED_EDGE('',*,*,#295,.T.);
#88=ORIENTED_EDGE('',*,*,#296,.F.);
#89=ORIENTED_EDGE('',*,*,#297,.T.);
#90=ORIENTED_EDGE('',*,*,#298,.T.);
#91=ORIENTED_EDGE('',*,*,#299,.T.);
#92=ORIENTED_EDGE('',*,*,#300,.F.);
#93=ORIENTED_EDGE('',*,*,#301,.T.);
#94=ORIENTED_EDGE('',*,*,#302,.T.);
#95=ORIENTED_EDGE('',*,*,#303,.F.);
#96=ORIENTED_EDGE('',*,*,#304,.F.);
#97=ORIENTED_EDGE('',*,*,#305,.T.);
#98=ORIENTED_EDGE('',*,*,#306,.T.);
#99=ORIENTED_EDGE('',*,*,#307,.F.);
#100=ORIENTED_EDGE('',*,*,#308,.F.);
#101=ORIENTED_EDGE('',*,*,#309,.T.);
#102=ORIENTED_EDGE('',*,*,#310,.T.);
#103=ORIENTED_EDGE('',*,*,#311,.T.);
#104=ORIENTED_EDGE('',*,*,#312,.F.);
#105=ORIENTED_EDGE('',*,*,#313,.T.);
#106=ORIENTED_EDGE('',*,*,#314,.T.);
#107=ORIENTED_EDGE('',*,*,#315,.T.);
#108=ORIENTED_EDGE('',*,*,#316,.T.);
#109=ORIENTED_EDGE('',*,*,#317,.T.);
#110=ORIENTED_EDGE('',*,*,#318,.T.);
#111=ORIENTED_EDGE('',*,*,#319,.T.);
#112=ORIENTED_EDGE('',*,*,#318,.F.);
#113=ORIENTED_EDGE('',*,*,#320,.T.);
#114=ORIENTED_EDGE('',*,*,#280,.T.);
#115=ORIENTED_EDGE('',*,*,#321,.T.);
#116=ORIENTED_EDGE('',*,*,#314,.F.);
#117=ORIENTED_EDGE('',*,*,#322,.T.);
#118=ORIENTED_EDGE('',*,*,#323,.F.);
#119=ORIENTED_EDGE('',*,*,#324,.T.);
#120=ORIENTED_EDGE('',*,*,#310,.F.);
#121=ORIENTED_EDGE('',*,*,#325,.T.);
#122=ORIENTED_EDGE('',*,*,#326,.F.);
#123=ORIENTED_EDGE('',*,*,#278,.T.);
#124=ORIENTED_EDGE('',*,*,#327,.T.);
#125=ORIENTED_EDGE('',*,*,#298,.F.);
#126=ORIENTED_EDGE('',*,*,#328,.T.);
#127=ORIENTED_EDGE('',*,*,#276,.F.);
#128=ORIENTED_EDGE('',*,*,#329,.T.);
#129=ORIENTED_EDGE('',*,*,#294,.T.);
#130=ORIENTED_EDGE('',*,*,#330,.T.);
#131=ORIENTED_EDGE('',*,*,#331,.T.);
#132=ORIENTED_EDGE('',*,*,#304,.T.);
#133=ORIENTED_EDGE('',*,*,#332,.F.);
#134=ORIENTED_EDGE('',*,*,#333,.T.);
#135=ORIENTED_EDGE('',*,*,#334,.T.);
#136=ORIENTED_EDGE('',*,*,#300,.T.);
#137=ORIENTED_EDGE('',*,*,#335,.T.);
#138=ORIENTED_EDGE('',*,*,#308,.T.);
#139=ORIENTED_EDGE('',*,*,#316,.F.);
#140=ORIENTED_EDGE('',*,*,#336,.F.);
#141=ORIENTED_EDGE('',*,*,#337,.T.);
#142=ORIENTED_EDGE('',*,*,#319,.F.);
#143=ORIENTED_EDGE('',*,*,#326,.T.);
#144=ORIENTED_EDGE('',*,*,#338,.T.);
#145=ORIENTED_EDGE('',*,*,#336,.T.);
#146=ORIENTED_EDGE('',*,*,#303,.T.);
#147=ORIENTED_EDGE('',*,*,#339,.F.);
#148=ORIENTED_EDGE('',*,*,#340,.F.);
#149=ORIENTED_EDGE('',*,*,#332,.T.);
#150=ORIENTED_EDGE('',*,*,#302,.F.);
#151=ORIENTED_EDGE('',*,*,#341,.T.);
#152=ORIENTED_EDGE('',*,*,#342,.T.);
#153=ORIENTED_EDGE('',*,*,#339,.T.);
#154=ORIENTED_EDGE('',*,*,#333,.F.);
#155=ORIENTED_EDGE('',*,*,#340,.T.);
#156=ORIENTED_EDGE('',*,*,#342,.F.);
#157=ORIENTED_EDGE('',*,*,#343,.T.);
#158=ORIENTED_EDGE('',*,*,#311,.F.);
#159=ORIENTED_EDGE('',*,*,#324,.F.);
#160=ORIENTED_EDGE('',*,*,#344,.T.);
#161=ORIENTED_EDGE('',*,*,#345,.T.);
#162=ORIENTED_EDGE('',*,*,#312,.T.);
#163=ORIENTED_EDGE('',*,*,#345,.F.);
#164=ORIENTED_EDGE('',*,*,#346,.F.);
#165=ORIENTED_EDGE('',*,*,#347,.T.);
#166=ORIENTED_EDGE('',*,*,#344,.F.);
#167=ORIENTED_EDGE('',*,*,#323,.T.);
#168=ORIENTED_EDGE('',*,*,#348,.T.);
#169=ORIENTED_EDGE('',*,*,#346,.T.);
#170=ORIENTED_EDGE('',*,*,#306,.F.);
#171=ORIENTED_EDGE('',*,*,#349,.T.);
#172=ORIENTED_EDGE('',*,*,#350,.T.);
#173=ORIENTED_EDGE('',*,*,#296,.T.);
#174=ORIENTED_EDGE('',*,*,#350,.F.);
#175=ORIENTED_EDGE('',*,*,#351,.T.);
#176=ORIENTED_EDGE('',*,*,#330,.F.);
#177=ORIENTED_EDGE('',*,*,#297,.F.);
#178=ORIENTED_EDGE('',*,*,#325,.F.);
#179=ORIENTED_EDGE('',*,*,#309,.F.);
#180=ORIENTED_EDGE('',*,*,#337,.F.);
#181=ORIENTED_EDGE('',*,*,#338,.F.);
#182=ORIENTED_EDGE('',*,*,#331,.F.);
#183=ORIENTED_EDGE('',*,*,#351,.F.);
#184=ORIENTED_EDGE('',*,*,#349,.F.);
#185=ORIENTED_EDGE('',*,*,#305,.F.);
#186=ORIENTED_EDGE('',*,*,#322,.F.);
#187=ORIENTED_EDGE('',*,*,#313,.F.);
#188=ORIENTED_EDGE('',*,*,#347,.F.);
#189=ORIENTED_EDGE('',*,*,#348,.F.);
#190=ORIENTED_EDGE('',*,*,#334,.F.);
#191=ORIENTED_EDGE('',*,*,#343,.F.);
#192=ORIENTED_EDGE('',*,*,#341,.F.);
#193=ORIENTED_EDGE('',*,*,#301,.F.);
#194=ORIENTED_EDGE('',*,*,#307,.T.);
#195=ORIENTED_EDGE('',*,*,#352,.T.);
#196=ORIENTED_EDGE('',*,*,#274,.F.);
#197=ORIENTED_EDGE('',*,*,#353,.T.);
#198=ORIENTED_EDGE('',*,*,#275,.F.);
#199=ORIENTED_EDGE('',*,*,#352,.F.);
#200=ORIENTED_EDGE('',*,*,#295,.F.);
#201=ORIENTED_EDGE('',*,*,#329,.F.);
#202=ORIENTED_EDGE('',*,*,#317,.F.);
#203=ORIENTED_EDGE('',*,*,#353,.F.);
#204=ORIENTED_EDGE('',*,*,#281,.F.);
#205=ORIENTED_EDGE('',*,*,#320,.F.);
#206=ORIENTED_EDGE('',*,*,#277,.F.);
#207=ORIENTED_EDGE('',*,*,#335,.F.);
#208=ORIENTED_EDGE('',*,*,#299,.F.);
#209=ORIENTED_EDGE('',*,*,#327,.F.);
#210=ORIENTED_EDGE('',*,*,#279,.F.);
#211=ORIENTED_EDGE('',*,*,#328,.F.);
#212=ORIENTED_EDGE('',*,*,#315,.F.);
#213=ORIENTED_EDGE('',*,*,#321,.F.);
#214=ORIENTED_EDGE('',*,*,#354,.T.);
#215=ORIENTED_EDGE('',*,*,#355,.F.);
#216=ORIENTED_EDGE('',*,*,#356,.F.);
#217=ORIENTED_EDGE('',*,*,#357,.F.);
#218=ORIENTED_EDGE('',*,*,#358,.F.);
#219=ORIENTED_EDGE('',*,*,#359,.F.);
#220=ORIENTED_EDGE('',*,*,#360,.F.);
#221=ORIENTED_EDGE('',*,*,#361,.F.);
#222=ORIENTED_EDGE('',*,*,#362,.F.);
#223=ORIENTED_EDGE('',*,*,#363,.T.);
#224=ORIENTED_EDGE('',*,*,#364,.T.);
#225=ORIENTED_EDGE('',*,*,#365,.T.);
#226=ORIENTED_EDGE('',*,*,#360,.T.);
#227=ORIENTED_EDGE('',*,*,#366,.F.);
#228=ORIENTED_EDGE('',*,*,#285,.F.);
#229=ORIENTED_EDGE('',*,*,#367,.F.);
#230=ORIENTED_EDGE('',*,*,#368,.T.);
#231=ORIENTED_EDGE('',*,*,#358,.T.);
#232=ORIENTED_EDGE('',*,*,#369,.T.);
#233=ORIENTED_EDGE('',*,*,#287,.T.);
#234=ORIENTED_EDGE('',*,*,#370,.T.);
#235=ORIENTED_EDGE('',*,*,#289,.T.);
#236=ORIENTED_EDGE('',*,*,#371,.T.);
#237=ORIENTED_EDGE('',*,*,#356,.T.);
#238=ORIENTED_EDGE('',*,*,#283,.T.);
#239=ORIENTED_EDGE('',*,*,#372,.T.);
#240=ORIENTED_EDGE('',*,*,#362,.T.);
#241=ORIENTED_EDGE('',*,*,#373,.F.);
#242=ORIENTED_EDGE('',*,*,#374,.F.);
#243=ORIENTED_EDGE('',*,*,#292,.T.);
#244=ORIENTED_EDGE('',*,*,#375,.T.);
#245=ORIENTED_EDGE('',*,*,#365,.F.);
#246=ORIENTED_EDGE('',*,*,#288,.F.);
#247=ORIENTED_EDGE('',*,*,#369,.F.);
#248=ORIENTED_EDGE('',*,*,#357,.T.);
#249=ORIENTED_EDGE('',*,*,#371,.F.);
#250=ORIENTED_EDGE('',*,*,#375,.F.);
#251=ORIENTED_EDGE('',*,*,#291,.T.);
#252=ORIENTED_EDGE('',*,*,#376,.F.);
#253=ORIENTED_EDGE('',*,*,#354,.F.);
#254=ORIENTED_EDGE('',*,*,#363,.F.);
#255=ORIENTED_EDGE('',*,*,#372,.F.);
#256=ORIENTED_EDGE('',*,*,#282,.T.);
#257=ORIENTED_EDGE('',*,*,#377,.F.);
#258=ORIENTED_EDGE('',*,*,#364,.F.);
#259=ORIENTED_EDGE('',*,*,#377,.T.);
#260=ORIENTED_EDGE('',*,*,#293,.T.);
#261=ORIENTED_EDGE('',*,*,#374,.T.);
#262=ORIENTED_EDGE('',*,*,#361,.T.);
#263=ORIENTED_EDGE('',*,*,#367,.T.);
#264=ORIENTED_EDGE('',*,*,#284,.T.);
#265=ORIENTED_EDGE('',*,*,#373,.T.);
#266=ORIENTED_EDGE('',*,*,#370,.F.);
#267=ORIENTED_EDGE('',*,*,#355,.T.);
#268=ORIENTED_EDGE('',*,*,#376,.T.);
#269=ORIENTED_EDGE('',*,*,#290,.T.);
#270=ORIENTED_EDGE('',*,*,#368,.F.);
#271=ORIENTED_EDGE('',*,*,#286,.T.);
#272=ORIENTED_EDGE('',*,*,#366,.T.);
#273=ORIENTED_EDGE('',*,*,#359,.T.);
#274=EDGE_CURVE('',#378,#379,#446,.T.);
#275=EDGE_CURVE('',#379,#380,#24,.T.);
#276=EDGE_CURVE('',#380,#381,#447,.T.);
#277=EDGE_CURVE('',#381,#382,#25,.T.);
#278=EDGE_CURVE('',#383,#382,#448,.T.);
#279=EDGE_CURVE('',#383,#384,#26,.T.);
#280=EDGE_CURVE('',#385,#384,#449,.T.);
#281=EDGE_CURVE('',#385,#378,#27,.T.);
#282=EDGE_CURVE('',#386,#387,#450,.F.);
#283=EDGE_CURVE('',#388,#386,#28,.T.);
#284=EDGE_CURVE('',#389,#388,#29,.T.);
#285=EDGE_CURVE('',#389,#390,#451,.T.);
#286=EDGE_CURVE('',#391,#390,#30,.T.);
#287=EDGE_CURVE('',#392,#391,#31,.T.);
#288=EDGE_CURVE('',#392,#393,#452,.T.);
#289=EDGE_CURVE('',#394,#393,#32,.T.);
#290=EDGE_CURVE('',#395,#394,#33,.T.);
#291=EDGE_CURVE('',#396,#395,#453,.T.);
#292=EDGE_CURVE('',#397,#396,#34,.T.);
#293=EDGE_CURVE('',#387,#397,#35,.T.);
#294=EDGE_CURVE('',#398,#399,#454,.T.);
#295=EDGE_CURVE('',#398,#400,#36,.T.);
#296=EDGE_CURVE('',#401,#400,#455,.T.);
#297=EDGE_CURVE('',#401,#399,#456,.T.);
#298=EDGE_CURVE('',#402,#403,#457,.T.);
#299=EDGE_CURVE('',#403,#404,#37,.T.);
#300=EDGE_CURVE('',#405,#404,#458,.T.);
#301=EDGE_CURVE('',#405,#406,#459,.T.);
#302=EDGE_CURVE('',#406,#407,#460,.T.);
#303=EDGE_CURVE('',#408,#407,#461,.T.);
#304=EDGE_CURVE('',#409,#408,#462,.T.);
#305=EDGE_CURVE('',#409,#410,#463,.T.);
#306=EDGE_CURVE('',#410,#400,#464,.T.);
#307=EDGE_CURVE('',#411,#400,#465,.T.);
#308=EDGE_CURVE('',#412,#411,#466,.T.);
#309=EDGE_CURVE('',#412,#413,#467,.T.);
#310=EDGE_CURVE('',#413,#414,#468,.T.);
#311=EDGE_CURVE('',#414,#415,#469,.T.);
#312=EDGE_CURVE('',#416,#415,#470,.T.);
#313=EDGE_CURVE('',#416,#417,#471,.T.);
#314=EDGE_CURVE('',#417,#418,#472,.T.);
#315=EDGE_CURVE('',#418,#402,#38,.T.);
#316=EDGE_CURVE('',#419,#411,#473,.T.);
#317=EDGE_CURVE('',#411,#420,#39,.T.);
#318=EDGE_CURVE('',#420,#421,#474,.T.);
#319=EDGE_CURVE('',#421,#419,#475,.T.);
#320=EDGE_CURVE('',#420,#385,#40,.T.);
#321=EDGE_CURVE('',#384,#418,#41,.T.);
#322=EDGE_CURVE('',#417,#422,#476,.T.);
#323=EDGE_CURVE('',#423,#422,#477,.T.);
#324=EDGE_CURVE('',#423,#414,#478,.T.);
#325=EDGE_CURVE('',#413,#424,#479,.T.);
#326=EDGE_CURVE('',#421,#424,#480,.T.);
#327=EDGE_CURVE('',#382,#403,#42,.T.);
#328=EDGE_CURVE('',#402,#383,#43,.T.);
#329=EDGE_CURVE('',#380,#398,#44,.T.);
#330=EDGE_CURVE('',#399,#425,#481,.T.);
#331=EDGE_CURVE('',#425,#409,#482,.F.);
#332=EDGE_CURVE('',#426,#408,#483,.T.);
#333=EDGE_CURVE('',#426,#427,#484,.T.);
#334=EDGE_CURVE('',#427,#405,#485,.F.);
#335=EDGE_CURVE('',#404,#381,#45,.T.);
#336=EDGE_CURVE('',#428,#419,#486,.T.);
#337=EDGE_CURVE('',#428,#412,#487,.T.);
#338=EDGE_CURVE('',#424,#428,#488,.T.);
#339=EDGE_CURVE('',#429,#407,#489,.T.);
#340=EDGE_CURVE('',#426,#429,#490,.T.);
#341=EDGE_CURVE('',#406,#430,#491,.F.);
#342=EDGE_CURVE('',#430,#429,#492,.T.);
#343=EDGE_CURVE('',#430,#427,#493,.F.);
#344=EDGE_CURVE('',#423,#431,#494,.T.);
#345=EDGE_CURVE('',#431,#415,#495,.T.);
#346=EDGE_CURVE('',#432,#431,#496,.T.);
#347=EDGE_CURVE('',#432,#416,#497,.T.);
#348=EDGE_CURVE('',#422,#432,#498,.T.);
#349=EDGE_CURVE('',#410,#433,#499,.F.);
#350=EDGE_CURVE('',#433,#401,#500,.T.);
#351=EDGE_CURVE('',#433,#425,#501,.F.);
#352=EDGE_CURVE('',#400,#379,#46,.T.);
#353=EDGE_CURVE('',#378,#411,#47,.T.);
#354=EDGE_CURVE('',#434,#435,#502,.T.);
#355=EDGE_CURVE('',#436,#435,#48,.T.);
#356=EDGE_CURVE('',#437,#436,#49,.T.);
#357=EDGE_CURVE('',#438,#437,#503,.T.);
#358=EDGE_CURVE('',#439,#438,#50,.T.);
#359=EDGE_CURVE('',#440,#439,#51,.T.);
#360=EDGE_CURVE('',#441,#440,#504,.T.);
#361=EDGE_CURVE('',#442,#441,#52,.T.);
#362=EDGE_CURVE('',#443,#442,#53,.T.);
#363=EDGE_CURVE('',#443,#444,#505,.F.);
#364=EDGE_CURVE('',#444,#445,#54,.T.);
#365=EDGE_CURVE('',#445,#434,#55,.T.);
#366=EDGE_CURVE('',#390,#440,#56,.T.);
#367=EDGE_CURVE('',#441,#389,#57,.T.);
#368=EDGE_CURVE('',#391,#439,#506,.T.);
#369=EDGE_CURVE('',#438,#392,#58,.T.);
#370=EDGE_CURVE('',#436,#394,#507,.T.);
#371=EDGE_CURVE('',#393,#437,#59,.T.);
#372=EDGE_CURVE('',#386,#443,#60,.T.);
#373=EDGE_CURVE('',#388,#442,#61,.T.);
#374=EDGE_CURVE('',#397,#445,#62,.T.);
#375=EDGE_CURVE('',#396,#434,#63,.T.);
#376=EDGE_CURVE('',#435,#395,#64,.T.);
#377=EDGE_CURVE('',#444,#387,#65,.T.);
#378=VERTEX_POINT('',#877);
#379=VERTEX_POINT('',#878);
#380=VERTEX_POINT('',#883);
#381=VERTEX_POINT('',#885);
#382=VERTEX_POINT('',#890);
#383=VERTEX_POINT('',#892);
#384=VERTEX_POINT('',#897);
#385=VERTEX_POINT('',#899);
#386=VERTEX_POINT('',#905);
#387=VERTEX_POINT('',#906);
#388=VERTEX_POINT('',#911);
#389=VERTEX_POINT('',#916);
#390=VERTEX_POINT('',#918);
#391=VERTEX_POINT('',#923);
#392=VERTEX_POINT('',#928);
#393=VERTEX_POINT('',#930);
#394=VERTEX_POINT('',#935);
#395=VERTEX_POINT('',#940);
#396=VERTEX_POINT('',#942);
#397=VERTEX_POINT('',#947);
#398=VERTEX_POINT('',#954);
#399=VERTEX_POINT('',#955);
#400=VERTEX_POINT('',#960);
#401=VERTEX_POINT('',#962);
#402=VERTEX_POINT('',#966);
#403=VERTEX_POINT('',#967);
#404=VERTEX_POINT('',#972);
#405=VERTEX_POINT('',#974);
#406=VERTEX_POINT('',#976);
#407=VERTEX_POINT('',#978);
#408=VERTEX_POINT('',#980);
#409=VERTEX_POINT('',#982);
#410=VERTEX_POINT('',#984);
#411=VERTEX_POINT('',#987);
#412=VERTEX_POINT('',#989);
#413=VERTEX_POINT('',#991);
#414=VERTEX_POINT('',#993);
#415=VERTEX_POINT('',#995);
#416=VERTEX_POINT('',#997);
#417=VERTEX_POINT('',#999);
#418=VERTEX_POINT('',#1001);
#419=VERTEX_POINT('',#1008);
#420=VERTEX_POINT('',#1013);
#421=VERTEX_POINT('',#1015);
#422=VERTEX_POINT('',#1027);
#423=VERTEX_POINT('',#1029);
#424=VERTEX_POINT('',#1032);
#425=VERTEX_POINT('',#1049);
#426=VERTEX_POINT('',#1052);
#427=VERTEX_POINT('',#1054);
#428=VERTEX_POINT('',#1062);
#429=VERTEX_POINT('',#1068);
#430=VERTEX_POINT('',#1072);
#431=VERTEX_POINT('',#1078);
#432=VERTEX_POINT('',#1082);
#433=VERTEX_POINT('',#1088);
#434=VERTEX_POINT('',#1139);
#435=VERTEX_POINT('',#1140);
#436=VERTEX_POINT('',#1145);
#437=VERTEX_POINT('',#1150);
#438=VERTEX_POINT('',#1152);
#439=VERTEX_POINT('',#1157);
#440=VERTEX_POINT('',#1162);
#441=VERTEX_POINT('',#1164);
#442=VERTEX_POINT('',#1169);
#443=VERTEX_POINT('',#1174);
#444=VERTEX_POINT('',#1176);
#445=VERTEX_POINT('',#1181);
#446=LINE('',#876,#508);
#447=LINE('',#884,#509);
#448=LINE('',#891,#510);
#449=LINE('',#898,#511);
#450=LINE('',#904,#512);
#451=LINE('',#917,#513);
#452=LINE('',#929,#514);
#453=LINE('',#941,#515);
#454=LINE('',#953,#516);
#455=LINE('',#961,#517);
#456=LINE('',#963,#518);
#457=LINE('',#965,#519);
#458=LINE('',#973,#520);
#459=LINE('',#975,#521);
#460=LINE('',#977,#522);
#461=LINE('',#979,#523);
#462=LINE('',#981,#524);
#463=LINE('',#983,#525);
#464=LINE('',#985,#526);
#465=LINE('',#986,#527);
#466=LINE('',#988,#528);
#467=LINE('',#990,#529);
#468=LINE('',#992,#530);
#469=LINE('',#994,#531);
#470=LINE('',#996,#532);
#471=LINE('',#998,#533);
#472=LINE('',#1000,#534);
#473=LINE('',#1007,#535);
#474=LINE('',#1014,#536);
#475=LINE('',#1016,#537);
#476=LINE('',#1026,#538);
#477=LINE('',#1028,#539);
#478=LINE('',#1030,#540);
#479=LINE('',#1031,#541);
#480=LINE('',#1033,#542);
#481=LINE('',#1048,#543);
#482=LINE('',#1050,#544);
#483=LINE('',#1051,#545);
#484=LINE('',#1053,#546);
#485=LINE('',#1055,#547);
#486=LINE('',#1061,#548);
#487=LINE('',#1063,#549);
#488=LINE('',#1065,#550);
#489=LINE('',#1067,#551);
#490=LINE('',#1069,#552);
#491=LINE('',#1071,#553);
#492=LINE('',#1073,#554);
#493=LINE('',#1075,#555);
#494=LINE('',#1077,#556);
#495=LINE('',#1079,#557);
#496=LINE('',#1081,#558);
#497=LINE('',#1083,#559);
#498=LINE('',#1085,#560);
#499=LINE('',#1087,#561);
#500=LINE('',#1089,#562);
#501=LINE('',#1091,#563);
#502=LINE('',#1138,#564);
#503=LINE('',#1151,#565);
#504=LINE('',#1163,#566);
#505=LINE('',#1175,#567);
#506=LINE('',#1211,#568);
#507=LINE('',#1232,#569);
#508=VECTOR('',#760,1.);
#509=VECTOR('',#761,1.);
#510=VECTOR('',#762,1.);
#511=VECTOR('',#763,1.);
#512=VECTOR('',#764,1.);
#513=VECTOR('',#765,1.);
#514=VECTOR('',#766,1.);
#515=VECTOR('',#767,1.);
#516=VECTOR('',#770,1.);
#517=VECTOR('',#771,1.);
#518=VECTOR('',#772,1.);
#519=VECTOR('',#775,1.);
#520=VECTOR('',#776,1.);
#521=VECTOR('',#777,1.);
#522=VECTOR('',#778,1.);
#523=VECTOR('',#779,1.);
#524=VECTOR('',#780,1.);
#525=VECTOR('',#781,1.);
#526=VECTOR('',#782,1.);
#527=VECTOR('',#783,1.);
#528=VECTOR('',#784,1.);
#529=VECTOR('',#785,1.);
#530=VECTOR('',#786,1.);
#531=VECTOR('',#787,1.);
#532=VECTOR('',#788,1.);
#533=VECTOR('',#789,1.);
#534=VECTOR('',#790,1.);
#535=VECTOR('',#793,1.);
#536=VECTOR('',#794,1.);
#537=VECTOR('',#795,1.);
#538=VECTOR('',#798,1.);
#539=VECTOR('',#799,1.);
#540=VECTOR('',#800,1.);
#541=VECTOR('',#801,1.);
#542=VECTOR('',#802,1.);
#543=VECTOR('',#807,1.);
#544=VECTOR('',#808,1.);
#545=VECTOR('',#809,1.);
#546=VECTOR('',#810,1.);
#547=VECTOR('',#811,1.);
#548=VECTOR('',#814,1.);
#549=VECTOR('',#815,1.);
#550=VECTOR('',#818,1.);
#551=VECTOR('',#821,1.);
#552=VECTOR('',#822,1.);
#553=VECTOR('',#825,1.);
#554=VECTOR('',#826,1.);
#555=VECTOR('',#829,1.);
#556=VECTOR('',#832,1.);
#557=VECTOR('',#833,1.);
#558=VECTOR('',#836,1.);
#559=VECTOR('',#837,1.);
#560=VECTOR('',#840,1.);
#561=VECTOR('',#843,1.);
#562=VECTOR('',#844,1.);
#563=VECTOR('',#847,1.);
#564=VECTOR('',#860,1.);
#565=VECTOR('',#861,1.);
#566=VECTOR('',#862,1.);
#567=VECTOR('',#863,1.);
#568=VECTOR('',#866,1.);
#569=VECTOR('',#867,1.);
#570=EDGE_LOOP('',(#66,#67,#68,#69,#70,#71,#72,#73));
#571=EDGE_LOOP('',(#74,#75,#76,#77,#78,#79,#80,#81,#82,#83,#84,#85));
#572=EDGE_LOOP('',(#86,#87,#88,#89));
#573=EDGE_LOOP('',(#90,#91,#92,#93,#94,#95,#96,#97,#98,#99,#100,#101,#102,
#103,#104,#105,#106,#107));
#574=EDGE_LOOP('',(#108,#109,#110,#111));
#575=EDGE_LOOP('',(#112,#113,#114,#115,#116,#117,#118,#119,#120,#121,#122));
#576=EDGE_LOOP('',(#123,#124,#125,#126));
#577=EDGE_LOOP('',(#127,#128,#129,#130,#131,#132,#133,#134,#135,#136,#137));
#578=EDGE_LOOP('',(#138,#139,#140,#141));
#579=EDGE_LOOP('',(#142,#143,#144,#145));
#580=EDGE_LOOP('',(#146,#147,#148,#149));
#581=EDGE_LOOP('',(#150,#151,#152,#153));
#582=EDGE_LOOP('',(#154,#155,#156,#157));
#583=EDGE_LOOP('',(#158,#159,#160,#161));
#584=EDGE_LOOP('',(#162,#163,#164,#165));
#585=EDGE_LOOP('',(#166,#167,#168,#169));
#586=EDGE_LOOP('',(#170,#171,#172,#173));
#587=EDGE_LOOP('',(#174,#175,#176,#177));
#588=EDGE_LOOP('',(#178,#179,#180,#181));
#589=EDGE_LOOP('',(#182,#183,#184,#185));
#590=EDGE_LOOP('',(#186,#187,#188,#189));
#591=EDGE_LOOP('',(#190,#191,#192,#193));
#592=EDGE_LOOP('',(#194,#195,#196,#197));
#593=EDGE_LOOP('',(#198,#199,#200,#201));
#594=EDGE_LOOP('',(#202,#203,#204,#205));
#595=EDGE_LOOP('',(#206,#207,#208,#209));
#596=EDGE_LOOP('',(#210,#211,#212,#213));
#597=EDGE_LOOP('',(#214,#215,#216,#217,#218,#219,#220,#221,#222,#223,#224,
#225));
#598=EDGE_LOOP('',(#226,#227,#228,#229));
#599=EDGE_LOOP('',(#230,#231,#232,#233));
#600=EDGE_LOOP('',(#234,#235,#236,#237));
#601=EDGE_LOOP('',(#238,#239,#240,#241));
#602=EDGE_LOOP('',(#242,#243,#244,#245));
#603=EDGE_LOOP('',(#246,#247,#248,#249));
#604=EDGE_LOOP('',(#250,#251,#252,#253));
#605=EDGE_LOOP('',(#254,#255,#256,#257));
#606=EDGE_LOOP('',(#258,#259,#260,#261));
#607=EDGE_LOOP('',(#262,#263,#264,#265));
#608=EDGE_LOOP('',(#266,#267,#268,#269));
#609=EDGE_LOOP('',(#270,#271,#272,#273));
#610=FACE_BOUND('',#570,.T.);
#611=FACE_BOUND('',#571,.T.);
#612=FACE_BOUND('',#572,.T.);
#613=FACE_BOUND('',#573,.T.);
#614=FACE_BOUND('',#574,.T.);
#615=FACE_BOUND('',#575,.T.);
#616=FACE_BOUND('',#576,.T.);
#617=FACE_BOUND('',#577,.T.);
#618=FACE_BOUND('',#578,.T.);
#619=FACE_BOUND('',#579,.T.);
#620=FACE_BOUND('',#580,.T.);
#621=FACE_BOUND('',#581,.T.);
#622=FACE_BOUND('',#582,.T.);
#623=FACE_BOUND('',#583,.T.);
#624=FACE_BOUND('',#584,.T.);
#625=FACE_BOUND('',#585,.T.);
#626=FACE_BOUND('',#586,.T.);
#627=FACE_BOUND('',#587,.T.);
#628=FACE_BOUND('',#588,.T.);
#629=FACE_BOUND('',#589,.T.);
#630=FACE_BOUND('',#590,.T.);
#631=FACE_BOUND('',#591,.T.);
#632=FACE_BOUND('',#592,.T.);
#633=FACE_BOUND('',#593,.T.);
#634=FACE_BOUND('',#594,.T.);
#635=FACE_BOUND('',#595,.T.);
#636=FACE_BOUND('',#596,.T.);
#637=FACE_BOUND('',#597,.T.);
#638=FACE_BOUND('',#598,.T.);
#639=FACE_BOUND('',#599,.T.);
#640=FACE_BOUND('',#600,.T.);
#641=FACE_BOUND('',#601,.T.);
#642=FACE_BOUND('',#602,.T.);
#643=FACE_BOUND('',#603,.T.);
#644=FACE_BOUND('',#604,.T.);
#645=FACE_BOUND('',#605,.T.);
#646=FACE_BOUND('',#606,.T.);
#647=FACE_BOUND('',#607,.T.);
#648=FACE_BOUND('',#608,.T.);
#649=FACE_BOUND('',#609,.T.);
#650=PLANE('',#729);
#651=PLANE('',#730);
#652=PLANE('',#731);
#653=PLANE('',#732);
#654=PLANE('',#733);
#655=PLANE('',#734);
#656=PLANE('',#735);
#657=PLANE('',#736);
#658=PLANE('',#737);
#659=PLANE('',#738);
#660=PLANE('',#739);
#661=PLANE('',#740);
#662=PLANE('',#741);
#663=PLANE('',#742);
#664=PLANE('',#743);
#665=PLANE('',#744);
#666=PLANE('',#745);
#667=PLANE('',#746);
#668=PLANE('',#747);
#669=PLANE('',#748);
#670=PLANE('',#749);
#671=PLANE('',#750);
#672=PLANE('',#751);
#673=PLANE('',#752);
#674=PLANE('',#753);
#675=PLANE('',#754);
#676=PLANE('',#755);
#677=ADVANCED_FACE('',(#610,#611),#650,.F.);
#678=ADVANCED_FACE('',(#612),#651,.F.);
#679=ADVANCED_FACE('',(#613),#652,.T.);
#680=ADVANCED_FACE('',(#614),#653,.F.);
#681=ADVANCED_FACE('',(#615),#654,.T.);
#682=ADVANCED_FACE('',(#616),#655,.T.);
#683=ADVANCED_FACE('',(#617),#656,.F.);
#684=ADVANCED_FACE('',(#618),#657,.F.);
#685=ADVANCED_FACE('',(#619),#658,.T.);
#686=ADVANCED_FACE('',(#620),#659,.F.);
#687=ADVANCED_FACE('',(#621),#660,.T.);
#688=ADVANCED_FACE('',(#622),#661,.T.);
#689=ADVANCED_FACE('',(#623),#662,.T.);
#690=ADVANCED_FACE('',(#624),#663,.F.);
#691=ADVANCED_FACE('',(#625),#664,.T.);
#692=ADVANCED_FACE('',(#626),#665,.T.);
#693=ADVANCED_FACE('',(#627),#666,.T.);
#694=ADVANCED_FACE('',(#628),#667,.F.);
#695=ADVANCED_FACE('',(#629),#668,.T.);
#696=ADVANCED_FACE('',(#630),#669,.F.);
#697=ADVANCED_FACE('',(#631),#670,.T.);
#698=ADVANCED_FACE('',(#632),#671,.F.);
#699=ADVANCED_FACE('',(#633),#12,.T.);
#700=ADVANCED_FACE('',(#634),#13,.T.);
#701=ADVANCED_FACE('',(#635),#14,.T.);
#702=ADVANCED_FACE('',(#636),#15,.T.);
#703=ADVANCED_FACE('',(#637),#672,.F.);
#704=ADVANCED_FACE('',(#638),#673,.F.);
#705=ADVANCED_FACE('',(#639),#16,.F.);
#706=ADVANCED_FACE('',(#640),#17,.F.);
#707=ADVANCED_FACE('',(#641),#18,.F.);
#708=ADVANCED_FACE('',(#642),#19,.F.);
#709=ADVANCED_FACE('',(#643),#674,.F.);
#710=ADVANCED_FACE('',(#644),#675,.T.);
#711=ADVANCED_FACE('',(#645),#676,.T.);
#712=ADVANCED_FACE('',(#646),#20,.F.);
#713=ADVANCED_FACE('',(#647),#21,.F.);
#714=ADVANCED_FACE('',(#648),#22,.F.);
#715=ADVANCED_FACE('',(#649),#23,.F.);
#716=CLOSED_SHELL('',(#677,#678,#679,#680,#681,#682,#683,#684,#685,#686,
#687,#688,#689,#690,#691,#692,#693,#694,#695,#696,#697,#698,#699,#700,#701,
#702,#703,#704,#705,#706,#707,#708,#709,#710,#711,#712,#713,#714,#715));
#717=STYLED_ITEM('',(#718),#725);
#718=PRESENTATION_STYLE_ASSIGNMENT((#719));
#719=SURFACE_STYLE_USAGE(.BOTH.,#720);
#720=SURFACE_SIDE_STYLE('',(#721));
#721=SURFACE_STYLE_FILL_AREA(#722);
#722=FILL_AREA_STYLE('',(#723));
#723=FILL_AREA_STYLE_COLOUR('',#724);
#724=COLOUR_RGB('',0.349019607843138,0.376470588235294,0.4);
#725=MANIFOLD_SOLID_BREP('Part 1',#716);
#726=SHAPE_DEFINITION_REPRESENTATION(#1366,#727);
#727=SHAPE_REPRESENTATION('Part 1',(#728),#1361);
#728=AXIS2_PLACEMENT_3D('',#874,#756,#757);
#729=AXIS2_PLACEMENT_3D('',#875,#758,#759);
#730=AXIS2_PLACEMENT_3D('',#952,#768,#769);
#731=AXIS2_PLACEMENT_3D('',#964,#773,#774);
#732=AXIS2_PLACEMENT_3D('',#1006,#791,#792);
#733=AXIS2_PLACEMENT_3D('',#1017,#796,#797);
#734=AXIS2_PLACEMENT_3D('',#1034,#803,#804);
#735=AXIS2_PLACEMENT_3D('',#1043,#805,#806);
#736=AXIS2_PLACEMENT_3D('',#1060,#812,#813);
#737=AXIS2_PLACEMENT_3D('',#1064,#816,#817);
#738=AXIS2_PLACEMENT_3D('',#1066,#819,#820);
#739=AXIS2_PLACEMENT_3D('',#1070,#823,#824);
#740=AXIS2_PLACEMENT_3D('',#1074,#827,#828);
#741=AXIS2_PLACEMENT_3D('',#1076,#830,#831);
#742=AXIS2_PLACEMENT_3D('',#1080,#834,#835);
#743=AXIS2_PLACEMENT_3D('',#1084,#838,#839);
#744=AXIS2_PLACEMENT_3D('',#1086,#841,#842);
#745=AXIS2_PLACEMENT_3D('',#1090,#845,#846);
#746=AXIS2_PLACEMENT_3D('',#1092,#848,#849);
#747=AXIS2_PLACEMENT_3D('',#1093,#850,#851);
#748=AXIS2_PLACEMENT_3D('',#1094,#852,#853);
#749=AXIS2_PLACEMENT_3D('',#1095,#854,#855);
#750=AXIS2_PLACEMENT_3D('',#1096,#856,#857);
#751=AXIS2_PLACEMENT_3D('',#1137,#858,#859);
#752=AXIS2_PLACEMENT_3D('',#1186,#864,#865);
#753=AXIS2_PLACEMENT_3D('',#1285,#868,#869);
#754=AXIS2_PLACEMENT_3D('',#1286,#870,#871);
#755=AXIS2_PLACEMENT_3D('',#1291,#872,#873);
#756=DIRECTION('',(0.,0.,1.));
#757=DIRECTION('',(1.,0.,0.));
#758=DIRECTION('',(0.,0.,1.));
#759=DIRECTION('',(1.,0.,0.));
#760=DIRECTION('',(-1.,9.01155052455485E-17,0.));
#761=DIRECTION('',(0.,1.,0.));
#762=DIRECTION('',(-1.,1.80231010491097E-16,0.));
#763=DIRECTION('',(0.,1.,0.));
#764=DIRECTION('',(1.,-9.01155052455485E-17,0.));
#765=DIRECTION('',(0.,1.,0.));
#766=DIRECTION('',(-1.,1.80231010491097E-16,0.));
#767=DIRECTION('',(0.,1.,0.));
#768=DIRECTION('',(9.01155052455485E-17,1.,0.));
#769=DIRECTION('',(-1.,9.01155052455485E-17,0.));
#770=DIRECTION('',(0.,0.,1.));
#771=DIRECTION('',(0.,0.,-1.));
#772=DIRECTION('',(-1.,0.,0.));
#773=DIRECTION('',(0.,0.,1.));
#774=DIRECTION('',(1.,0.,0.));
#775=DIRECTION('',(-1.,1.80231010491097E-16,0.));
#776=DIRECTION('',(0.,1.,0.));
#777=DIRECTION('',(1.,0.,0.));
#778=DIRECTION('',(0.,-1.,0.));
#779=DIRECTION('',(1.,0.,0.));
#780=DIRECTION('',(0.,1.,0.));
#781=DIRECTION('',(1.,0.,0.));
#782=DIRECTION('',(0.,-1.,0.));
#783=DIRECTION('',(-1.,9.01155052455485E-17,0.));
#784=DIRECTION('',(-4.11715946090222E-16,-1.,0.));
#785=DIRECTION('',(1.,0.,0.));
#786=DIRECTION('',(0.,1.,0.));
#787=DIRECTION('',(-1.,0.,0.));
#788=DIRECTION('',(-3.61357165021381E-16,-1.,0.));
#789=DIRECTION('',(1.,0.,0.));
#790=DIRECTION('',(0.,1.,0.));
#791=DIRECTION('',(9.01155052455485E-17,1.,0.));
#792=DIRECTION('',(-1.,9.01155052455485E-17,0.));
#793=DIRECTION('',(0.,0.,-1.));
#794=DIRECTION('',(0.,0.,1.));
#795=DIRECTION('',(-1.,0.,0.));
#796=DIRECTION('',(1.,0.,0.));
#797=DIRECTION('',(0.,0.,-1.));
#798=DIRECTION('',(0.,-0.707106781186548,0.707106781186548));
#799=DIRECTION('',(3.61357165021381E-16,1.,0.));
#800=DIRECTION('',(0.,0.,-1.));
#801=DIRECTION('',(0.,-0.707106781186548,0.707106781186548));
#802=DIRECTION('',(4.11715946090222E-16,1.,0.));
#803=DIRECTION('',(1.80231010491097E-16,1.,0.));
#804=DIRECTION('',(-1.,1.80231010491097E-16,0.));
#805=DIRECTION('',(1.,0.,0.));
#806=DIRECTION('',(0.,0.,-1.));
#807=DIRECTION('',(4.11715946090222E-16,1.,0.));
#808=DIRECTION('',(0.,-0.707106781186548,0.707106781186548));
#809=DIRECTION('',(0.,0.,-1.));
#810=DIRECTION('',(3.61357165021381E-16,1.,0.));
#811=DIRECTION('',(0.,-0.707106781186548,0.707106781186548));
#812=DIRECTION('',(1.,-4.11715946090222E-16,0.));
#813=DIRECTION('',(4.11715946090222E-16,1.,0.));
#814=DIRECTION('',(-4.11715946090222E-16,-1.,0.));
#815=DIRECTION('',(2.91127137403031E-16,0.707106781186548,-0.707106781186548));
#816=DIRECTION('',(0.,0.,1.));
#817=DIRECTION('',(1.,0.,0.));
#818=DIRECTION('',(-1.,0.,0.));
#819=DIRECTION('',(0.,1.,0.));
#820=DIRECTION('',(0.,0.,1.));
#821=DIRECTION('',(0.,0.,-1.));
#822=DIRECTION('',(1.,0.,0.));
#823=DIRECTION('',(1.,0.,0.));
#824=DIRECTION('',(0.,0.,-1.));
#825=DIRECTION('',(0.,0.707106781186548,-0.707106781186548));
#826=DIRECTION('',(0.,-1.,0.));
#827=DIRECTION('',(0.,0.,1.));
#828=DIRECTION('',(1.,0.,0.));
#829=DIRECTION('',(1.,0.,0.));
#830=DIRECTION('',(0.,-1.,0.));
#831=DIRECTION('',(0.,0.,-1.));
#832=DIRECTION('',(-1.,0.,0.));
#833=DIRECTION('',(0.,0.,-1.));
#834=DIRECTION('',(1.,-3.61357165021381E-16,0.));
#835=DIRECTION('',(3.61357165021381E-16,1.,0.));
#836=DIRECTION('',(-3.61357165021381E-16,-1.,0.));
#837=DIRECTION('',(2.55518101816965E-16,0.707106781186548,-0.707106781186548));
#838=DIRECTION('',(0.,0.,1.));
#839=DIRECTION('',(1.,0.,0.));
#840=DIRECTION('',(-1.,0.,0.));
#841=DIRECTION('',(1.,0.,0.));
#842=DIRECTION('',(0.,0.,-1.));
#843=DIRECTION('',(0.,0.707106781186548,-0.707106781186548));
#844=DIRECTION('',(0.,-1.,0.));
#845=DIRECTION('',(0.,0.,1.));
#846=DIRECTION('',(1.,0.,0.));
#847=DIRECTION('',(1.,0.,0.));
#848=DIRECTION('',(0.,-0.707106781186547,-0.707106781186548));
#849=DIRECTION('',(-1.,0.,0.));
#850=DIRECTION('',(0.,0.707106781186547,0.707106781186548));
#851=DIRECTION('',(-1.,0.,0.));
#852=DIRECTION('',(0.,-0.707106781186548,-0.707106781186548));
#853=DIRECTION('',(-1.,0.,0.));
#854=DIRECTION('',(0.,0.707106781186548,0.707106781186548));
#855=DIRECTION('',(-1.,0.,0.));
#856=DIRECTION('',(6.37212848491792E-17,0.707106781186548,0.707106781186547));
#857=DIRECTION('',(-1.,9.01155052455485E-17,0.));
#858=DIRECTION('',(0.,0.,1.));
#859=DIRECTION('',(1.,0.,0.));
#860=DIRECTION('',(0.,1.,0.));
#861=DIRECTION('',(-1.,1.80231010491097E-16,0.));
#862=DIRECTION('',(0.,1.,0.));
#863=DIRECTION('',(1.,-9.01155052455485E-17,0.));
#864=DIRECTION('',(1.,0.,0.));
#865=DIRECTION('',(0.,0.,-1.));
#866=DIRECTION('',(0.,0.,1.));
#867=DIRECTION('',(0.,0.,-1.));
#868=DIRECTION('',(1.80231010491097E-16,1.,0.));
#869=DIRECTION('',(-1.,1.80231010491097E-16,0.));
#870=DIRECTION('',(1.,0.,0.));
#871=DIRECTION('',(0.,0.,-1.));
#872=DIRECTION('',(6.37212848491792E-17,0.707106781186548,0.707106781186547));
#873=DIRECTION('',(-1.,9.01155052455485E-17,0.));
#874=CARTESIAN_POINT('',(0.,0.,0.));
#875=CARTESIAN_POINT('',(0.,1.38777878078145E-17,-0.02));
#876=CARTESIAN_POINT('',(-7.20924041964388E-18,-0.08,-0.02));
#877=CARTESIAN_POINT('',(0.077,-0.08,-0.02));
#878=CARTESIAN_POINT('',(-0.077,-0.08,-0.02));
#879=CARTESIAN_POINT('',(-0.077,-0.08,-0.02));
#880=CARTESIAN_POINT('',(-0.079,-0.08,-0.02));
#881=CARTESIAN_POINT('',(-0.08,-0.0785857864376421,-0.02));
#882=CARTESIAN_POINT('',(-0.08,-0.0757573593129265,-0.02));
#883=CARTESIAN_POINT('',(-0.08,-0.0757573593129264,-0.02));
#884=CARTESIAN_POINT('',(-0.08,0.0985,-0.02));
#885=CARTESIAN_POINT('',(-0.08,0.097,-0.02));
#886=CARTESIAN_POINT('',(-0.08,0.097,-0.02));
#887=CARTESIAN_POINT('',(-0.08,0.099,-0.02));
#888=CARTESIAN_POINT('',(-0.079,0.1,-0.02));
#889=CARTESIAN_POINT('',(-0.077,0.1,-0.02));
#890=CARTESIAN_POINT('',(-0.077,0.1,-0.02));
#891=CARTESIAN_POINT('',(4.16333634234433E-17,0.1,-0.02));
#892=CARTESIAN_POINT('',(0.077,0.1,-0.02));
#893=CARTESIAN_POINT('',(0.077,0.1,-0.02));
#894=CARTESIAN_POINT('',(0.079,0.1,-0.02));
#895=CARTESIAN_POINT('',(0.08,0.099,-0.02));
#896=CARTESIAN_POINT('',(0.08,0.097,-0.02));
#897=CARTESIAN_POINT('',(0.08,0.097,-0.02));
#898=CARTESIAN_POINT('',(0.08,0.0985,-0.02));
#899=CARTESIAN_POINT('',(0.08,-0.0757573593128808,-0.02));
#900=CARTESIAN_POINT('',(0.08,-0.0757573593128808,-0.02));
#901=CARTESIAN_POINT('',(0.08,-0.0785857864376269,-0.02));
#902=CARTESIAN_POINT('',(0.079,-0.08,-0.02));
#903=CARTESIAN_POINT('',(0.077,-0.08,-0.02));
#904=CARTESIAN_POINT('',(-6.89063399539798E-18,-0.0764644660940673,-0.02));
#905=CARTESIAN_POINT('',(0.077,-0.0764644660940673,-0.02));
#906=CARTESIAN_POINT('',(-0.077,-0.0764644660940673,-0.02));
#907=CARTESIAN_POINT('',(0.0774583333333354,-0.0764055405289694,-0.02));
#908=CARTESIAN_POINT('',(0.0773111383190762,-0.0764537980574665,-0.02));
#909=CARTESIAN_POINT('',(0.0771547169254304,-0.0764644660940675,-0.02));
#910=CARTESIAN_POINT('',(0.077000000000002,-0.0764644660940673,-0.02));
#911=CARTESIAN_POINT('',(0.0774583333333354,-0.0764055405289694,-0.02));
#912=CARTESIAN_POINT('',(0.0775,-0.0757573593128844,-0.0200000000000018));
#913=CARTESIAN_POINT('',(0.0775000000000002,-0.075974152480522,-0.0200000000000018));
#914=CARTESIAN_POINT('',(0.0774934337250728,-0.0761914142434626,-0.02));
#915=CARTESIAN_POINT('',(0.0774583333333354,-0.0764055405289694,-0.02));
#916=CARTESIAN_POINT('',(0.0775,-0.0757573593128832,-0.0200000000000024));
#917=CARTESIAN_POINT('',(0.0775,1.38777878078145E-17,-0.02));
#918=CARTESIAN_POINT('',(0.0775,0.097,-0.02));
#919=CARTESIAN_POINT('',(0.0774583333333334,0.0974583333333333,-0.02));
#920=CARTESIAN_POINT('',(0.0774930890038676,0.0973084101849992,-0.02));
#921=CARTESIAN_POINT('',(0.0775,0.097153768232993,-0.02));
#922=CARTESIAN_POINT('',(0.0775,0.097,-0.02));
#923=CARTESIAN_POINT('',(0.0774583333333334,0.0974583333333333,-0.02));
#924=CARTESIAN_POINT('',(0.077,0.0975,-0.02));
#925=CARTESIAN_POINT('',(0.0771538746553476,0.0975,-0.02));
#926=CARTESIAN_POINT('',(0.0773080171269722,0.0974931795376112,-0.02));
#927=CARTESIAN_POINT('',(0.0774583298278568,0.0974583341459775,-0.02));
#928=CARTESIAN_POINT('',(0.077,0.0975,-0.02));
#929=CARTESIAN_POINT('',(1.75725235228819E-17,0.0975,-0.02));
#930=CARTESIAN_POINT('',(-0.077,0.0975,-0.02));
#931=CARTESIAN_POINT('',(-0.0774583333333333,0.0974583333333333,-0.02));
#932=CARTESIAN_POINT('',(-0.0773084101849992,0.0974930890038675,-0.02));
#933=CARTESIAN_POINT('',(-0.077153768232993,0.0975,-0.02));
#934=CARTESIAN_POINT('',(-0.077,0.0975,-0.02));
#935=CARTESIAN_POINT('',(-0.0774583333333333,0.0974583333333333,-0.02));
#936=CARTESIAN_POINT('',(-0.0775,0.097,-0.02));
#937=CARTESIAN_POINT('',(-0.0775,0.0971538746553476,-0.02));
#938=CARTESIAN_POINT('',(-0.0774931795376112,0.0973080171269721,-0.02));
#939=CARTESIAN_POINT('',(-0.0774583341459775,0.0974583298278568,-0.02));
#940=CARTESIAN_POINT('',(-0.0775,0.097,-0.02));
#941=CARTESIAN_POINT('',(-0.0775,1.38777878078145E-17,-0.02));
#942=CARTESIAN_POINT('',(-0.0775,-0.0757573593129264,-0.02));
#943=CARTESIAN_POINT('',(-0.0774583333333394,-0.0764055405289858,-0.02));
#944=CARTESIAN_POINT('',(-0.077493428382121,-0.0761914468376038,-0.02));
#945=CARTESIAN_POINT('',(-0.0775,-0.0759741474912252,-0.02));
#946=CARTESIAN_POINT('',(-0.0775,-0.0757573593129263,-0.02));
#947=CARTESIAN_POINT('',(-0.0774583333333394,-0.0764055405289858,-0.02));
#948=CARTESIAN_POINT('',(-0.077000000000034,-0.0764644660940673,-0.02));
#949=CARTESIAN_POINT('',(-0.0771547265031078,-0.0764644660940703,-0.02));
#950=CARTESIAN_POINT('',(-0.07731109942463,-0.0764538108089265,-0.02));
#951=CARTESIAN_POINT('',(-0.0774583333333394,-0.0764055405289858,-0.02));
#952=CARTESIAN_POINT('',(1.38777878078145E-17,-0.1,-0.02));
#953=CARTESIAN_POINT('',(-0.08,-0.1,-0.02));
#954=CARTESIAN_POINT('',(-0.08,-0.1,0.00424264068659803));
#955=CARTESIAN_POINT('',(-0.08,-0.1,0.01));
#956=CARTESIAN_POINT('',(-0.08,-0.1,0.00424264068659805));
#957=CARTESIAN_POINT('',(-0.08,-0.1,0.00141421356219935));
#958=CARTESIAN_POINT('',(-0.079,-0.1,0.));
#959=CARTESIAN_POINT('',(-0.077,-0.1,0.));
#960=CARTESIAN_POINT('',(-0.077,-0.1,0.));
#961=CARTESIAN_POINT('',(-0.077,-0.1,0.01));
#962=CARTESIAN_POINT('',(-0.077,-0.1,0.01));
#963=CARTESIAN_POINT('',(-0.0785,-0.1,0.01));
#964=CARTESIAN_POINT('',(0.,1.38777878078145E-17,0.));
#965=CARTESIAN_POINT('',(4.16333634234433E-17,0.1,0.));
#966=CARTESIAN_POINT('',(0.077,0.1,0.));
#967=CARTESIAN_POINT('',(-0.077,0.1,0.));
#968=CARTESIAN_POINT('',(-0.077,0.1,0.));
#969=CARTESIAN_POINT('',(-0.079,0.1,0.));
#970=CARTESIAN_POINT('',(-0.08,0.099,0.));
#971=CARTESIAN_POINT('',(-0.08,0.097,0.));
#972=CARTESIAN_POINT('',(-0.08,0.097,0.));
#973=CARTESIAN_POINT('',(-0.08,0.0985,0.));
#974=CARTESIAN_POINT('',(-0.08,0.013,0.));
#975=CARTESIAN_POINT('',(-0.077,0.013,0.));
#976=CARTESIAN_POINT('',(-0.077,0.013,0.));
#977=CARTESIAN_POINT('',(-0.077,-0.0192023144289851,0.));
#978=CARTESIAN_POINT('',(-0.077,-0.0384046288579702,0.));
#979=CARTESIAN_POINT('',(-0.0785,-0.0384046288579702,0.));
#980=CARTESIAN_POINT('',(-0.08,-0.0384046288579702,0.));
#981=CARTESIAN_POINT('',(-0.08,0.0985,0.));
#982=CARTESIAN_POINT('',(-0.08,-0.0532928095459938,0.));
#983=CARTESIAN_POINT('',(-0.077,-0.0532928095459938,0.));
#984=CARTESIAN_POINT('',(-0.077,-0.0532928095459938,0.));
#985=CARTESIAN_POINT('',(-0.077,-0.0831464047729969,0.));
#986=CARTESIAN_POINT('',(1.38777878078145E-17,-0.1,0.));
#987=CARTESIAN_POINT('',(0.077,-0.1,0.));
#988=CARTESIAN_POINT('',(0.077,-0.0831464047729969,0.));
#989=CARTESIAN_POINT('',(0.077,-0.0532928095459938,0.));
#990=CARTESIAN_POINT('',(0.,-0.0532928095459938,0.));
#991=CARTESIAN_POINT('',(0.08,-0.0532928095459938,0.));
#992=CARTESIAN_POINT('',(0.08,0.0985,0.));
#993=CARTESIAN_POINT('',(0.08,-0.0384046288579702,0.));
#994=CARTESIAN_POINT('',(0.0785,-0.0384046288579702,0.));
#995=CARTESIAN_POINT('',(0.077,-0.0384046288579702,0.));
#996=CARTESIAN_POINT('',(0.077,-0.0192023144289851,0.));
#997=CARTESIAN_POINT('',(0.077,0.013,0.));
#998=CARTESIAN_POINT('',(0.,0.013,0.));
#999=CARTESIAN_POINT('',(0.08,0.013,0.));
#1000=CARTESIAN_POINT('',(0.08,0.0985,0.));
#1001=CARTESIAN_POINT('',(0.08,0.097,0.));
#1002=CARTESIAN_POINT('',(0.08,0.097,0.));
#1003=CARTESIAN_POINT('',(0.08,0.099,0.));
#1004=CARTESIAN_POINT('',(0.079,0.1,0.));
#1005=CARTESIAN_POINT('',(0.077,0.1,0.));
#1006=CARTESIAN_POINT('',(1.38777878078145E-17,-0.1,-0.02));
#1007=CARTESIAN_POINT('',(0.077,-0.1,0.01));
#1008=CARTESIAN_POINT('',(0.077,-0.1,0.01));
#1009=CARTESIAN_POINT('',(0.077,-0.1,0.));
#1010=CARTESIAN_POINT('',(0.079,-0.1,0.));
#1011=CARTESIAN_POINT('',(0.08,-0.1,0.0014142135623731));
#1012=CARTESIAN_POINT('',(0.08,-0.1,0.0042426406871193));
#1013=CARTESIAN_POINT('',(0.08,-0.1,0.00424264068711928));
#1014=CARTESIAN_POINT('',(0.08,-0.1,-0.02));
#1015=CARTESIAN_POINT('',(0.08,-0.1,0.01));
#1016=CARTESIAN_POINT('',(0.0785,-0.1,0.01));
#1017=CARTESIAN_POINT('',(0.08,0.0985,-0.02));
#1018=CARTESIAN_POINT('',(0.08,-0.1,0.0042426406871193));
#1019=CARTESIAN_POINT('',(0.08,-0.0919191197709603,-0.00383823954192047));
#1020=CARTESIAN_POINT('',(0.08,-0.0838382395419207,-0.0119191197709602));
#1021=CARTESIAN_POINT('',(0.08,-0.075757359312881,-0.02));
#1022=CARTESIAN_POINT('',(0.08,0.097,-0.02));
#1023=CARTESIAN_POINT('',(0.08,0.097,-0.0133333333333333));
#1024=CARTESIAN_POINT('',(0.08,0.097,-0.00666666666666667));
#1025=CARTESIAN_POINT('',(0.08,0.097,0.));
#1026=CARTESIAN_POINT('',(0.08,5.8800814682146E-18,0.013));
#1027=CARTESIAN_POINT('',(0.08,0.003,0.01));
#1028=CARTESIAN_POINT('',(0.08,-0.0192023144289851,0.01));
#1029=CARTESIAN_POINT('',(0.08,-0.0384046288579702,0.01));
#1030=CARTESIAN_POINT('',(0.08,-0.0384046288579702,0.01));
#1031=CARTESIAN_POINT('',(0.08,-0.0662928095459938,0.013));
#1032=CARTESIAN_POINT('',(0.08,-0.0632928095459938,0.01));
#1033=CARTESIAN_POINT('',(0.08,-0.0831464047729969,0.01));
#1034=CARTESIAN_POINT('',(4.16333634234433E-17,0.1,-0.02));
#1035=CARTESIAN_POINT('',(-0.077,0.1,-0.02));
#1036=CARTESIAN_POINT('',(-0.077,0.1,-0.0133333333333333));
#1037=CARTESIAN_POINT('',(-0.077,0.1,-0.00666666666666667));
#1038=CARTESIAN_POINT('',(-0.077,0.1,0.));
#1039=CARTESIAN_POINT('',(0.077,0.1,0.));
#1040=CARTESIAN_POINT('',(0.077,0.1,-0.00666666666666667));
#1041=CARTESIAN_POINT('',(0.077,0.1,-0.0133333333333333));
#1042=CARTESIAN_POINT('',(0.077,0.1,-0.02));
#1043=CARTESIAN_POINT('',(-0.08,0.0985,-0.02));
#1044=CARTESIAN_POINT('',(-0.08,-0.0757573593129275,-0.0199999999999989));
#1045=CARTESIAN_POINT('',(-0.08,-0.0838382395417927,-0.0119191197711336));
#1046=CARTESIAN_POINT('',(-0.08,-0.0919191197706578,-0.00383823954226833));
#1047=CARTESIAN_POINT('',(-0.08,-0.099999999999523,0.00424264068659695));
#1048=CARTESIAN_POINT('',(-0.08,-0.0831464047729969,0.01));
#1049=CARTESIAN_POINT('',(-0.08,-0.0632928095459938,0.01));
#1050=CARTESIAN_POINT('',(-0.08,0.0326035952270032,-0.0858964047729969));
#1051=CARTESIAN_POINT('',(-0.08,-0.0384046288579702,0.01));
#1052=CARTESIAN_POINT('',(-0.08,-0.0384046288579702,0.01));
#1053=CARTESIAN_POINT('',(-0.08,-0.0192023144289851,0.01));
#1054=CARTESIAN_POINT('',(-0.08,0.003,0.01));
#1055=CARTESIAN_POINT('',(-0.08,0.06575,-0.05275));
#1056=CARTESIAN_POINT('',(-0.08,0.097,0.));
#1057=CARTESIAN_POINT('',(-0.08,0.097,-0.00666666666666667));
#1058=CARTESIAN_POINT('',(-0.08,0.097,-0.0133333333333333));
#1059=CARTESIAN_POINT('',(-0.08,0.097,-0.02));
#1060=CARTESIAN_POINT('',(0.077,-0.0831464047729969,0.01));
#1061=CARTESIAN_POINT('',(0.077,-0.0831464047729969,0.01));
#1062=CARTESIAN_POINT('',(0.077,-0.0632928095459938,0.01));
#1063=CARTESIAN_POINT('',(0.077,-0.0732196071594954,0.0199267976135016));
#1064=CARTESIAN_POINT('',(0.,1.38777878078145E-17,0.01));
#1065=CARTESIAN_POINT('',(0.0785,-0.0632928095459938,0.01));
#1066=CARTESIAN_POINT('',(-0.0785,-0.0384046288579702,0.01));
#1067=CARTESIAN_POINT('',(-0.077,-0.0384046288579702,0.01));
#1068=CARTESIAN_POINT('',(-0.077,-0.0384046288579702,0.01));
#1069=CARTESIAN_POINT('',(-0.0785,-0.0384046288579702,0.01));
#1070=CARTESIAN_POINT('',(-0.077,-0.0192023144289851,0.01));
#1071=CARTESIAN_POINT('',(-0.077,0.013,0.));
#1072=CARTESIAN_POINT('',(-0.077,0.003,0.01));
#1073=CARTESIAN_POINT('',(-0.077,-0.0192023144289851,0.01));
#1074=CARTESIAN_POINT('',(0.,1.38777878078145E-17,0.01));
#1075=CARTESIAN_POINT('',(0.,0.003,0.01));
#1076=CARTESIAN_POINT('',(0.0785,-0.0384046288579702,0.01));
#1077=CARTESIAN_POINT('',(0.0785,-0.0384046288579702,0.01));
#1078=CARTESIAN_POINT('',(0.077,-0.0384046288579702,0.01));
#1079=CARTESIAN_POINT('',(0.077,-0.0384046288579702,0.01));
#1080=CARTESIAN_POINT('',(0.077,-0.0192023144289851,0.01));
#1081=CARTESIAN_POINT('',(0.077,-0.0192023144289851,0.01));
#1082=CARTESIAN_POINT('',(0.077,0.003,0.01));
#1083=CARTESIAN_POINT('',(0.077,-0.00810115721449256,0.0211011572144925));
#1084=CARTESIAN_POINT('',(0.,1.38777878078145E-17,0.01));
#1085=CARTESIAN_POINT('',(0.0785,0.003,0.01));
#1086=CARTESIAN_POINT('',(-0.077,-0.0831464047729969,0.01));
#1087=CARTESIAN_POINT('',(-0.077,-0.0532928095459938,0.));
#1088=CARTESIAN_POINT('',(-0.077,-0.0632928095459938,0.01));
#1089=CARTESIAN_POINT('',(-0.077,-0.0831464047729969,0.01));
#1090=CARTESIAN_POINT('',(0.,1.38777878078145E-17,0.01));
#1091=CARTESIAN_POINT('',(0.,-0.0632928095459938,0.01));
#1092=CARTESIAN_POINT('',(0.0785,-0.0662928095459938,0.013));
#1093=CARTESIAN_POINT('',(0.,-0.0532928095459938,0.));
#1094=CARTESIAN_POINT('',(0.0785,5.8800814682146E-18,0.013));
#1095=CARTESIAN_POINT('',(0.,0.013,0.));
#1096=CARTESIAN_POINT('',(-7.20924041964388E-18,-0.08,-0.02));
#1097=CARTESIAN_POINT('',(-0.077,-0.0999999999999999,-2.42861286636753E-17));
#1098=CARTESIAN_POINT('',(-0.077,-0.0933333333333333,-0.00666666666666668));
#1099=CARTESIAN_POINT('',(-0.077,-0.0866666666666667,-0.0133333333333333));
#1100=CARTESIAN_POINT('',(-0.077,-0.08,-0.02));
#1101=CARTESIAN_POINT('',(0.077,-0.08,-0.02));
#1102=CARTESIAN_POINT('',(0.077,-0.0866666666666667,-0.0133333333333333));
#1103=CARTESIAN_POINT('',(0.077,-0.0933333333333334,-0.00666666666666666));
#1104=CARTESIAN_POINT('',(0.077,-0.1,1.04083408558608E-17));
#1105=CARTESIAN_POINT('',(-0.08,-0.0756119034688053,-0.0201454558441208));
#1106=CARTESIAN_POINT('',(-0.08,-0.100145455843883,0.00438809653095701));
#1107=CARTESIAN_POINT('',(-0.0800000000000509,-0.0770261170312503,-0.021559669406566));
#1108=CARTESIAN_POINT('',(-0.0800000000000509,-0.101559669406328,0.00297388296851175));
#1109=CARTESIAN_POINT('',(-0.079000000000051,-0.0777332238124294,-0.022266776187745));
#1110=CARTESIAN_POINT('',(-0.079000000000051,-0.102266776187507,0.00226677618733275));
#1111=CARTESIAN_POINT('',(-0.077,-0.0777332238123422,-0.0222667761876578));
#1112=CARTESIAN_POINT('',(-0.077,-0.10226677618742,0.00226677618742));
#1113=CARTESIAN_POINT('',(0.077,-0.0777332238123177,-0.0222667761876823));
#1114=CARTESIAN_POINT('',(0.077,-0.102266776187682,0.00226677618768235));
#1115=CARTESIAN_POINT('',(0.0790000000001744,-0.0777332238123612,-0.0222667761877259));
#1116=CARTESIAN_POINT('',(0.0790000000001744,-0.102266776187726,0.00226677618763872));
#1117=CARTESIAN_POINT('',(0.0800000000001747,-0.0770261170311746,-0.0215596694065394));
#1118=CARTESIAN_POINT('',(0.0800000000001747,-0.101559669406539,0.00297388296882527));
#1119=CARTESIAN_POINT('',(0.08,-0.0756119034687579,-0.0201454558441226));
#1120=CARTESIAN_POINT('',(0.08,-0.100145455844123,0.00438809653124202));
#1121=CARTESIAN_POINT('',(-0.08,0.097,2.56624381983352E-18));
#1122=CARTESIAN_POINT('',(-0.08,0.097,-0.02));
#1123=CARTESIAN_POINT('',(-0.08,0.0990000000000002,-1.73472347597686E-18));
#1124=CARTESIAN_POINT('',(-0.08,0.0990000000000002,-0.02));
#1125=CARTESIAN_POINT('',(-0.0790000000000001,0.1,-1.73472347597683E-18));
#1126=CARTESIAN_POINT('',(-0.0790000000000001,0.1,-0.02));
#1127=CARTESIAN_POINT('',(-0.077,0.1,2.5662438198336E-18));
#1128=CARTESIAN_POINT('',(-0.077,0.1,-0.02));
#1129=CARTESIAN_POINT('',(0.08,0.097,-0.02));
#1130=CARTESIAN_POINT('',(0.08,0.097,0.));
#1131=CARTESIAN_POINT('',(0.0800000000000001,0.0990000000000002,-0.02));
#1132=CARTESIAN_POINT('',(0.0800000000000001,0.0990000000000002,0.));
#1133=CARTESIAN_POINT('',(0.0790000000000002,0.1,-0.02));
#1134=CARTESIAN_POINT('',(0.0790000000000002,0.1,0.));
#1135=CARTESIAN_POINT('',(0.077,0.1,-0.02));
#1136=CARTESIAN_POINT('',(0.077,0.1,0.));
#1137=CARTESIAN_POINT('',(0.,1.38777878078145E-17,-0.0025));
#1138=CARTESIAN_POINT('',(-0.0775,1.38777878078145E-17,-0.0025));
#1139=CARTESIAN_POINT('',(-0.0775,-0.0932573593130564,-0.00249999999995657));
#1140=CARTESIAN_POINT('',(-0.0775,0.097,-0.0025));
#1141=CARTESIAN_POINT('',(-0.0774583333333333,0.0974583333333333,-0.0025));
#1142=CARTESIAN_POINT('',(-0.0774930890038675,0.0973084101849992,-0.0025));
#1143=CARTESIAN_POINT('',(-0.0775,0.097153768232993,-0.0025));
#1144=CARTESIAN_POINT('',(-0.0775,0.097,-0.0025));
#1145=CARTESIAN_POINT('',(-0.0774583333333333,0.0974583333333333,-0.0025));
#1146=CARTESIAN_POINT('',(-0.077,0.0975,-0.0025));
#1147=CARTESIAN_POINT('',(-0.0771538746553476,0.0975,-0.0025));
#1148=CARTESIAN_POINT('',(-0.0773080171269721,0.0974931795376112,-0.0025));
#1149=CARTESIAN_POINT('',(-0.0774583298278567,0.0974583341459775,-0.0025));
#1150=CARTESIAN_POINT('',(-0.077,0.0975,-0.0025));
#1151=CARTESIAN_POINT('',(1.75725235228819E-17,0.0975,-0.0025));
#1152=CARTESIAN_POINT('',(0.077,0.0975,-0.0025));
#1153=CARTESIAN_POINT('',(0.0774583333333333,0.0974583333333333,-0.0025));
#1154=CARTESIAN_POINT('',(0.0773084101849992,0.0974930890038675,-0.0025));
#1155=CARTESIAN_POINT('',(0.077153768232993,0.0975,-0.0025));
#1156=CARTESIAN_POINT('',(0.077,0.0975,-0.0025));
#1157=CARTESIAN_POINT('',(0.0774583333333333,0.0974583333333333,-0.0025));
#1158=CARTESIAN_POINT('',(0.0775,0.097,-0.0025));
#1159=CARTESIAN_POINT('',(0.0775,0.0971538746553477,-0.0025));
#1160=CARTESIAN_POINT('',(0.0774931795376111,0.0973080171269722,-0.00249999999999999));
#1161=CARTESIAN_POINT('',(0.0774583341459775,0.0974583298278568,-0.0025));
#1162=CARTESIAN_POINT('',(0.0775,0.097,-0.0025));
#1163=CARTESIAN_POINT('',(0.0775,1.38777878078145E-17,-0.0025));
#1164=CARTESIAN_POINT('',(0.0775,-0.0932573593132431,-0.0025));
#1165=CARTESIAN_POINT('',(0.0774583333334259,-0.0939055405290195,-0.00250000000000005));
#1166=CARTESIAN_POINT('',(0.0774934472201021,-0.0936913319187774,-0.00250000000000005));
#1167=CARTESIAN_POINT('',(0.0775000000000157,-0.0934739768178684,-0.00250000000000004));
#1168=CARTESIAN_POINT('',(0.0775,-0.0932573593132431,-0.00250000000000004));
#1169=CARTESIAN_POINT('',(0.0774583333334238,-0.0939055405290192,-0.00249999999999681));
#1170=CARTESIAN_POINT('',(0.077000000000153,-0.0939644660940673,-0.0025));
#1171=CARTESIAN_POINT('',(0.077154697162032,-0.0939644660940712,-0.0025));
#1172=CARTESIAN_POINT('',(0.0773114449899191,-0.0939536975162156,-0.00250000000000002));
#1173=CARTESIAN_POINT('',(0.0774583333334228,-0.0939055405290163,-0.00250000000000002));
#1174=CARTESIAN_POINT('',(0.0769999966341924,-0.0939644660940673,-0.0025));
#1175=CARTESIAN_POINT('',(-8.46765533719508E-18,-0.0939644660940673,-0.0025));
#1176=CARTESIAN_POINT('',(-0.077,-0.0939644660940673,-0.0025));
#1177=CARTESIAN_POINT('',(-0.077,-0.0939644660940673,-0.0025));
#1178=CARTESIAN_POINT('',(-0.0771547319972865,-0.0939644660940783,-0.0025));
#1179=CARTESIAN_POINT('',(-0.0773111614877588,-0.093953790461709,-0.00249999999999999));
#1180=CARTESIAN_POINT('',(-0.0774583333333532,-0.0939055405290348,-0.00249999999999999));
#1181=CARTESIAN_POINT('',(-0.077458333333354,-0.0939055405290373,-0.00249999999999723));
#1182=CARTESIAN_POINT('',(-0.0774583333333558,-0.0939055405290376,-0.0025));
#1183=CARTESIAN_POINT('',(-0.0774934472200706,-0.093691331918745,-0.0025));
#1184=CARTESIAN_POINT('',(-0.0775,-0.0934739768177754,-0.0025));
#1185=CARTESIAN_POINT('',(-0.0775,-0.0932573593130998,-0.0025));
#1186=CARTESIAN_POINT('',(0.0775,0.0985,-0.02));
#1187=CARTESIAN_POINT('',(0.0775,0.097,-0.02));
#1188=CARTESIAN_POINT('',(0.0775,0.097,-0.0141666666666667));
#1189=CARTESIAN_POINT('',(0.0775,0.097,-0.00833333333333333));
#1190=CARTESIAN_POINT('',(0.0775,0.097,-0.0025));
#1191=CARTESIAN_POINT('',(0.0775,-0.093257359313062,-0.00249999999981879));
#1192=CARTESIAN_POINT('',(0.0775,-0.0874240259796683,-0.00833333333321253));
#1193=CARTESIAN_POINT('',(0.0775,-0.0815906926462747,-0.0141666666666063));
#1194=CARTESIAN_POINT('',(0.0775,-0.075757359312881,-0.02));
#1195=CARTESIAN_POINT('',(0.0774583333333334,0.0974583333333333,-0.02));
#1196=CARTESIAN_POINT('',(0.0774583333333333,0.0974583333333333,-0.0141666666666666));
#1197=CARTESIAN_POINT('',(0.0774583333333333,0.0974583333333333,-0.00833333333333335));
#1198=CARTESIAN_POINT('',(0.0774583333333334,0.0974583333333333,-0.0025));
#1199=CARTESIAN_POINT('',(0.0773729773398655,0.0974824205560983,-0.02));
#1200=CARTESIAN_POINT('',(0.0773729773398655,0.0974824205560983,-0.0141666666666666));
#1201=CARTESIAN_POINT('',(0.0773729773398655,0.0974824205560984,-0.00833333333333334));
#1202=CARTESIAN_POINT('',(0.0773729773398655,0.0974824205560984,-0.0025));
#1203=CARTESIAN_POINT('',(0.0772201995620877,0.0974963094449873,-0.02));
#1204=CARTESIAN_POINT('',(0.0772201995620877,0.0974963094449871,-0.0141666666666667));
#1205=CARTESIAN_POINT('',(0.0772201995620878,0.0974963094449873,-0.00833333333333333));
#1206=CARTESIAN_POINT('',(0.0772201995620878,0.0974963094449873,-0.0025));
#1207=CARTESIAN_POINT('',(0.077,0.0975,-0.02));
#1208=CARTESIAN_POINT('',(0.0769999999999999,0.0975,-0.0141666666666666));
#1209=CARTESIAN_POINT('',(0.077,0.0975,-0.00833333333333333));
#1210=CARTESIAN_POINT('',(0.077,0.0975,-0.0025));
#1211=CARTESIAN_POINT('',(0.0774583333333334,0.0974583333333333,-0.01));
#1212=CARTESIAN_POINT('',(0.077,0.0975,-0.0025));
#1213=CARTESIAN_POINT('',(0.077,0.0975,-0.00833333333333333));
#1214=CARTESIAN_POINT('',(0.077,0.0975,-0.0141666666666667));
#1215=CARTESIAN_POINT('',(0.077,0.0975,-0.02));
#1216=CARTESIAN_POINT('',(-0.0774583333333333,0.0974583333333334,-0.0025));
#1217=CARTESIAN_POINT('',(-0.0774583333333333,0.0974583333333334,-0.00833333333333332));
#1218=CARTESIAN_POINT('',(-0.0774583333333333,0.0974583333333334,-0.0141666666666667));
#1219=CARTESIAN_POINT('',(-0.0774583333333333,0.0974583333333334,-0.02));
#1220=CARTESIAN_POINT('',(-0.0773729773398654,0.0974824205560984,-0.0025));
#1221=CARTESIAN_POINT('',(-0.0773729773398654,0.0974824205560985,-0.00833333333333333));
#1222=CARTESIAN_POINT('',(-0.0773729773398654,0.0974824205560984,-0.0141666666666667));
#1223=CARTESIAN_POINT('',(-0.0773729773398654,0.0974824205560984,-0.02));
#1224=CARTESIAN_POINT('',(-0.0772201995620876,0.0974963094449873,-0.0025));
#1225=CARTESIAN_POINT('',(-0.0772201995620876,0.0974963094449874,-0.00833333333333333));
#1226=CARTESIAN_POINT('',(-0.0772201995620876,0.0974963094449873,-0.0141666666666667));
#1227=CARTESIAN_POINT('',(-0.0772201995620876,0.0974963094449873,-0.02));
#1228=CARTESIAN_POINT('',(-0.077,0.0975,-0.0025));
#1229=CARTESIAN_POINT('',(-0.077,0.0975000000000001,-0.00833333333333333));
#1230=CARTESIAN_POINT('',(-0.077,0.0975,-0.0141666666666667));
#1231=CARTESIAN_POINT('',(-0.077,0.0975,-0.02));
#1232=CARTESIAN_POINT('',(-0.0774583333333333,0.0974583333333333,-0.01));
#1233=CARTESIAN_POINT('',(-0.077,0.0975,-0.02));
#1234=CARTESIAN_POINT('',(-0.077,0.0975,-0.0141666666666667));
#1235=CARTESIAN_POINT('',(-0.077,0.0975,-0.00833333333333333));
#1236=CARTESIAN_POINT('',(-0.077,0.0975,-0.0025));
#1237=CARTESIAN_POINT('',(0.0770000000000018,-0.0763298265348214,-0.0201346395592461));
#1238=CARTESIAN_POINT('',(0.0770000000000151,-0.082243098646802,-0.0142213674472652));
#1239=CARTESIAN_POINT('',(0.077000000000105,-0.0881563707587829,-0.00830809533528444));
#1240=CARTESIAN_POINT('',(0.0770000000000896,-0.0940696428707637,-0.00239482322330364));
#1241=CARTESIAN_POINT('',(0.0772201995620885,-0.0763272169183462,-0.0201320299427699));
#1242=CARTESIAN_POINT('',(0.0772201995621093,-0.0822404890303293,-0.0142187578307883));
#1243=CARTESIAN_POINT('',(0.0772201995622491,-0.0881537611423151,-0.00830548571881307));
#1244=CARTESIAN_POINT('',(0.0772201995622251,-0.0940670332542927,-0.00239221360683365));
#1245=CARTESIAN_POINT('',(0.0773729773398662,-0.0763173959908304,-0.0201222090152531));
#1246=CARTESIAN_POINT('',(0.0773729773398925,-0.0822306681028159,-0.0142089369032695));
#1247=CARTESIAN_POINT('',(0.0773729773400686,-0.0881439402148033,-0.00829566479129676));
#1248=CARTESIAN_POINT('',(0.0773729773400384,-0.0940572123267777,-0.00238239267931993));
#1249=CARTESIAN_POINT('',(0.077458333333335,-0.0763003637522741,-0.0201051767766954));
#1250=CARTESIAN_POINT('',(0.0774583333333646,-0.082213635864262,-0.0141919046647091));
#1251=CARTESIAN_POINT('',(0.0774583333335635,-0.0881269079762476,-0.00827863255273552));
#1252=CARTESIAN_POINT('',(0.0774583333335294,-0.0940401800882186,-0.00236536044076248));
#1253=CARTESIAN_POINT('',(0.077,-0.0764644660940673,-0.02));
#1254=CARTESIAN_POINT('',(0.077,-0.0822977994274007,-0.0141666666666667));
#1255=CARTESIAN_POINT('',(0.077,-0.088131132760734,-0.00833333333333336));
#1256=CARTESIAN_POINT('',(0.077,-0.0939644660940673,-0.00250000000000002));
#1257=CARTESIAN_POINT('',(0.0774583333333354,-0.0764055405289694,-0.02));
#1258=CARTESIAN_POINT('',(0.0774583333333501,-0.0822388738623153,-0.0141666666666615));
#1259=CARTESIAN_POINT('',(0.0774583333334408,-0.0880722071956801,-0.00833333333334205));
#1260=CARTESIAN_POINT('',(0.0774583333334266,-0.0939055405290187,-0.00249999999999634));
#1261=CARTESIAN_POINT('',(-0.0775,-0.075650414769276,-0.0201069445436463));
#1262=CARTESIAN_POINT('',(-0.0775000000000001,-0.0816630746678365,-0.0140942846453023));
#1263=CARTESIAN_POINT('',(-0.0774999999999999,-0.0876757345663171,-0.0080816247468784));
#1264=CARTESIAN_POINT('',(-0.0775,-0.093688394464718,-0.00206896484837472));
#1265=CARTESIAN_POINT('',(-0.0774963094449884,-0.0758061193728296,-0.0202626491471958));
#1266=CARTESIAN_POINT('',(-0.0774963094449881,-0.0818187792713892,-0.014249989248853));
#1267=CARTESIAN_POINT('',(-0.0774963094449879,-0.0878314391698689,-0.00823732935043014));
#1268=CARTESIAN_POINT('',(-0.0774963094449881,-0.0938440990682687,-0.00222466945192735));
#1269=CARTESIAN_POINT('',(-0.0774824205561015,-0.0759141495755068,-0.0203706793498684));
#1270=CARTESIAN_POINT('',(-0.0774824205561017,-0.0819268094740625,-0.0143580194515239));
#1271=CARTESIAN_POINT('',(-0.0774824205561017,-0.0879394693725404,-0.0083453595531015));
#1272=CARTESIAN_POINT('',(-0.0774824205561016,-0.0939521292709403,-0.00233269965460116));
#1273=CARTESIAN_POINT('',(-0.0774583333333394,-0.0759745053773077,-0.0204310351516641));
#1274=CARTESIAN_POINT('',(-0.0774583333333409,-0.0819871652758564,-0.0144183752533151));
#1275=CARTESIAN_POINT('',(-0.0774583333333412,-0.0879998251743314,-0.00840571535489249));
#1276=CARTESIAN_POINT('',(-0.0774583333333405,-0.0940124850727328,-0.00239305545639616));
#1277=CARTESIAN_POINT('',(-0.0774583333333394,-0.0764055405289858,-0.02));
#1278=CARTESIAN_POINT('',(-0.0774583333333613,-0.0822388738623591,-0.0141666666666886));
#1279=CARTESIAN_POINT('',(-0.077458333333367,-0.0880722071957095,-0.0083333333333542));
#1280=CARTESIAN_POINT('',(-0.0774583333333564,-0.0939055405290369,-0.00249999999999686));
#1281=CARTESIAN_POINT('',(-0.0775,-0.0757573593129275,-0.0199999999999989));
#1282=CARTESIAN_POINT('',(-0.0775,-0.0815906926462893,-0.014166666666637));
#1283=CARTESIAN_POINT('',(-0.0775,-0.0874240259796511,-0.00833333333327508));
#1284=CARTESIAN_POINT('',(-0.0775,-0.093257359313013,-0.00249999999991317));
#1285=CARTESIAN_POINT('',(4.11827858972156E-17,0.0975,-0.02));
#1286=CARTESIAN_POINT('',(-0.0775,0.0985,-0.02));
#1287=CARTESIAN_POINT('',(-0.0775,0.097,-0.0025));
#1288=CARTESIAN_POINT('',(-0.0775,0.097,-0.00833333333333333));
#1289=CARTESIAN_POINT('',(-0.0775,0.097,-0.0141666666666667));
#1290=CARTESIAN_POINT('',(-0.0775,0.097,-0.02));
#1291=CARTESIAN_POINT('',(-7.04993720752093E-18,-0.0782322330470337,-0.0182322330470337));
#1292=CARTESIAN_POINT('',(-0.077,-0.0939644660940673,-0.00250000000000002));
#1293=CARTESIAN_POINT('',(-0.077,-0.0881311327607339,-0.00833333333333336));
#1294=CARTESIAN_POINT('',(-0.077,-0.0822977994274006,-0.0141666666666667));
#1295=CARTESIAN_POINT('',(-0.077,-0.0764644660940673,-0.02));
#1296=CARTESIAN_POINT('',(-0.0774583333333376,-0.0763003637522904,-0.0201051767766949));
#1297=CARTESIAN_POINT('',(-0.0774583333334502,-0.0822136358642837,-0.014191904664735));
#1298=CARTESIAN_POINT('',(-0.0774583333334792,-0.0881269079762648,-0.00827863255276262));
#1299=CARTESIAN_POINT('',(-0.0774583333334237,-0.0940401800882332,-0.0023653604407777));
#1300=CARTESIAN_POINT('',(-0.0773729773398745,-0.0763173959908443,-0.0201222090152546));
#1301=CARTESIAN_POINT('',(-0.0773729773399938,-0.0822306681028351,-0.0142089369032894));
#1302=CARTESIAN_POINT('',(-0.0773729773400244,-0.0881439402148168,-0.00829566479131459));
#1303=CARTESIAN_POINT('',(-0.0773729773399657,-0.0940572123267885,-0.00238239267933007));
#1304=CARTESIAN_POINT('',(-0.0772201995620639,-0.0763272169183545,-0.0201320299427717));
#1305=CARTESIAN_POINT('',(-0.0772201995621863,-0.0822404890303414,-0.0142187578307992));
#1306=CARTESIAN_POINT('',(-0.0772201995622176,-0.0881537611423234,-0.00830548571882126));
#1307=CARTESIAN_POINT('',(-0.0772201995621574,-0.0940670332542996,-0.00239221360683778));
#1308=CARTESIAN_POINT('',(-0.0769999999999058,-0.0763298265348212,-0.0201346395592463));
#1309=CARTESIAN_POINT('',(-0.0770000000000276,-0.0822430986468027,-0.0142213674472644));
#1310=CARTESIAN_POINT('',(-0.0770000000000589,-0.0881563707587847,-0.00830809533528264));
#1311=CARTESIAN_POINT('',(-0.0769999999999989,-0.0940696428707665,-0.00239482322330084));
#1312=CARTESIAN_POINT('',(0.0774583333333349,-0.0759745053772774,-0.0204310351516887));
#1313=CARTESIAN_POINT('',(0.0774583333333406,-0.0819871652757664,-0.0144183752532386));
#1314=CARTESIAN_POINT('',(0.0774583333333903,-0.0879998251743886,-0.00840571535495104));
#1315=CARTESIAN_POINT('',(0.0774583333333821,-0.0940124850728016,-0.00239305545648295));
#1316=CARTESIAN_POINT('',(0.0774824205560994,-0.0759141495754797,-0.0203706793498924));
#1317=CARTESIAN_POINT('',(0.0774824205561038,-0.0819268094739671,-0.0143580194514475));
#1318=CARTESIAN_POINT('',(0.0774824205561424,-0.0879394693726056,-0.00834535955317503));
#1319=CARTESIAN_POINT('',(0.0774824205561361,-0.0939521292710205,-0.00233269965469989));
#1320=CARTESIAN_POINT('',(0.0774963094449878,-0.0758061193727986,-0.020262649147213));
#1321=CARTESIAN_POINT('',(0.0774963094449903,-0.0818187792712826,-0.014249989248773));
#1322=CARTESIAN_POINT('',(0.0774963094450123,-0.0878314391699282,-0.0082373293505062));
#1323=CARTESIAN_POINT('',(0.0774963094450087,-0.0938440990683475,-0.00222466945202454));
#1324=CARTESIAN_POINT('',(0.0775,-0.0756504147692343,-0.0201069445436505));
#1325=CARTESIAN_POINT('',(0.0775,-0.0816630746677128,-0.0140942846452152));
#1326=CARTESIAN_POINT('',(0.0775,-0.0876757345663563,-0.00808162474694455));
#1327=CARTESIAN_POINT('',(0.0775,-0.0936883944647826,-0.0020689648484569));
#1328=CARTESIAN_POINT('',(-0.0775,0.097,-0.0025));
#1329=CARTESIAN_POINT('',(-0.0775,0.0970000000000001,-0.00833333333333333));
#1330=CARTESIAN_POINT('',(-0.0774999999999999,0.0969999999999999,-0.0141666666666666));
#1331=CARTESIAN_POINT('',(-0.0775,0.097,-0.02));
#1332=CARTESIAN_POINT('',(-0.0774963094449872,0.0972201995620877,-0.0025));
#1333=CARTESIAN_POINT('',(-0.0774963094449872,0.0972201995620876,-0.00833333333333332));
#1334=CARTESIAN_POINT('',(-0.0774963094449872,0.0972201995620876,-0.0141666666666667));
#1335=CARTESIAN_POINT('',(-0.0774963094449872,0.0972201995620877,-0.02));
#1336=CARTESIAN_POINT('',(-0.0774824205560983,0.0973729773398654,-0.0025));
#1337=CARTESIAN_POINT('',(-0.0774824205560983,0.0973729773398654,-0.00833333333333332));
#1338=CARTESIAN_POINT('',(-0.0774824205560984,0.0973729773398653,-0.0141666666666667));
#1339=CARTESIAN_POINT('',(-0.0774824205560983,0.0973729773398654,-0.02));
#1340=CARTESIAN_POINT('',(-0.0774583333333333,0.0974583333333333,-0.0025));
#1341=CARTESIAN_POINT('',(-0.0774583333333333,0.0974583333333333,-0.00833333333333333));
#1342=CARTESIAN_POINT('',(-0.0774583333333334,0.0974583333333333,-0.0141666666666666));
#1343=CARTESIAN_POINT('',(-0.0774583333333333,0.0974583333333333,-0.02));
#1344=CARTESIAN_POINT('',(0.0775,0.097,-0.02));
#1345=CARTESIAN_POINT('',(0.0775,0.097,-0.0141666666666666));
#1346=CARTESIAN_POINT('',(0.0775,0.097,-0.00833333333333334));
#1347=CARTESIAN_POINT('',(0.0775,0.097,-0.0025));
#1348=CARTESIAN_POINT('',(0.0774963094449873,0.0972201995620876,-0.02));
#1349=CARTESIAN_POINT('',(0.0774963094449873,0.0972201995620876,-0.0141666666666667));
#1350=CARTESIAN_POINT('',(0.0774963094449873,0.0972201995620876,-0.00833333333333333));
#1351=CARTESIAN_POINT('',(0.0774963094449872,0.0972201995620876,-0.0025));
#1352=CARTESIAN_POINT('',(0.0774824205560984,0.0973729773398654,-0.02));
#1353=CARTESIAN_POINT('',(0.0774824205560984,0.0973729773398654,-0.0141666666666666));
#1354=CARTESIAN_POINT('',(0.0774824205560984,0.0973729773398654,-0.00833333333333333));
#1355=CARTESIAN_POINT('',(0.0774824205560984,0.0973729773398653,-0.0025));
#1356=CARTESIAN_POINT('',(0.0774583333333334,0.0974583333333334,-0.02));
#1357=CARTESIAN_POINT('',(0.0774583333333333,0.0974583333333333,-0.0141666666666666));
#1358=CARTESIAN_POINT('',(0.0774583333333334,0.0974583333333335,-0.00833333333333335));
#1359=CARTESIAN_POINT('',(0.0774583333333334,0.0974583333333334,-0.0025));
#1360=MECHANICAL_DESIGN_GEOMETRIC_PRESENTATION_REPRESENTATION('',(#717),
#1361);
#1361=(
GEOMETRIC_REPRESENTATION_CONTEXT(3)
GLOBAL_UNCERTAINTY_ASSIGNED_CONTEXT((#1362))
GLOBAL_UNIT_ASSIGNED_CONTEXT((#1365,#1364,#1363))
REPRESENTATION_CONTEXT('Part 1','TOP_LEVEL_ASSEMBLY_PART')
);
#1362=UNCERTAINTY_MEASURE_WITH_UNIT(LENGTH_MEASURE(2.00000002562415E-5),
#1365,'DISTANCE_ACCURACY_VALUE','Maximum Tolerance applied to model');
#1363=(
NAMED_UNIT(*)
SI_UNIT($,.STERADIAN.)
SOLID_ANGLE_UNIT()
);
#1364=(
NAMED_UNIT(*)
PLANE_ANGLE_UNIT()
SI_UNIT($,.RADIAN.)
);
#1365=(
LENGTH_UNIT()
NAMED_UNIT(*)
SI_UNIT($,.METRE.)
);
#1366=PRODUCT_DEFINITION_SHAPE('','',#1367);
#1367=PRODUCT_DEFINITION('','',#1369,#1368);
#1368=PRODUCT_DEFINITION_CONTEXT('',#1375,'design');
#1369=PRODUCT_DEFINITION_FORMATION_WITH_SPECIFIED_SOURCE('','',#1371,
 .NOT_KNOWN.);
#1370=PRODUCT_RELATED_PRODUCT_CATEGORY('','',(#1371));
#1371=PRODUCT('Part 1','Part 1','Part 1',(#1373));
#1372=PRODUCT_CATEGORY('','');
#1373=PRODUCT_CONTEXT('',#1375,'mechanical');
#1374=APPLICATION_PROTOCOL_DEFINITION('international standard',
'ap242_managed_model_based_3d_engineering',2020,#1375);
#1375=APPLICATION_CONTEXT('managed model based 3d engineering');
ENDSEC;
END-ISO-10303-21;
